/* XPM */
static char * coin_xpm[] = {
"64 64 643 2",
"  	c #976D4C",
". 	c #7A573C",
"+ 	c #BD875E",
"@ 	c #79573B",
"# 	c #B9845D",
"$ 	c #5B3E28",
"% 	c #7A583B",
"& 	c #7A583C",
"* 	c #B9885F",
"= 	c #594029",
"- 	c #898B8A",
"; 	c #966D4A",
"> 	c #5C442B",
", 	c #5B4429",
"' 	c #76613A",
") 	c #3A4818",
"! 	c #3B4718",
"~ 	c #7D6B3E",
"{ 	c #7C6B3E",
"] 	c #6F5635",
"^ 	c #5C402A",
"/ 	c #525A27",
"( 	c #005200",
"_ 	c #665630",
": 	c #535A27",
"< 	c #005100",
"[ 	c #5C3F29",
"} 	c #6E6C6A",
"| 	c #45461E",
"1 	c #3B4819",
"2 	c #405224",
"3 	c #58875A",
"4 	c #5E9265",
"5 	c #5D9265",
"6 	c #52925C",
"7 	c #4E9259",
"8 	c #4E9359",
"9 	c #4B7945",
"0 	c #3E4A1C",
"a 	c #3C4718",
"b 	c #534124",
"c 	c #4A441F",
"d 	c #095102",
"e 	c #246A27",
"f 	c #B7DFC5",
"g 	c #D0F6E0",
"h 	c #CFF6DF",
"i 	c #B7F6CD",
"j 	c #ADF6C6",
"k 	c #AEF7C7",
"l 	c #79C08B",
"m 	c #135B17",
"n 	c #194E06",
"o 	c #755639",
"p 	c #46441D",
"q 	c #246B27",
"r 	c #C0E7CF",
"s 	c #DAFFEB",
"t 	c #D9FFEA",
"u 	c #C0FFD8",
"v 	c #B6FFD0",
"w 	c #B7FFD2",
"x 	c #7FC791",
"y 	c #145C18",
"z 	c #005300",
"A 	c #004F00",
"B 	c #745638",
"C 	c #495126",
"D 	c #246F29",
"E 	c #25722A",
"F 	c #3D8644",
"G 	c #B5E9C8",
"H 	c #CBFDE0",
"I 	c #CAFDDF",
"J 	c #A9FBC7",
"K 	c #9CFABE",
"L 	c #9DFBBF",
"M 	c #6DC786",
"N 	c #106A1A",
"O 	c #006307",
"P 	c #005D06",
"Q 	c #755739",
"R 	c #7A633B",
"S 	c #3D571A",
"T 	c #3F581B",
"U 	c #5A8E5A",
"V 	c #9FE6B5",
"W 	c #AAF1C2",
"X 	c #A5F1BF",
"Y 	c #92F5B6",
"Z 	c #8DF7B4",
"` 	c #89F6B1",
" .	c #55E685",
"..	c #38E172",
"+.	c #39E172",
"@.	c #26CB58",
"#.	c #02A52C",
"$.	c #00A329",
"%.	c #009321",
"&.	c #21570E",
"*.	c #22500C",
"=.	c #214D0B",
"-.	c #564127",
";.	c #6C6B6B",
">.	c #6E6D6F",
",.	c #736037",
"'.	c #52925E",
").	c #AAF3C2",
"!.	c #B0FDCC",
"~.	c #8CF7B4",
"{.	c #82F6AD",
"].	c #7DF4AA",
"^.	c #42E379",
"/.	c #17DD62",
"(.	c #10CB50",
"_.	c #01AC2E",
":.	c #00AA2C",
"<.	c #009A24",
"[.	c #005A04",
"}.	c #574026",
"|.	c #986F4B",
"1.	c #746338",
"2.	c #005500",
"3.	c #51945D",
"4.	c #AAF2C2",
"5.	c #B5FCCF",
"6.	c #AFFBCB",
"7.	c #8DF7B5",
"8.	c #84F6AE",
"9.	c #7FF5AB",
"0.	c #44E37A",
"a.	c #16DC61",
"b.	c #16DB61",
"c.	c #0FCA4F",
"d.	c #01AA2E",
"e.	c #00A92B",
"f.	c #009924",
"g.	c #005D05",
"h.	c #005602",
"i.	c #584026",
"j.	c #48471E",
"k.	c #24500B",
"l.	c #244F0C",
"m.	c #74A77D",
"n.	c #A5ECBD",
"o.	c #A7EDBF",
"p.	c #9EEFBA",
"q.	c #8DF6B3",
"r.	c #8CF7B3",
"s.	c #90F7B6",
"t.	c #A7F9C5",
"u.	c #ACF9C9",
"v.	c #A7F8C5",
"w.	c #59E485",
"x.	c #0DCC54",
"y.	c #04C14B",
"z.	c #03AA3A",
"A.	c #00831C",
"B.	c #00801A",
"C.	c #00851D",
"D.	c #009326",
"E.	c #009427",
"F.	c #234810",
"G.	c #2E452E",
"H.	c #2C452C",
"I.	c #6A6A6B",
"J.	c #5B552B",
"K.	c #74B186",
"L.	c #B4FDCE",
"M.	c #A8FDC7",
"N.	c #86F7B0",
"O.	c #88F6B1",
"P.	c #ABF9C8",
"Q.	c #B3FACD",
"R.	c #ADF9CA",
"S.	c #5DE587",
"T.	c #0FCA50",
"U.	c #01BB46",
"V.	c #00BC46",
"W.	c #00A334",
"X.	c #007A17",
"Y.	c #007715",
"Z.	c #00811B",
"`.	c #00A129",
" +	c #009D2B",
".+	c #009E2B",
"++	c #004A07",
"@+	c #003900",
"#+	c #563E26",
"$+	c #B7845B",
"%+	c #5C522B",
"&+	c #004D00",
"*+	c #004C00",
"=+	c #73B085",
"-+	c #B5FDCE",
";+	c #B7FFD1",
">+	c #A9FDC7",
",+	c #85F7AF",
"'+	c #81F6AC",
")+	c #ACF9C8",
"!+	c #B4FACE",
"~+	c #AFF9CA",
"{+	c #0BC952",
"]+	c #00BB46",
"^+	c #00BC47",
"/+	c #007917",
"(+	c #007614",
"_+	c #009B2A",
":+	c #004907",
"<+	c #003700",
"[+	c #573D26",
"}+	c #77643A",
"|+	c #42581D",
"1+	c #365719",
"2+	c #749D78",
"3+	c #9BC8A7",
"4+	c #99DDAF",
"5+	c #96F9BA",
"6+	c #9BF9BE",
"7+	c #9FF9C1",
"8+	c #9FF8C0",
"9+	c #9AF7BD",
"0+	c #83F0AA",
"a+	c #7CEFA6",
"b+	c #79EEA4",
"c+	c #42E278",
"d+	c #17DE62",
"e+	c #09C750",
"f+	c #00B43C",
"g+	c #00B33B",
"h+	c #00A431",
"i+	c #008B22",
"j+	c #008921",
"k+	c #008E23",
"l+	c #009C2A",
"m+	c #007416",
"n+	c #006F12",
"o+	c #245012",
"p+	c #263A0D",
"q+	c #333F15",
"r+	c #745538",
"s+	c #8A6944",
"t+	c #005000",
"u+	c #045704",
"v+	c #9AC2A7",
"w+	c #D9FEEA",
"x+	c #BBFBD4",
"y+	c #91F7B7",
"z+	c #AFFACB",
"A+	c #6CEB9A",
"B+	c #58E78E",
"C+	c #56E78D",
"D+	c #30E06F",
"E+	c #17DE63",
"F+	c #09C048",
"G+	c #00B138",
"H+	c #00A834",
"I+	c #00962A",
"J+	c #009529",
"K+	c #009A2A",
"L+	c #00881F",
"M+	c #00861E",
"N+	c #00550C",
"O+	c #20390B",
"P+	c #705637",
"Q+	c #9BC2A7",
"R+	c #DBFFEC",
"S+	c #DBFFEB",
"T+	c #BCFBD5",
"U+	c #83F6AE",
"V+	c #83F6AD",
"W+	c #92F7B7",
"X+	c #B0FACB",
"Y+	c #A8F8C5",
"Z+	c #6BEB9A",
"`+	c #57E78D",
" @	c #54E68C",
".@	c #2EDF6E",
"+@	c #11DD60",
"@@	c #11DD61",
"#@	c #04BF46",
"$@	c #00B036",
"%@	c #00A733",
"&@	c #1C3909",
"*@	c #986D4C",
"=@	c #90C29F",
"-@	c #CBFFE0",
";@	c #AAFAC7",
">@	c #67F49C",
",@	c #67F49B",
"'@	c #75F6A5",
")@	c #94F6B8",
"!@	c #91F6B6",
"~@	c #86F3AF",
"{@	c #84F2AD",
"]@	c #83F3AD",
"^@	c #6CEC9A",
"/@	c #63E993",
"(@	c #64EA94",
"_@	c #47D978",
":@	c #30CF66",
"<@	c #20BC52",
"[@	c #029E2E",
"}@	c #009C2B",
"|@	c #008C22",
"1@	c #00580E",
"2@	c #035703",
"3@	c #81C294",
"4@	c #B7FFD0",
"5@	c #94FAB6",
"6@	c #42F385",
"7@	c #42F384",
"8@	c #4DF38B",
"9@	c #66F59C",
"0@	c #6AF59E",
"a@	c #74F6A6",
"b@	c #ADFDCB",
"c@	c #B9FFD3",
"d@	c #B9FED3",
"e@	c #B4FBCE",
"f@	c #B2FACC",
"g@	c #86F7AF",
"h@	c #60F397",
"i@	c #60F497",
"j@	c #42D875",
"k@	c #06A637",
"l@	c #00A332",
"m@	c #009E30",
"n@	c #009629",
"o@	c #005A10",
"p@	c #41F384",
"q@	c #4CF38B",
"r@	c #69F59E",
"s@	c #74F6A5",
"t@	c #BAFFD4",
"u@	c #B5FBCF",
"v@	c #87F7B0",
"w@	c #61F498",
"x@	c #61F598",
"y@	c #42D876",
"z@	c #005B10",
"A@	c #B7875E",
"B@	c #A87F56",
"C@	c #035704",
"D@	c #7FC092",
"E@	c #B4FCCE",
"F@	c #92F8B4",
"G@	c #4AF389",
"H@	c #5BF495",
"I@	c #5CF496",
"J@	c #6AF69F",
"K@	c #ACFDCA",
"L@	c #ACFBCA",
"M@	c #A7F9C6",
"N@	c #A8F9C6",
"O@	c #7DF6A8",
"P@	c #5BF595",
"Q@	c #3FD875",
"R@	c #06A737",
"S@	c #00A232",
"T@	c #008F24",
"U@	c #008F25",
"V@	c #00590F",
"W@	c #946B4A",
"X@	c #AA8057",
"Y@	c #7CC191",
"Z@	c #B0FECE",
"`@	c #AFFDCD",
" #	c #8EF9B4",
".#	c #53F48F",
"+#	c #A9FDC8",
"@#	c #94F9B9",
"##	c #60F496",
"$#	c #42F485",
"%#	c #2DDC6B",
"&#	c #03B33B",
"*#	c #00AF38",
"=#	c #00A433",
"-#	c #00871E",
";#	c #00560C",
">#	c #94F9B8",
",#	c #5FF495",
"'#	c #41F485",
")#	c #03B43C",
"!#	c #00B038",
"~#	c #008920",
"{#	c #00B137",
"]#	c #00B037",
"^#	c #8C6845",
"/#	c #51F48E",
"(#	c #A3F9C2",
"_#	c #B2FBCE",
":#	c #91F8B7",
"<#	c #00AC36",
"[#	c #009F31",
"}#	c #009225",
"|#	c #005A0F",
"1#	c #8B6845",
"2#	c #009F30",
"3#	c #009325",
"4#	c #AFFECE",
"5#	c #B2FBCD",
"6#	c #5BBC7A",
"7#	c #6CF49D",
"8#	c #40F384",
"9#	c #4AF38A",
"0#	c #85F5AD",
"a#	c #91F5B6",
"b#	c #8FF5B5",
"c#	c #54F490",
"d#	c #52F48F",
"e#	c #53F590",
"f#	c #3ADD73",
"g#	c #06B43C",
"h#	c #009E2D",
"i#	c #008D23",
"j#	c #00590E",
"k#	c #025703",
"l#	c #50B972",
"m#	c #72F2A2",
"n#	c #72F1A2",
"o#	c #60F296",
"p#	c #4BF38A",
"q#	c #78F5A7",
"r#	c #56F38F",
"s#	c #4FF48C",
"t#	c #59F494",
"u#	c #5AF595",
"v#	c #3DDD75",
"w#	c #06B43D",
"x#	c #2F3E13",
"y#	c #6F5536",
"z#	c #72F2A3",
"A#	c #80F5AB",
"B#	c #7C593D",
"C#	c #5EEE92",
"D#	c #30E775",
"E#	c #35EA79",
"F#	c #40F283",
"G#	c #48F388",
"H#	c #69F29C",
"I#	c #71F2A1",
"J#	c #6FF3A1",
"K#	c #56F491",
"L#	c #5AF494",
"M#	c #06A537",
"N#	c #00A231",
"O#	c #5AE98D",
"P#	c #1EDC66",
"Q#	c #2AE26F",
"R#	c #3FF182",
"S#	c #44F386",
"T#	c #5AF493",
"U#	c #5EF496",
"V#	c #43D374",
"W#	c #07992F",
"X#	c #009025",
"Y#	c #007D1A",
"Z#	c #007C19",
"`#	c #007B19",
" $	c #00851E",
".$	c #AA7D55",
"+$	c #1FDC66",
"@$	c #2BE26F",
"#$	c #079930",
"$$	c #007E1A",
"%$	c #253B0D",
"&$	c #888685",
"*$	c #888788",
"=$	c #7C5B40",
"-$	c #8F7246",
";$	c #455B1E",
">$	c #465E20",
",$	c #54A763",
"'$	c #60D388",
")$	c #4CD177",
"!$	c #19D15D",
"~$	c #19D25E",
"{$	c #23DA67",
"]$	c #37EA7A",
"^$	c #39EC7D",
"/$	c #3DEB7E",
"($	c #4EE685",
"_$	c #52E486",
":$	c #4CE482",
"<$	c #4AE481",
"[$	c #49E581",
"}$	c #50E384",
"|$	c #53E087",
"1$	c #52E386",
"2$	c #38C566",
"3$	c #05932A",
"4$	c #009024",
"5$	c #007717",
"6$	c #295416",
"7$	c #2B3E11",
"8$	c #344116",
"9$	c #898987",
"0$	c #8E7046",
"a$	c #007F1D",
"b$	c #00AE33",
"c$	c #00AF32",
"d$	c #08BA42",
"e$	c #18D25E",
"f$	c #1AD661",
"g$	c #17D15C",
"h$	c #01B73F",
"i$	c #00B035",
"j$	c #00AF35",
"k$	c #00A933",
"l$	c #00A732",
"m$	c #00A832",
"n$	c #009A29",
"o$	c #009324",
"p$	c #008822",
"q$	c #007D19",
"r$	c #004102",
"s$	c #755539",
"t$	c #8D7145",
"u$	c #008121",
"v$	c #00AF34",
"w$	c #00B033",
"x$	c #09BB43",
"y$	c #19D35F",
"z$	c #1BD662",
"A$	c #18D15D",
"B$	c #06B841",
"C$	c #00AB36",
"D$	c #00A935",
"E$	c #009B2D",
"F$	c #008925",
"G$	c #004303",
"H$	c #745539",
"I$	c #79643B",
"J$	c #345616",
"K$	c #365717",
"L$	c #328028",
"M$	c #00A831",
"N$	c #00A930",
"O$	c #08B53F",
"P$	c #17CF5B",
"Q$	c #16CE5A",
"R$	c #05B640",
"S$	c #00AA35",
"T$	c #00AA36",
"U$	c #009B2C",
"V$	c #009227",
"W$	c #009328",
"X$	c #008824",
"Y$	c #007C1A",
"Z$	c #334917",
"`$	c #2A3E10",
" %	c #273D0F",
".%	c #5E402C",
"+%	c #907347",
"@%	c #00AA32",
"#%	c #00AE37",
"$%	c #009428",
"%%	c #007115",
"&%	c #004203",
"*%	c #003C01",
"=%	c #003800",
"-%	c #916A47",
";%	c #8F7046",
">%	c #007215",
",%	c #00AF37",
"'%	c #00B238",
")%	c #009528",
"!%	c #003F02",
"~%	c #8F6946",
"{%	c #94754B",
"]%	c #3E591B",
"^%	c #405A1C",
"/%	c #31721F",
"(%	c #00A32E",
"_%	c #00AA31",
":%	c #00AA33",
"<%	c #00A835",
"[%	c #00AD37",
"}%	c #007F1B",
"|%	c #007818",
"1%	c #007918",
"2%	c #006E14",
"3%	c #304515",
"4%	c #324115",
"5%	c #2F3F13",
"6%	c #906A47",
"7%	c #77613B",
"8%	c #00520A",
"9%	c #00540B",
"0%	c #005F0F",
"a%	c #00962B",
"b%	c #00A131",
"c%	c #00A533",
"d%	c #00A734",
"e%	c #009729",
"f%	c #007619",
"g%	c #004C08",
"h%	c #004706",
"i%	c #76573A",
"j%	c #B4835C",
"k%	c #765B3A",
"l%	c #004806",
"m%	c #00902A",
"n%	c #00751A",
"o%	c #003D01",
"p%	c #7A5D3C",
"q%	c #153A06",
"r%	c #00912A",
"s%	c #00A031",
"t%	c #007319",
"u%	c #1B3908",
"v%	c #75563A",
"w%	c #8B6944",
"x%	c #745C38",
"y%	c #756039",
"z%	c #3E6D26",
"A%	c #006F1A",
"B%	c #006615",
"C%	c #006213",
"D%	c #3D5920",
"E%	c #4B4623",
"F%	c #4A4422",
"G%	c #6E5235",
"H%	c #544C27",
"I%	c #002F00",
"J%	c #002B00",
"K%	c #4D3A22",
"L%	c #524C26",
"M%	c #003100",
"N%	c #002D00",
"O%	c #4B3920",
"P%	c #6F5835",
"Q%	c #5B4E2A",
"R%	c #494421",
"S%	c #494121",
"T%	c #494021",
"U%	c #483F21",
"V%	c #513B23",
"W%	c #77563B",
"X%	c #B8835C",
"Y%	c #80593D",
"Z%	c #7C573C",
"        . . . . . . . . + + + + . . . . @ @ @ @ + + + + . . . . # # # # # # # # $ $ $ $ % & & & $ $ $ $ & & & &         * * * * ",
"        . . . . . . . . + + + + . . . . @ @ @ @ + + + + . . . . # # # # # # * * $ $ $ $ % % & & $ $ $ $ & & & &         * * * * ",
"        . . . . . . . . + + + + . . . . @ @ @ @ + + + + . . . . # # # # # # # # $ $ $ $ % % % % $ $ $ $ & & & &         * * * * ",
"        . . . . . . . . + + + + . . . . @ @ @ @ + + + + . . . . # # # # # # # # $ $ $ $ % % % % $ $ $ $ & & & &         * * * * ",
"& & & &         + + + + * * * * . . . . = $ $ $ @ @ @ @ @ @ @ @ - - - - . . . . . . . . * * * * * * * * $ $ $ $ - - - -         ",
"& & & &         + + + + * * * * . . . . $ $ $ $ @ @ @ @ @ @ @ @ - - - - . . . . . . . . * * * * * * * * $ $ $ $ - - - -         ",
"& & & &         + + + + * * * * . . . . $ $ $ $ @ @ @ @ @ @ @ @ - - - - . . . . . . . . * * * * * * * * $ $ $ $ - - - -         ",
"& & & &         + + + + * * * * . . . . $ $ $ $ @ @ @ @ @ @ @ @ - - - - . . . . . . . . * * * * * * * * $ $ $ $ - - - -         ",
"        $ $ $ $ ; ; ; ; $ $ $ $ $ $ $ $ $ $ $ $         = $ $ $ * * * * % % & & . . . .         > $ $ $ @ @ @ @ @ @ @ @ , $ $ $ ",
"        $ $ $ $ ; ; ; ; $ $ $ $ $ $ $ $ $ $ $ $       ' ) ! ! ! ~ ~ ~ { ] % & & . . . .         ^ $ $ $ @ @ @ @ @ @ @ @ = $ $ $ ",
"        $ $ $ $ ; ; ; ; $ $ $ $ $ $ $ $ $ $ $ $       / ( ( ( ( ( ( ( ( _ % % & . . . .         ^ $ $ $ @ @ @ @ @ @ @ @ = $ $ $ ",
"        $ $ $ $ ; ; ; ; $ $ $ $ $ $ $ $ $ $ $ $       : < < < < < < < < _ % % % . . . .         ^ $ $ $ @ @ @ @ @ @ @ @ = $ $ $ ",
"[ [ [ [ } } } } ^ [ [ [ = = = = * * * * $ $ $ $ | 1 2 3 4 5 6 7 7 7 7 8 9 0 a b @ @ @ @ = $ $ $ @ & & & = $ $ $ $ $ $ $ @ & & & ",
"$ $ $ $ } } } } $ $ $ $ $ $ $ $ * * * * $ $ $ c d ( e f g h i j j j j k l m ( n o @ @ @ = $ $ $ @ & & & $ $ $ $ $ $ $ $ @ & & & ",
"$ $ $ $ } } } } $ $ $ $ $ $ $ $ * * * * $ $ $ p < ( q r s t u v v v v w x y z A B @ @ @ = $ $ $ @ & & & $ $ $ $ $ $ $ $ @ & & & ",
"$ $ $ $ } } } } $ $ $ $ $ $ $ $ * * * * $ $ $ C D E F G H I J K K K K L M N O P Q @ @ @ = $ $ $ @ & & & $ $ $ $ $ $ $ $ @ & & & ",
"; ; ; ; & & & &         # # # # ^ = = = R S T U V W X Y Z `  .........+.@.#.$.%.&.*.=.-.;.>.>.>.& & % % ; ; ; ; [ $ $ $ @ & & & ",
"        & & & &         * * * * $ $ $ $ ,.< ( '.).v !.~.{.].^./././././.(._.:.<.[.z A }.>.>.>.>.& % % % ; |.|.|.^ $ $ $ @ & & & ",
"        & & & &         * * * * $ $ $ $ 1.2.2.3.4.5.6.7.8.9.0././.a.b.a.c.d.e.f.g.h.< i.>.>.>.>.& & % % ; |.|.|.^ $ $ $ @ & & & ",
"        & & & &         * * * * $ j.k.l.m.n.o.p.q.r.s.t.u.v.w././.x.y.y.z.A.B.C.D.E.E.F.G.H.I.>.& & % % ; |.|.|.^ $ $ $ @ & & & ",
". . . . $ $ $ $         ; ; ; ; @ J.z ( K.L.v M.N.{.O.P.Q.R.S././.T.U.V.W.X.Y.Z.`. +.+++@+@+#+$ @ & & & & & & & & & & & $+# # # ",
". . . . $ $ $ $         ; ; ; ; @ %+&+*+=+-+;+>+,+'+O.)+!+~+S././.{+]+^+W./+(+Z._+ +.+:+<+<+[+$ @ & & & & & & & & & & & # # * * ",
". . . . $ $ $ $         ; ; }+|+1+2+3+3+4+5+5+6+7+8+9+0+a+b+c+/.d+e+f+g+h+i+j+k+l+ +.+m+n+n+o+p+q+r+& & & & & & & & & & # # # # ",
". . . . $ $ $ $         ; s+t+z u+v+s w+x+{.{.y+z+Q.v.A+B+C+D+/.E+F+G+G+H+I+J+K+ + + +L+M+M+N+@+@+O+& & & & & & & & & & # # # # ",
"# # # # $ $ $ $ & & & & & P+t+z u+Q+R+S+T+U+V+W+X+!+Y+Z+`+ @.@+@@@#@$@$@%@I+J+K+ + + +L+M+M+N+@+@+&@& & ; ; ; ; & & & &   *@*@*@",
"# # # # $ $ $ $ & & & & & P+t+z u+=@-@-@;@>@,@'@s.)@!@~@{@]@^@/@(@_@:@:@<@[@}@ + + + +k+|@|@1@@+@+&@& & ; |.|.|.& & & & ;       ",
"# # # # $ $ $ $ & & & & & P+t+z 2@3@;+4@5@6@7@8@9@0@a@b@c@d@e@f@Q.g@h@i@j@k@l@l@m@m@m@I+J+n@o@@+@+&@& & ; |.|.|.& & & & ;       ",
"# # # # $ $ $ $ & & & & & P+t+z 2@3@;+v 5@p@p@q@9@r@s@b@t@t@u@Q.!+v@w@x@y@k@l@l@m@m@m@I+J+n@z@@+@+&@& & ; |.|.|.& & & & ;       ",
"+ + + + @ @ @ . # # # # A@B@t+z C@D@E@e@F@p@p@G@H@I@J@K@t@t@L@M@N@O@H@P@Q@R@l@l@S@S@S@E.T@U@V@@+@+&@& & % % % % W@              ",
"+ + + + & & & & # # * * * X@t+z C@Y@Z@`@ #p@p@p@7@7@.#+#t@c@@#U+8.##6@$#%#&#G+*#=#l@l@j+M+-#;#@+@+&@& & % % % % ;               ",
"+ + + + & & & & # # # # * X@t+z C@Y@Z@`@ #p@p@p@p@p@.#+#t@c@>#{.U+,#7@'#%#)#G+!#=#l@l@~#M+-#;#@+@+&@& & & & % % ;               ",
"+ + + + & & & & # # # # * X@t+z C@Y@Z@`@ #p@p@p@p@p@.#>+t@c@>#{.U+,#7@'#%#)#{#]#=#l@l@~#M+-#;#@+@+&@& & & & & & ;               ",
"*@*@*@*@@ @ @ @ & & & & *@^#t+z C@Y@Z@`@ #p@p@p@p@p@/#(#Q._#:#{.U+,#7@'#%#)#G+<#[#m@m@D.}#}#|#@+@+&@& & & & & & ^ ^ ^ ^ & & & & ",
"        @ @ @ @ @ @ @ @   1#t+z C@Y@Z@`@ #p@p@p@p@p@/#(#Q._#:#{.U+,#7@'#%#)#G+<#2#m@m@D.}#3#|#@+@+&@& & & & & & ^ $ $ $ @ & & & ",
"        @ @ @ @ @ @ @ @   1#t+z C@Y@4#`@ #p@p@p@p@p@/#(#Q.5#:#{.V+,#7@$#%#)#G+<#2#m@m@D.}#3#|#@+@+&@& & & & & & ^ $ $ $ @ & & & ",
"        @ @ @ @ @ @ @ @   1#t+z 2@6#{.{.7#8#p@p@p@p@9#0#a#b#,@c#c#.#d#e#f#g#G+<#2#m@h#k+|@i#j#@+@+&@& & & & & & ^ $ $ $ @ & & & ",
"        ; ; ; ; [ [ [ [ & P+t+z k#l#m#n#o#8#p@p@p@p@p#q#{.9.r#p@8#s#t#u#v#w#G+<#2#m@h#L+M+M+N+@+@+x## # # # # # & . @ @ W@; ; ; ",
"                [ $ $ $ @ y#t+z k#l#z#n#o#8#p@p@p@p@p#q#{.A#r#p@p@s#t#u#v#g#G+<#2#m@h#L+M+-#;#@+@+x## # * * * # B#& & & ;       ",
"                [ $ $ $ @ y#t+z k#l#z#n#C#D#D#E#F#p@G#H#I#J#K#p#p#K#L#P@Q@M#N#h#i#|@|@-#M+-#;#@+@+x#* * * * # # B#& & & ;       ",
"                $ $ $ $ @ y#t+z k#l#z#n#O#P#P#Q#R#p@S#T#i@i@H@t#t#U#i@x@V#W#J+X#Y#Z#`# $M+-#;#@+@+x#* # * * # # B#& & & ;       ",
"                @ @ @ @ # .$t+z k#l#z#n#O#P#+$@$R#p@S#T#i@i@H@t#t#U#i@x@V##$J+X#$$Z#Z# $M+-#;#@+@+%$|.|.|.|.|.|.&$*$*$*$=$& & & ",
"                @ @ @ @ # # -$;$>$,$'$'$)$!$~${$]$^$/$($_$_$:$<$[$}$|$1$2$3$4$i#Y#Z#Z#5$5$5$6$7$8$^#; ; ; ; ; ; 9$- - - =$& & & ",
"                @ @ @ @ # # # # # 0$&+&+a$b$c$d$e$f$g$h$i$j$k$l$m$n$o$o$p$Z#Z#Z#Z#Z#q$r$<+<+s$& ; ; ; ; ; ; ; ; 9$- - - & & & & ",
"                @ @ @ @ * # # # # t$z z u$v$w$x$y$z$A$B$G+!#C$D$D$E$J+J+F$Y#Z#Z#Z#Z#q$G$@+@+H$& ; ; ; ; ; ; ; ; 9$- - - & & & & ",
"        & & & & @ @ @ @ *@*@*@*@*@I$J$K$L$M$N$O$P$~$Q$R$!#*#C$S$T$U$V$W$X$Y$Z#`#5$5$5$Z$`$ %o & ^ ^ ^ ^ ; ; ; ; =$& & & .%$ $ $ ",
"        @ @ @ @ @ @ @ @                 +%h.h.5$@%i$$@C$D$D$#%!#G+$%Z#Z#Z#Z#Z#%%&%*%=%-%& & & & $ $ $ $ ; ; ; ; & & & & = $ $ $ ",
"        @ @ @ @ @ @ @ @                 ;%< z >%N$w$i$C$D$D$,%G+'%)%q$Z#Z#Z#Z#%%!%@+<+~%& & & & $ $ $ $ ; ; ; ; & & & & = $ $ $ ",
"        @ @ @ @ @ @ @ @                 {%]%^%/%(%_%:%D$<%<%[%!#G+)%}%$$Z#|%1%2%3%4%5%6%& & & & $ $ $ $ ; ; ; ; & & & & = $ $ $ ",
"& & & & [ [ [ [ ; ; ; ; & & & &         *@*@*@7%8%9%0%a%b%b%c%d%d%e%T@4$f%g%:+h%i%& & & & & & & @ @ @ @ & & & & j%A@A@A@A@A@A@A@",
"@ @ @ @ $ $ $ $         & & & &               k%<+=%l%m%m@m@b%l@l@e%}#3#n%o%@+<+o & & & & & & & & & & & & & & & A@# # * # # # # ",
"@ @ @ @ $ $ $ $         & & & &               p%q%@+h%r%s%s%s%s%s%)%T@4$t%o%@+u%v%& & & & & & & & & & & & & & & A@# # # # # # # ",
"@ @ @ @ $ $ $ $         & & & &                 w%x%y%z%A%A%A%A%A%B%C%C%D%E%F%G%& & & & & & & & & & & & & & & & A@# # # # # # # ",
"@ @ @ @ W@W@W@W@& & & & & & & & ^ ^ ^ ^ & & & & |.|.|.H%<+<+<+<+<+I%J%J%K%$ $ $ j%A@A@A@^ $ $ $ & & & & j%A@A@A@*@*@*@*@*@*@*@*@",
"@ @ @ @         & & & & & & & & $ $ $ $ & & & & ; ; ; L%@+@+@+@+@+M%N%N%O%$ $ $ # # # # ^ $ $ $ % & & & # # # # *@              ",
"@ @ @ @         & & & & & & & & $ $ $ $ & & & & ; ; ; P%Q%Q%Q%Q%R%S%T%U%V%$ $ $ # # # # ^ $ $ $ % & & & # # # # *@              ",
"@ @ @ @         & & & & & & & & $ $ $ $ & & & & ; ; ; ; ; ; ; ; & & & & $ $ $ $ # # # # ^ $ $ $ @ & & & # # # # *@              ",
"; ; ; ; B#& & & ^ [ [ [ A@A@A@A@@ W%W%W%[ [ [ [ & & & & ^ ^ ^ ^ & & & & @ W%W%W%B#B#B#B#@ W%W%W%& & & & B#B#B#B#;               ",
"        & . & & $ $ $ $ # # # # & & & & $ $ $ $ & & & & $ $ $ $ & & & & & & & & & & & & . . & & & & & & & & & & ;               ",
"        . . . . $ $ $ $ # # # # & & & & $ $ $ $ & & & & $ $ $ $ & & & & & & & & & & & & . . . . & & & & & & & & ;               ",
"        . . . . $ $ $ $ * * * # & & & & $ $ $ $ & & & & $ $ $ $ & & & & & & & & & & & & . . . & & & & & & & & & ;               ",
"& & & & $ $ $ $ j%j%j%j%# # # # & & & & @ @ @ @ # # # # ^ $ $ $ @ @ @ @ X%# # # B#& & & [ $ $ $ @ @ @ @ X%# # # Y%Z%Z%Z%.%[ [ [ ",
"& & & & $ $ $ $ # # # # # # # # & & & & & & & & + + + + ^ $ $ $ @ @ @ @ # + + + B#& & & $ $ $ $ @ @ @ @ + + + + B#@ @ @ $ $ $ $ ",
"& & & & $ $ $ $ # # # # # * # # & & & & & & & & + + + + ^ $ $ $ @ @ @ @ # + + + B#& & & $ $ $ $ @ @ @ @ + + + + B#@ @ @ $ $ $ $ ",
"& & & & $ $ $ $ # # # # # # # # & & & & & & & & + + + + ^ $ $ $ @ @ @ @ # + + + B#& & & $ $ $ $ @ @ @ @ + + + + B#@ @ @ $ $ $ $ "};
