/* XPM */
static char *d8862f6f96134b6ec30b6ea8d051dd93eMmBcNwHEnPniZJb[] = {
/* columns rows colors chars-per-pixel */
"64 64 123 2 ",
"   c None",
".  c #002D00",
"X  c #003600",
"o  c #003900",
"O  c #004103",
"+  c #004D00",
"@  c #004F09",
"#  c #005300",
"$  c #005C06",
"%  c #00520B",
"&  c #00590E",
"*  c #005E12",
"=  c #00650C",
"-  c #00710F",
";  c #006312",
":  c #006B12",
">  c #146517",
",  c #156F1E",
"<  c #007715",
"1  c #00751A",
"2  c #007C19",
"3  c #186F20",
"4  c #256D28",
"5  c #207025",
"6  c #247028",
"7  c #28702B",
"8  c #38753C",
"9  c #327A39",
"0  c #00861E",
"q  c #008F1F",
"w  c #00901F",
"e  c #008323",
"r  c #008D23",
"t  c #009225",
"y  c #009529",
"u  c #009D2B",
"i  c #009E30",
"p  c #00A52A",
"a  c #00AA2C",
"s  c #00A332",
"d  c #00A935",
"f  c #00AF38",
"g  c #00B033",
"h  c #00B138",
"j  c #3A8143",
"k  c #3F8D48",
"l  c #00BB46",
"z  c #0ABD43",
"x  c #03BF49",
"c  c #18B64A",
"v  c #3BAD57",
"b  c #28BA56",
"n  c #4D8F53",
"m  c #55A261",
"M  c #6BB67A",
"N  c #0BC245",
"B  c #13C954",
"V  c #1ECF5B",
"C  c #15D95F",
"Z  c #2EC15E",
"A  c #1BD662",
"S  c #17DD62",
"D  c #1FDC66",
"F  c #2CC961",
"G  c #23D461",
"H  c #29D062",
"J  c #24DD6A",
"K  c #34D46C",
"L  c #3BD771",
"P  c #31E876",
"I  c #37EB7B",
"U  c #7DB688",
"Y  c #3CEF80",
"T  c #3CF080",
"R  c #65DD8F",
"E  c #7FCA91",
"W  c #46EE85",
"Q  c #4EEB87",
"!  c #51E689",
"~  c #58E78E",
"^  c #57EA8D",
"/  c #41F384",
"(  c #49F389",
")  c #52F48F",
"_  c #54F490",
"`  c #59F494",
"'  c #63EA96",
"]  c #6BEC9B",
"[  c #60F497",
"{  c #63F49B",
"}  c #69F59E",
"|  c #6CF6A0",
" . c #72F1A2",
".. c #7AF3A7",
"X. c #7EF4AA",
"o. c #7DF8AC",
"O. c #80B68A",
"+. c #81CF96",
"@. c #A8D7B5",
"#. c #82F6AD",
"$. c #87F6B1",
"%. c #8BF5B3",
"&. c #84F8B1",
"*. c #8EF8B5",
"=. c #92F5B6",
"-. c #93F7B8",
";. c #92F9B8",
":. c #A1F6C1",
">. c #ABF4C4",
",. c #A4F9C4",
"<. c #AFFDCD",
"1. c #B3FACD",
"2. c #B6FFD0",
"3. c #B4FED0",
"4. c #B5FBD0",
"5. c #B8FED2",
"6. c #B9FED3",
"7. c #BAFFD4",
"8. c #BCFCD5",
"9. c #C7FFDD",
"0. c #C8FFDD",
"q. c #D6FFE8",
"w. c #DAFFEB",
/* pixels */
"                                                                                                                                ",
"                                                                                                                                ",
"                                                    + + + + + + + + + + + +                                                     ",
"                                                    # # # # # # # # # # # #                                                     ",
"                                                    # # # # # # # # # # # #                                                     ",
"                                                    # # # # # # # # # # # #                                                     ",
"                                            + + + 8 O.O.O.U M M M M M M M M j + + +                                             ",
"                                          + # # # n w.w.w.q.2.2.2.2.2.2.2.2.m # # # +                                           ",
"                                          + # # # n w.w.w.q.2.2.2.2.2.2.2.2.m # # # +                                           ",
"                                          + # # # n w.w.w.q.2.2.2.2.2.2.2.2.m # # # +                                           ",
"                                          9 k k k M 8.8.8.4.X.X.X.X.X.X.X.X.v - - - =                                           ",
"                                  + # # # E 2.2.2.,.#.#.#. .S S S S S S S S N a a a w # # # +                                   ",
"                                  + # # # E 2.2.2.,.#.#.#. .S S S S S S S S N a a a w # # # +                                   ",
"                                  + # # # E 2.2.2.,.#.#.#. .S S S S S S S S N a a a w # # # +                                   ",
"                                  > > > > +.1.1.1.,.$.$.$...S S S S C C C C z p p p q $ $ $ #                                   ",
"                          # # # # >.2.2.2.;.#.#.#.-.1.1.1.:.S S S S x l l l y < < < 0 u u u u o o o o                           ",
"                          # # # # >.2.2.2.;.#.#.#.-.1.1.1.:.S S S S N l l l y < < < 0 p u u u o o o o                           ",
"                          # # # # >.2.2.2.;.#.#.#.-.1.1.1.:.S S S S x l l l y < < < 0 u u u u o o o o                           ",
"                          # # # # >.2.2.2.;.#.#.#.-.1.1.1.:.S S S S x l l l y < < < 0 u u u u o o o o                           ",
"                  # # # 4 @.@.@.@.=.*.*.*.,.,.,.,.=.] ] ] ' S S S S l h h h u r r r t u u u u < < < < @ o o o                   ",
"                + # # # 7 w.w.w.w.$.#.#.#.,.1.1.1.=.~ ~ ~ ! S S S S h h h h s y y y u u u u u 0 0 0 0 @ o o o X                 ",
"                + # # # 7 w.w.w.w.$.#.#.#.,.1.1.1.=.~ ~ ~ ! S S S S h h h h s y y y u u u u u 0 0 0 0 @ o o o X                 ",
"                + # # # 7 w.w.w.w.$.#.#.#.,.1.1.1.=.~ ~ ~ ! S S S S h h h h s y y y u u u u u 0 0 0 0 @ o o o X                 ",
"                + # # # 6 9.9.9.0.{ [ [ [ o.%.%.%.%.%.%.%.$.] ] ] ] L K K K c u u u u u u u u r r r r % o o o X                 ",
"                + # # # 5 2.2.2.2.( / / / ` } } } &.7.7.7.6.1.1.1.1.| [ [ [ F s s s s i i i i y y y y % o o o X                 ",
"                + # # # 5 2.2.2.2.( / / / ` } } } &.7.7.7.6.1.1.1.1.| [ [ [ F s s s s i i i i y y y y % o o o X                 ",
"                + # # # 5 2.2.2.2.( / / / ` } } } &.7.7.7.6.1.1.1.1.| [ [ [ F s s s s i i i i y y y y % o o o X                 ",
"                + # # # 5 1.1.1.1.( / / / _ ` ` ` o.7.7.7.6.,.,.,.,.[ ` ` ` F s s s s s s s s t r r r % o o o X                 ",
"                + # # # 5 <.<.<.<.( / / / / / / / | 7.7.7.2.#.#.#.#.( / / / V h h h f s s s s 0 0 0 0 @ o o o X                 ",
"                + # # # 5 <.<.<.<.( / / / / / / / | 7.7.7.2.#.#.#.#.( / / / V h h h f s s s s 0 0 0 0 @ o o o X                 ",
"                + # # # 5 <.<.<.<.( / / / / / / / | 7.7.7.2.#.#.#.#.( / / / V h h h f s s s s 0 0 0 0 @ o o o X                 ",
"                + # # # 5 <.<.<.<.( / / / / / / / | 7.7.7.2.#.#.#.#.( / / / V h h g f s s s s 0 0 0 0 @ o o o X                 ",
"                + # # # 5 <.<.<.<.( / / / / / / / } 1.1.1.<.#.#.#.#.( / / / V h h h d i i i i t t t t % o o o X                 ",
"                + # # # 5 <.<.<.<.( / / / / / / / } 1.1.1.<.#.#.#.#.( / / / V h h h d i i i i t t t t % o o o X                 ",
"                + # # # 5 <.<.<.<.( / / / / / / / } 1.1.1.<.#.#.#.#.( / / / V h h h d i i i i t t t t % o o o X                 ",
"                + # # # 5 <.<.<.<.( / / / / / / / } 1.1.1.<.#.#.#.#.( / / / V h h h d i i i i t t t t % o o o X                 ",
"                + # # # 3 #.#.#.#./ / / / / / / / ` =.=.=.%._ _ _ _ ) ) ) ) H h h h d i i i u r r r r % o o o X                 ",
"                + # # # ,  . . . ./ / / / / / / / ` #.#.#.../ / / / _ ` ` ` H h h h d i i i u 0 0 0 0 @ o o o X                 ",
"                + # # # ,  . . . ./ / / / / / / / ` #.#.#.../ / / / _ ` ` ` H h h h d i i i u 0 0 0 0 @ o o o X                 ",
"                + # # # ,  . . . ./ / / / / / / / ` #.#.#.../ / / / _ ` ` ` H h h h d i i i u 0 0 0 0 @ o o o X                 ",
"                + # # # ,  . . . .I P P P T / / / _  . . .| ( ( ( ( ` ` ` ` F s s s u r r r r 0 0 0 0 @ o o o X                 ",
"                + # # # ,  . . . .J D D D I / / / ( [ [ [ [ ` ` ` ` [ [ [ [ Z y y y r 2 2 2 2 0 0 0 0 @ o o o X                 ",
"                + # # # ,  . . . .J D D D I / / / ( [ [ [ [ ` ` ` ` [ [ [ [ Z y y y r 2 2 2 2 0 0 0 0 @ o o o X                 ",
"                + # # # ,  . . . .J D D D I / / / ( [ [ [ [ ` ` ` ` [ [ [ [ Z y y y r 2 2 2 2 0 0 0 0 @ o o o X                 ",
"                  # # # , R R R R G A A A P Y Y Y W ^ ^ ^ ^ Q Q Q Q ^ ~ ^ ^ b t t t r 2 2 2 2 2 2 2 2 @ o o o                   ",
"                          # # # # d g g g B A A A B h h h f d d d d y y y y e 2 2 2 2 2 2 2 2 o o o o                           ",
"                          # # # # d g g g B A A A B h h h f d d d d y y y y e 2 2 2 2 2 2 2 2 o o o o                           ",
"                          # # # # d g g g B A A A B h h h f d d d d y y y y e 2 2 2 2 2 2 2 2 o o o o                           ",
"                          # # # # d g g g B A A A B h h h f d d d d y y y y e 2 2 2 2 2 2 2 2 o o o o                           ",
"                                  $ $ $ $ u h h h h d d d d f f f f 0 2 2 2 2 2 2 2 : O O O o                                   ",
"                                  + # # # t g g g f d d d d h h h h 0 2 2 2 2 2 2 2 : o o o X                                   ",
"                                  + # # # t g g g f d d d d h h h h 0 2 2 2 2 2 2 2 : o o o X                                   ",
"                                  + # # # t g g g f d d d d f h h h 0 2 2 2 2 2 2 2 : o o o X                                   ",
"                                          & ; ; ; 2 s s s s d d d d r r r r : % % % @                                           ",
"                                          X o o o * i i i i s s s s t t t t ; o o o X                                           ",
"                                          X o o o * i i i i s s s s t t t t ; o o o X                                           ",
"                                          X o o o * s s s s s s s s t t t t ; o o o X                                           ",
"                                            X X X % e e e e e e e e 1 1 1 1 % X X X                                             ",
"                                                    o o o o o o o o . . . .                                                     ",
"                                                    o o o o o o o o . . . .                                                     ",
"                                                    o o o o o o o o . . . .                                                     ",
"                                                    X X X X X X X X . . . .                                                     ",
"                                                                                                                                ",
"                                                                                                                                "
};
