/* XPM */
static char *_15931156bea42bfd7b4249d8aa54531JgXj5g8rikziZUIO[] = {
/* columns rows colors chars-per-pixel */
"64 64 199 2 ",
"   c black",
".  c #060809",
"X  c #0A0D0D",
"o  c #070817",
"O  c #0B1011",
"+  c #0D1011",
"@  c #05161D",
"#  c #08171D",
"$  c #0C181D",
"%  c #11191A",
"&  c #141A1B",
"*  c #17252C",
"=  c #002A3C",
"-  c #002C3E",
";  c #161946",
":  c #032E41",
">  c #093648",
",  c #1C3641",
"<  c #0E4156",
"1  c #1F4756",
"2  c #254956",
"3  c #2B4952",
"4  c #354B51",
"5  c #3A4951",
"6  c #3E4E52",
"7  c #004F71",
"8  c #005477",
"9  c #005679",
"0  c #3C626F",
"q  c #21637C",
"w  c #586F74",
"e  c #5F777E",
"r  c #5F787E",
"t  c #0076A8",
"y  c #0578A9",
"u  c #3F47CC",
"i  c #3F48CC",
"p  c #3557D1",
"a  c #3559D4",
"s  c #385FD4",
"d  c #1B7CDC",
"f  c #2D61D2",
"g  c #2C64D5",
"h  c #246ED8",
"j  c #2C68DB",
"k  c #3969DA",
"l  c #2B7DD4",
"z  c #267ADC",
"x  c #357AE2",
"c  c #4251CF",
"v  c #5B75D5",
"b  c #1C85B3",
"n  c #1B87B9",
"m  c #66919C",
"M  c #488DA9",
"N  c #518ABF",
"B  c #4C94B3",
"V  c #5897B0",
"C  c #7E9FA8",
"Z  c #0089C4",
"A  c #008CC8",
"S  c #1683DE",
"D  c #0092D1",
"F  c #0095D6",
"G  c #1E9ED5",
"H  c #3993C7",
"J  c #3B80DF",
"K  c #21A1D7",
"L  c #2AA2D5",
"P  c #1B85E8",
"I  c #059CE6",
"U  c #1391EE",
"Y  c #1097F1",
"T  c #3385E6",
"R  c #2E9DF0",
"E  c #00A2E8",
"W  c #03A4EA",
"Q  c #07A0EF",
"!  c #00A6ED",
"~  c #0BAAEE",
"^  c #0CABEF",
"/  c #12AAEC",
"(  c #1EADE9",
")  c #1CAEEE",
"_  c #05A6F4",
"`  c #00A8F1",
"'  c #00ADF7",
"]  c #05AAFA",
"[  c #00ADF8",
"{  c #07AFF8",
"}  c #1AADF9",
"|  c #00B1FD",
" . c #08B3FD",
".. c #0BB5FE",
"X. c #0EB6FE",
"o. c #1BB4F6",
"O. c #11B6FE",
"+. c #18B6FB",
"@. c #1EB7F9",
"#. c #15B8FE",
"$. c #1FB9FB",
"%. c #1BB9FE",
"&. c #1CBAFE",
"*. c #21A9E3",
"=. c #24B3EF",
"-. c #2EB3EB",
";. c #33B4EA",
":. c #21A2F3",
">. c #25B3F0",
",. c #2EB7F2",
"<. c #2AB2F9",
"1. c #21BBFE",
"2. c #24BBFC",
"3. c #27BEFF",
"4. c #28BEFF",
"5. c #2CBFFF",
"6. c #3ABBF6",
"7. c #6585D9",
"8. c #648ADB",
"9. c #6292DE",
"0. c #739CDD",
"q. c #60A7C3",
"w. c #4983E2",
"e. c #5282E2",
"r. c #499BE9",
"t. c #5999E9",
"y. c #45A2EC",
"u. c #51A0E3",
"i. c #5DA4ED",
"p. c #41B9E9",
"a. c #42BDEF",
"s. c #43ACF0",
"d. c #65BCF6",
"f. c #35C0FA",
"g. c #33C1FF",
"h. c #36C2FF",
"j. c #38C0F9",
"k. c #39C3FF",
"l. c #3BC4FF",
"z. c #3EC5FE",
"x. c #6EC2DF",
"c. c #57C2EB",
"v. c #59C2E9",
"b. c #5FC6EE",
"n. c #47C6F9",
"m. c #45C7FF",
"M. c #4EC5F8",
"N. c #48C7FE",
"B. c #49C8FF",
"V. c #4FCAFF",
"C. c #53C4F1",
"Z. c #5FCBF5",
"A. c #5BCEFF",
"S. c #5CCEFF",
"D. c #61C8EF",
"F. c #6BC8E9",
"G. c #7FD0EB",
"H. c #7DD2EF",
"J. c #63CCF7",
"K. c #65CDF6",
"L. c #68CEF5",
"P. c #63CEFA",
"I. c #69CAFB",
"U. c #61D0FF",
"Y. c #65D1FF",
"T. c #6CD3FF",
"R. c #6CD4FF",
"E. c #76D1F0",
"W. c #70D1F7",
"Q. c #7AD1F0",
"!. c #7ED4F0",
"~. c #7ED7FB",
"^. c #80B1E2",
"/. c #80B6E3",
"(. c #81D0EA",
"). c #82D1ED",
"_. c #8DD5EE",
"`. c #92D7EB",
"'. c #96D9EB",
"]. c #99D9EA",
"[. c #9DDBEB",
"{. c #9ADAEC",
"}. c #86D7F4",
"|. c #8BD7F0",
" X c #8CD7F0",
".X c #8ED8F3",
"XX c #95D9F3",
"oX c #98DBF1",
"OX c #9EDEF4",
"+X c #A8D3EB",
"@X c #A9D4ED",
"#X c #A1DCEE",
"$X c #A7DEED",
"%X c #A0DFF3",
"&X c #A6DFF1",
"*X c #B3E3EF",
"=X c #B4E3EF",
"-X c #A8E0F0",
";X c #B5E4F1",
/* pixels */
"i i i i i i t.T.T.T.T.T.d.i i i i i i Y | | | | | X.4.4.4.4.4.3.`.].].].].].Z.4.4.4.4.4.3.| | | | | | j i i i i i k 4.4.4.4.4.4.",
"i i i i i i t.T.T.T.T.T.d.i i i i i i Y | | | | | X.4.4.4.4.4.3.`.].].].].].Z.4.4.4.4.4.3.| | | | | | j i i i i i k 4.4.4.4.4.4.",
"i i i i i i t.T.T.T.T.T.d.i i i i i i Y | | | | | X.4.4.4.4.4.3.`.].].].].].Z.4.4.4.4.4.3.| | | | | | j i i i i i k 4.4.4.4.4.4.",
"i i i i i i t.T.T.T.T.T.d.i i i i i i Y | | | | | X.4.4.4.4.4.3.`.].].].].].Z.4.4.4.4.4.3.| | | | | | j i i i i i k 4.4.4.4.4.4.",
"i i i i i i t.T.T.T.T.T.d.i i i i i i Y | | | | | X.4.4.4.4.4.3.`.].].].].].Z.4.4.4.4.4.3.| | | | | | j i i i i i k 4.4.4.4.4.4.",
"i i i i i i t.T.T.T.T.T.d.i i i i i i Y | | | | | X.4.4.4.4.4.3.`.].].].].].Z.4.4.4.4.4.3.| | | | | | j i i i i i k 4.4.4.4.4.4.",
"d d d d d d J e.e.e.e.e.w.P P P P P P Q ` ` ` ` ` o.V.V.V.V.V.V.8.7.7.7.7.7.y.4.4.4.4.4.3.` ` ` ` ` ` u.0.0.0.0.0.9.x x x x x x ",
"E E E E E E h i i i i i a | | | | | | ! E E E E E >.T.T.T.T.T.R.c i i i i i T 4.4.4.4.4.2.E E E E E E F.].].].].].^.i i i i i i ",
"E E E E E E h i i i i i a | | | | | | ! E E E E E >.T.T.T.T.T.R.c i i i i i T 4.4.4.4.4.2.E E E E E E F.].].].].].^.i i i i i i ",
"E E E E E E h i i i i i a | | | | | | ! E E E E E >.T.T.T.T.T.R.c i i i i i T 4.4.4.4.4.2.E E E E E E F.].].].].].^.i i i i i i ",
"E E E E E E h i i i i i a | | | | | | ! E E E E E >.T.T.T.T.T.R.c i i i i i T 4.4.4.4.4.2.E E E E E E F.].].].].].^.i i i i i i ",
"E E E E E E h i i i i i a | | | | | | ! E E E E E >.T.T.T.T.T.R.c i i i i i T 4.4.4.4.4.2.E E E E E E F.].].].].].^.i i i i i i ",
"/ / / / / / z p p p p p f F F F F F F A Z Z Z Z Z K U.U.U.U.U.U.s p p p p p l K K K K K G Z Z Z Z Z Z x.[.[.[.[.[./.p p p p p p ",
"T.T.T.T.T.T.,.E E E E E Z                         < 4.4.4.4.4.4.W E E E E E 7                         C =X=X=X=X=X).E E E E E E ",
"T.T.T.T.T.T.,.E E E E E Z                         < 4.4.4.4.4.4.W E E E E E 7                         C =X=X=X=X=X).E E E E E E ",
"T.T.T.T.T.T.,.E E E E E Z                         < 4.4.4.4.4.4.W E E E E E 7                         C =X=X=X=X=X).E E E E E E ",
"T.T.T.T.T.T.,.E E E E E Z                         < 4.4.4.4.4.4.W E E E E E 7                         C =X=X=X=X=X).E E E E E E ",
"T.T.T.T.T.T.,.E E E E E Z                         < 4.4.4.4.4.4.W E E E E E 7                         C =X=X=X=X=X).E E E E E E ",
"T.T.T.T.T.T.,.E E E E E Z                         < 4.4.4.4.4.4.W E E E E E 7                         C =X=X=X=X=X).E E E E E E ",
"k.k.k.k.k.k.+.[ [ [ [ [ D                         1 A.A.A.A.A.S.{ [ [ [ [ [ 8                         V ~.~.~.~.~.P.@.@.@.@.@.@.",
"4.4.4.4.4.4.O.| | | | | F                         2 T.T.T.T.T.T. .| | | | | 9                         B T.T.T.T.T.A.4.4.4.4.4.4.",
"4.4.4.4.4.4.O.| | | | | F                         2 T.T.T.T.T.T. .| | | | | 9                         B T.T.T.T.T.A.4.4.4.4.4.4.",
"4.4.4.4.4.4.O.| | | | | F                         2 T.T.T.T.T.T. .| | | | | 9                         B T.T.T.T.T.A.4.4.4.4.4.4.",
"4.4.4.4.4.4.O.| | | | | F                         2 T.T.T.T.T.T. .| | | | | 9                         B T.T.T.T.T.A.4.4.4.4.4.4.",
"4.4.4.4.4.4.O.| | | | | F                         2 T.T.T.T.T.T. .| | | | | 9                         B T.T.T.T.T.A.4.4.4.4.4.4.",
"%.%.%.%.%.%.1.3.3.3.3.3.*.< < < < < < 3 4 4 4 4 4 0 M M M M M M y t t t t t q 6 6 6 6 6 5 ; ; ; ; ; ; H N.N.N.N.N.m.z.z.z.z.z.z.",
"| | | | | | z.T.T.T.T.T.U.4.4.4.4.4.4.H.].].].].].m                         e =X=X=X=X=X+Xi i i i i i U | | | | | &.T.T.T.T.T.T.",
"| | | | | | z.T.T.T.T.T.U.4.4.4.4.4.4.H.].].].].].m                         e =X=X=X=X=X+Xi i i i i i U | | | | | &.T.T.T.T.T.T.",
"| | | | | | z.T.T.T.T.T.U.4.4.4.4.4.4.H.].].].].].m                         e =X=X=X=X=X+Xi i i i i i U | | | | | &.T.T.T.T.T.T.",
"| | | | | | z.T.T.T.T.T.U.4.4.4.4.4.4.H.].].].].].m                         e =X=X=X=X=X+Xi i i i i i U | | | | | &.T.T.T.T.T.T.",
"| | | | | | z.T.T.T.T.T.U.4.4.4.4.4.4.H.].].].].].m                         e =X=X=X=X=X+Xi i i i i i U | | | | | &.T.T.T.T.T.T.",
"| | | | | | z.T.T.T.T.T.U.4.4.4.4.4.4.!.{.{.{.{.{.m                         r ;X;X;X;X;X@Xu u u u u u U | | | | | &.T.T.T.T.T.T.",
"E E E E E E c.'.'.'.'.'.G.W W W W W W > O O O O O .                         . + + + + + * I.I.I.I.I.I.XX-X-X-X-X-X}.5.5.5.5.5.5.",
"E E E E E E v.].].].].].(.E E E E E E =                                                 $ T.T.T.T.T.T.OX=X=X=X=X=X.X4.4.4.4.4.4.",
"E E E E E E v.].].].].].(.E E E E E E =                                                 $ T.T.T.T.T.T.OX=X=X=X=X=X.X4.4.4.4.4.4.",
"E E E E E E v.].].].].].(.E E E E E E =                                                 $ T.T.T.T.T.T.OX=X=X=X=X=X.X4.4.4.4.4.4.",
"E E E E E E v.].].].].].(.E E E E E E =                                                 $ T.T.T.T.T.T.OX=X=X=X=X=X.X4.4.4.4.4.4.",
"E E E E E E v.].].].].].(.E E E E E E =                                                 $ T.T.T.T.T.T.OX=X=X=X=X=X.X4.4.4.4.4.4.",
"` ` ` ` ` ` D.$X$X$X$X$X_.` ` ` ` ` ` -                                                 # B.B.B.B.B.B.C.v.v.v.v.v.b.W.W.W.W.W.W.",
"| | | | | | L.=X=X=X=X=XoX| | | | | | :                                                 @ 4.4.4.4.4.4.^ E E E E E ;.=X=X=X=X=X=X",
"| | | | | | L.=X=X=X=X=XoX| | | | | | :                                                 @ 4.4.4.4.4.4.^ E E E E E ;.=X=X=X=X=X=X",
"| | | | | | L.=X=X=X=X=XoX| | | | | | :                                                 @ 4.4.4.4.4.4.^ E E E E E ;.=X=X=X=X=X=X",
"| | | | | | L.=X=X=X=X=XoX| | | | | | :                                                 @ 4.4.4.4.4.4.^ E E E E E ;.=X=X=X=X=X=X",
"| | | | | | L.=X=X=X=X=XoX| | | | | | :                                                 @ 4.4.4.4.4.4.^ E E E E E ;.=X=X=X=X=X=X",
"X.X.X.X.X.X.K.&X&X&X&X&X.XX.X.X.X.X.X.:           . % % % % % % & & & & & & X           @ <.<.<.<.<.<.^ W W W W W -.#X#X#X#X#X#X",
"T.T.T.T.T.T.m.4.4.4.4.4.g.T.T.T.T.T.T.,           4 ].].].].].].*X=X=X=X=X=Xw           o i i i i i i U | | | | | ' E E E E E E ",
"T.T.T.T.T.T.m.4.4.4.4.4.g.T.T.T.T.T.T.,           4 ].].].].].].*X=X=X=X=X=Xw           o i i i i i i U | | | | | ' E E E E E E ",
"T.T.T.T.T.T.m.4.4.4.4.4.g.T.T.T.T.T.T.,           4 ].].].].].].*X=X=X=X=X=Xw           o i i i i i i U | | | | | ' E E E E E E ",
"T.T.T.T.T.T.m.4.4.4.4.4.g.T.T.T.T.T.T.,           4 ].].].].].].*X=X=X=X=X=Xw           o i i i i i i U | | | | | ' E E E E E E ",
"T.T.T.T.T.T.m.4.4.4.4.4.g.T.T.T.T.T.T.,           4 ].].].].].].*X=X=X=X=X=Xw           o i i i i i i U | | | | | ' E E E E E E ",
"T.T.T.T.T.T.m.4.4.4.4.4.g.T.T.T.T.T.T.,           4 ].].].].].].*X=X=X=X=X=Xw           o i i i i i i U | | | | | ' E E E E E E ",
"|.|.|.|.|.|.a.^ ^ ^ ^ ^ >.OXOXOXOXOXOXq.B B B B B N v v v v v v 6.j.j.j.j.j.L b b b b b n U U U U U U } &.&.&.&.&.:.g g g g g g ",
"].].].].].].p.E E E E E ( =X=X=X=X=X=X~.T.T.T.T.T.i.i i i i i u ] | | | | | #.4.3.4.4.4.3.| | | | | | &.4.4.4.4.4.R i i i i i i ",
"].].].].].].p.E E E E E ( =X=X=X=X=X=X~.T.T.T.T.T.i.i i i i i u ] | | | | | #.4.4.4.4.4.3.| | | | | | &.4.4.4.4.4.R i i i i i i ",
"].].].].].].p.E E E E E ( =X=X=X=X=X=X~.T.T.T.T.T.i.i i i i i u ] | | | | | #.4.4.4.4.4.3.| | | | | | &.4.4.4.4.4.R i i i i i i ",
"].].].].].].p.E E E E E ( =X=X=X=X=X=X~.T.T.T.T.T.i.i i i i i u ] | | | | | #.4.4.4.4.4.3.| | | | | | &.4.4.4.4.4.R i i i i i i ",
"].].].].].].p.E E E E E ( =X=X=X=X=X=X~.T.T.T.T.T.i.i i i i i u ] | | | | | #.4.4.4.4.4.3.| | | | | | &.4.4.4.4.4.R i i i i i i ",
" X X X X X Xa.~ ~ ~ ~ ~ =.%X%X%X%X%X%XJ.M.M.M.M.M.r.i i i i i u _ ' ' ' ' ' $.l.l.l.l.l.h.............f.n.n.n.n.n.s.k k k k k k ",
"T.T.T.T.T.T.m.4.4.4.4.4.g.T.T.T.T.T.T.) E E E E E S i i i i i u I E E E E E 6.T.T.T.T.T.Y.4.4.4.4.4.4.E.].].].].].Q.4.4.4.4.4.4.",
"T.T.T.T.T.T.m.4.4.4.4.4.g.T.T.T.T.T.T.) E E E E E S i i i i i u I E E E E E 6.T.T.T.T.T.Y.4.4.4.4.4.4.E.].].].].].Q.4.4.4.4.4.4.",
"T.T.T.T.T.T.m.4.4.4.4.4.g.T.T.T.T.T.T.) E E E E E S i i i i i u I E E E E E 6.T.T.T.T.T.Y.4.4.4.4.4.4.E.].].].].].Q.4.4.4.4.4.4.",
"T.T.T.T.T.T.m.4.4.4.4.4.g.T.T.T.T.T.T.) E E E E E S i i i i i u I E E E E E 6.T.T.T.T.T.Y.4.4.4.4.4.4.E.].].].].].Q.4.4.4.4.4.4.",
"T.T.T.T.T.T.m.4.4.4.4.4.g.T.T.T.T.T.T.) E E E E E S i i i i i u I E E E E E 6.T.T.T.T.T.Y.4.4.4.4.4.4.E.].].].].].Q.4.4.4.4.4.4.",
"T.T.T.T.T.T.m.4.4.4.4.4.g.T.T.T.T.T.T.) E E E E E S i i i i i u I E E E E E 6.T.T.T.T.T.Y.4.4.4.4.4.4.E.].].].].].Q.4.4.4.4.4.4."
};
