/* XPM */
static char *d773fb1e88bf4a20c76f2295b6ccdec980l3mrGpTRGm6j0P[] = {
/* columns rows colors chars-per-pixel */
"64 64 39 1 ",
"  c gray9",
". c gray10",
"X c #2F2728",
"o c gray16",
"O c gray18",
"+ c #312D2D",
"@ c #342C2D",
"# c #3B3637",
"$ c #3C3737",
"% c gray22",
"& c #393939",
"* c #3C3C3C",
"= c #423B3C",
"- c #434343",
"; c #434443",
": c #444444",
"> c #4C4747",
", c gray29",
"< c #4D4848",
"1 c #574F50",
"2 c #535151",
"3 c #545151",
"4 c #91020D",
"5 c #97000C",
"6 c #98000C",
"7 c #A6000D",
"8 c #A8000D",
"9 c #B9000F",
"0 c #BA000F",
"q c #B50311",
"w c #C70212",
"e c #CF0011",
"r c #E30113",
"t c #E60013",
"y c #E40114",
"u c #F20317",
"i c #F40216",
"p c #FA0216",
"a c #FF0015",
/* pixels */
"********000000002222222222222222********OOOOOOOO45555555=*******",
"********000000002222222222222222********OOOOOOOO45555555=*******",
"********000000002222222222222222********OOOOOOOO45555555=*******",
"********000000002222222222222222********OOOOOOOO45555555=*******",
"********000000002222222222222222********OOOOOOOO45555555=*******",
"********000000002222222222222222********OOOOOOOO45555555=*******",
"********000000002222222222222222********OOOOOOOO45555555=*******",
"********000000002222222222222222********OOOOOOOO45555555=*******",
"OOOOOOOO****===*7777777722222222--------q0000000Xooooooo********",
"OOOOOOOO********7777777722222222--------q0000000Xooooooo********",
"OOOOOOOO********7777777722222222--------q0000000Xooooooo********",
"OOOOOOOO********7777777722222222--------q0000000Xooooooo********",
"OOOOOOOO********7777777722222222--------q0000000Xooooooo********",
"OOOOOOOO********7777777722222222--------q0000000Xooooooo********",
"OOOOOOOO********7777777722222222--------q0000000Xooooooo********",
"OOOOOOOO********7777777722222222--------q0000000Xooooooo********",
"00000000=*******22222222;-------OOOOOOOO,,,,,,,,OOOOOOOOuaaaaaaa",
"00000000=*******22222222--------OOOOOOOO,,,,,,,,OOOOOOOOiaaaaaaa",
"00000000=*******22222222--------OOOOOOOO,,,,,,,,OOOOOOOOiaaaaaaa",
"00000000=*******22222222--------OOOOOOOO,,,,,,,,OOOOOOOOiaaaaaaa",
"00000000=*******22222222--------OOOOOOOO,,,,,,,,OOOOOOOOiaaaaaaa",
"00000000=*******22222222--------OOOOOOOO,,,,,,,,OOOOOOOOiaaaaaaa",
"00000000********22222222--------OOOOOOOO,,,,,,,,OOOOOOOOiaaaaaaa",
"00000000********22222222;-------OOOOOOOO,,,,,,,,OOOOOOOOiaaaaaaa",
"77777777=*******paapaaaa77777777pppppppp77777777+OOOOOOOweeeeeee",
"77777777********aaaaaaaa87777777aaaaaaaa87777777+OOOOOOOweeeeeee",
"77777777********aaaaaaaa87777777aaaaaaaa87777777+OOOOOOOweeeeeee",
"77777777********aaaaaaaa87777777aaaaaaaa87777777+OOOOOOOweeeeeee",
"77777777=*******aaaaaaaa87777777aaaaaaaa87777777+OOOOOOOweeeeeee",
"77777777=*******aaaaaaaa87777777aaaaaaaa87777777+OOOOOOOweeeeeee",
"77777777=*******aaaaaaaa87777777aaaaaaaa87777777+OOOOOOOweeeeeee",
"77777777=*******aaaaaaaa87777777aaaaaaaa87777777+OOOOOOOweeeeeee",
"++++++++********yttttttt55555555rttttttt65555555+OOOOOOO#$$$$$$$",
"OOOOOOOO********rttttttt55555555rttttttt65555555+OOOOOOO&&&&&&&&",
"OOOOOOOO********rttttttt55555555rttttttt65555555+OOOOOOO&&&&&&&&",
"OOOOOOOO********rttttttt55555555rttttttt65555555+OOOOOOO&&&&&&&&",
"OOOOOOOO********rttttttt55555555rttttttt55555555+OOOOOOO&&&&&&&&",
"OOOOOOOO********rttttttt55555555rttttttt55555555+OOOOOOO&&&&&&&&",
"OOOOOOOO********rttttttt55555555rttttttt55555555+OOOOOOO&&&&&&&&",
"OOOOOOOO********tttttttt55555555rttttttt55555555+OOOOOOO&&&&&&#&",
"OOOOOOOO********33111111<<<<<<<<@@@@@@@@>,<<<<<<OOOOOOOO********",
"OOOOOOOO********22222222,,,,,,,,OOOOOOOO,,,,,,,,OOOOOOOO********",
"OOOOOOOO********22222222,,,,,,,,OOOOOOOO,,,,,,,,OOOOOOOO********",
"OOOOOOOO********22222222,,,,,,,,OOOOOOOO,,,,,,,,OOOOOOOO********",
"OOOOOOOO********22222222,,,,,,,,OOOOOOOO,,,,,,,,OOOOOOOO********",
"OOOOOOOO********22222222,,,,,,,,OOOOOOOO,,,,,,,,OOOOOOOO********",
"OOOOOOOO********22222222,,,,,,,,OOOOOOOO,,,,,,,,OOOOOOOO********",
"OOOOOOOO********22222222,,,,,,,,OOOOOOOO,,,,,,,,OOOOOOOO********",
"OOOOOOOO::::::::........*-----**OOOOOOOO........--------&&&&&&&&",
"OOOOOOOO::::::::        ********OOOOOOOO.       -:::::::&&&&&&&&",
"OOOOOOOO::::::::        ********OOOOOOOO.       -:::::::&&&&&&&&",
"OOOOOOOO::::::::        ********OOOOOOOO.       -:::::::&&&&&&&&",
"OOOOOOOO::::::::        ********OOOOOOOO.       -:::::::&&&&&&&&",
"OOOOOOOO::::::::        ********OOOOOOOO.       -:::::::&&&&&&&&",
"OOOOOOOO::::::::        ********OOOOOOOO.       -:::::::&&&&&&&&",
"OOOOOOOO::::::::        ********OOOOOOOO.       -:::::::&&&&&&&&",
"OOOOOOOO::::::::        ********--------.       -:::::::********",
"OOOOOOOO::::::::        ********--------.       -:::::::********",
"OOOOOOOO::::::::        ********--------.       -:::::::********",
"OOOOOOOO::::::::        ********--------.       -:::::::********",
"OOOOOOOO::::::::        ********--------.       -:::::::********",
"OOOOOOOO::::::::        ********--------.       -:::::::********",
"OOOOOOOO::::::::        ********--------.       -:::::::********",
"OOOOOOOO::::::::        ********--------.       -:::::::********"
};
