/* XPM */
static char *_389ac0c059b4975c1157cfe9aeb3c29MtNfWLEUL4Cq6Eo5[] = {
/* columns rows colors chars-per-pixel */
"64 64 85 1 ",
"  c #000400",
". c #060603",
"X c #17130D",
"o c #17140D",
"O c #1D1510",
"+ c #2C2119",
"@ c #217F17",
"# c #227F18",
"$ c #634529",
"% c #624629",
"& c #725031",
"* c #8C603F",
"= c #8C623F",
"- c #8C6240",
"; c #8D6240",
": c #96694B",
"> c #966A4C",
", c #9E6F49",
"< c #9F6F49",
"1 c #9C6D4A",
"2 c #1F8217",
"3 c #1E8416",
"4 c #1F8218",
"5 c #218116",
"6 c #208118",
"7 c #248719",
"8 c #228A1A",
"9 c #23911B",
"0 c #23921C",
"q c #24911C",
"w c #26941E",
"e c #279B1F",
"r c #29981F",
"t c #279A20",
"y c #279C20",
"u c #2A9821",
"i c #289B20",
"p c #299E22",
"a c #28A021",
"s c #2FBA27",
"d c #2FBD27",
"f c #2FB928",
"g c #30BD27",
"h c #33BB29",
"j c #30BF28",
"k c #34BF29",
"l c #43972B",
"z c #40982A",
"x c #53B335",
"c c #56B536",
"v c #2FC427",
"b c #2FC328",
"n c #31C229",
"m c #34C029",
"M c #30C428",
"N c #BE855B",
"B c #BC8F5B",
"V c #BC905B",
"C c #BC925D",
"Z c #BC955D",
"A c #C4885E",
"S c #C78A5E",
"D c #C68960",
"F c #CE8D63",
"G c #CC8F62",
"H c #CD8E64",
"J c #CB9067",
"K c #CB9167",
"L c #CB9168",
"P c #CE9268",
"I c #CE9369",
"U c #C29D71",
"Y c #C49F71",
"T c #D19F7A",
"R c #D2A07C",
"E c #CFA483",
"W c #D7AC8B",
"Q c #D2CAC2",
"! c #D4CCC4",
"~ c #DCDCDB",
"^ c #DADCDC",
"/ c gray87",
"( c #EFE7DE",
") c #F0E7DE",
"_ c white",
/* pixels */
"24444440nnnnnnndtttttttannnnnnnn24444442itttttttgnnnnnnnnnnnnnnM",
"2666666qnnnnnnndtiiiiiipnnnnnnnn26666662iiiiiiitdnnnnnnnnnnnnnnn",
"2666666qnnnnnnndtiiiiiipnnnnnnnn26666662iiiiiiitdnnnnnnnnnnnnnnn",
"2666666qnnnnnnndtiiiiiipnnnnnnnn26666662iiiiiiitdnnnnnnnnnnnnnnn",
"2666666qnnnnnnndtiiiiiipnnnnnnnn26666662iiiiiiitdnnnnnnnnnnnnnnn",
"2666666qnnnnnnndtiiiiiipnnnnnnnn26666662iiiiiiitdnnnnnnnnnnnnnnn",
"2666666qnnnnnnndtiiiiiipnnnnnnnn26666662iiiiiiitdnnnnnnnnnnnnnnn",
"22222229jjjjjjjsyyyyyyyannnnnnnn33333333itttttttfjjjjjjjnnnnnnnn",
"iiiiiiiw22222228nnnnnnnjtttttttennnnnnnn2222222222222222wtttttte",
"iiiiiiiw46666668nnnnnnnjiiiiiiitnnnnnnnn2666666666666662wiiiiiit",
"iiiiiiiw46666668nnnnnnnjiiiiiiitnnnnnnnn2666666666666662wiiiiiit",
"iiiiiiiw46666668nnnnnnnjiiiiiiitnnnnnnnn2666666666666662wiiiiiit",
"iiiiiiiw46666668nnnnnnnjiiiiiiitnnnnnnnn2666666666666662wiiiiiit",
"iiiiiiiw46666668nnnnnnnjiiiiiiitnnnnnnnn2666666666666662wiiiiiit",
"iiiiiiiw46666668nnnnnnnjiiiiiiitnnnnnnnn2666666666666662wiiiiiit",
"ettttttq@@@@@@@7mmmmkmmhiiiiiiirkmmmmmmk5#@@@@@@@@@@@@@@wiiiiiit",
"njjjjjjxCCCCCCCCZZZZZZZZCCCCCCCCZZZZZZZZCCCCCCCCCCCCCCCCziiiiiit",
"nnnnnnncFFFFFFFFFFFFFFFFFFFFFFFFFFFFFFFFFFFFFFFFFFFFFFFFliiiiiit",
"nnnnnnncFFFFFFFFFFFFFFFFFFFFFFFFFFFFFFFFFFFFFFFFFFFFFFFFziiiiiit",
"nnnnnnncFFFFFFFFFFFFFFFFFFFFFFFFFFFFFFFFFFFFFFFFFFFFFFFFziiiiiit",
"nnnnnnncFFFFFFFFFFFFFFFFFFFFFFFFFFFFFFFFFFFFFFFFFFFFFFFFziiiiiit",
"nnnnnnncFFFFFFFFFFFFFFFFFFFFFFFFFFFFFFFFFFFFFFFFFFFFFFFFziiiiiit",
"nnnnnnncFFFFFFFFFFFFFFFFFFFFFFFFFFFFFFFFFFFFFFFFFFFFFFFFziiiiiit",
"vbbbbbbcFFFFFFFFFFFFJJJJFFFFFFFFFFFFFFFFFFFFJJJJFFFFFFFFzttttttt",
"ZCCCCZCY())))))!XXXXXXX+FFFFFFFFFFFFFFFJOXXXXXXXQ)))))))UBBBBBBV",
"FFFFFFFT_______/       XFFFFFFFFFFFFFFFJ.       ~_______RFFFFFFF",
"FFFFFFFT_______/       XFFFFFFFFFFFFFFFJ.       /_______RFFFFFFF",
"FFFFFFFT_______/       XFFFFFFFFFFFFFFFJ.       /_______RFFFFFFF",
"FFFFFFFT_______/       XFFFFFFFFFFFFFFFJ.       /_______RFFFFFFJ",
"FFFFFFFT_______/       XFFFFFFFFFFFFFFFL.       /_______RFFFFFFJ",
"JFFFFFFT_______/       oFFFFFFFFFFFFFFFJ.       /_______RFFFFFFJ",
"FFFFFFFT_______/       oFFFFFFFFFFFFFFFJ.       /_______RFFFFFFF",
"FFFFFFFT_______/       XFFFFFFFFFFFFFFFJ.       /_______RFFFFFFF",
"FFFFFFFT_______/       XFFFFFFFFFFFFFFFJ.       /_______RFFFFFFF",
"JFFFFFFT_______/       XFFFFFFFFFFFFFFFJ.       /_______RFFFFFFJ",
"JFFFFFFT_______/       XFFFFFFFFFFFFFFFJ.       /_______RFFFFFFJ",
"JFFFFFFT_______/       XFFFFFFFFFFFFFFFL.       /_______RFFFFFFF",
"JFFFFFFT_______/       XFFFFFFFFFFFFFFFJ.       /_______RFFFFFFF",
"FFFFFFFT_______/       XHFFFFFFFFFFFFFFJ.       /_______RFFFFFFF",
"FFFFFFFT_______/       oFFFFFFFFFFFFFFFJ.       ^_______RFFFFFFF",
"JFFFFFFPWWWWWWWE::::::::<<<<<<<<<<<<<<<<>:::::::EWWWWWWWPFFFFFFF",
"JFFFFFFFFFFFFFFFFFFFFFFD---------------=FFFFFFFFFFFFFFFFFFFFFFFF",
"JFFFFFFFFFFFFFFFFFFFFFFD---------------=FFFFFFFFFFFFFFFFFFFFFFFF",
"FFFFFFFFFFFFFFFFFFFFFFFD---------------=FFFFFFFFFFFFFFFFFFFFFFFJ",
"FFFFFFFFFFFFFFFFFFFFFFFD---------------=FFFFFFFFFFFFFFFFFFFFFFFJ",
"FFFFFFFFFFFFFFFFFFFFFFFD---------------=FFFFFFFFFFFFFFFFFFFFFFFJ",
"JFFFFFFFFFFFFFFFFFFFFFFD---------------=FFFFFFFFFFFFFFFFFFFFFFFF",
"JFFFFFFFFFFFFFFFFFFFFFHD---------------=FFFFFFFFFFFFFFFFFFFFFFFF",
"JFFFFFFFFFFFFFFS=------=&&&&&&&&&&&&&&&&--------SFFFFFFFFFFFFFFF",
"FFFFFFFFFFFFFFFN%%%%%%%%%%%%%%%%%%%%%%%%%%%%%%%%NFFFFFFFFFFFFFFJ",
"FFFFFFFFFFFFFFFN%%%%%%%%%%%%%%%%%%%%%%%%%%%%%%%%NFFFFFFFFFFFFFFJ",
"FFFFFFFFFFFFFFFN%%%%%%%%%%%%%%%%%%%%%%%%%%%%%%%%NFFFFFFFFFFFFFFJ",
"JFFFFFFFFFFFFFFN%%%%%%%%%%%%%%%%%%%%%%%%%%%%%%%%NFFFFFFFFFFFFFFF",
"JFFFFFFFFFFFFFFN%%%%%%%%%%%%%%%%%%%%%%%%%%%%%%%%NFFFFFFFFFFFFFFF",
"JFFFFFFFFFFFFFFN%%%%%%%%%%%%%%%%%%%%%%%%%%%%%%%%NFFFFFFFFFFFFFFF",
"FFFFFFFFFFFFFFFN%%%%%%%%%%%%%%%%%%%%%%%%%%%%%%%%NFFFFFFFFFFFFFFJ",
"FFFFFFFFFFFFFFFS<<<<<<<<<<<<<<<<<<<<<<<<<<<<<<<<SFFFFFFFFFFFFFFJ",
"FFFFFFFFFFFFFFFFFFFFFFFFFFFFFFFFFFFFFFFFFFFFFFFFFFFFFFFFFFFFFFFJ",
"JFFFFFFFFFFFFFFFFFFFFFFFFFFFFFFFFFFFFFFFFFFFFFFFFFFFFFFFFFFFFFFF",
"JFFFFFFFFFFFFFFFFFFFFFFFFFFFFFFFFFFFFFFFFFFFFFFFFFFFFFFFFFFFFFFF",
"JFFFFFFFFFFFFFFFFFFFFFFFFFFFFFFFFFFFFFFFFFFFFFFFFFFFFFFFFFFFFFFF",
"FFFFFFFFFFFFFFFFFFFFFFFFFFFFFFFFFFFFFFFFFFFFFFFFFFFFFFFFFFFFFFFJ",
"FFFFFFFFFFFFFFFFFFFFFFFFFFFFFFFFFFFFFFFFFFFFFFFFFFFFFFFFFFFFFFFJ",
"FFFFFFFFFFFFFFFFFFFFFFFFFFFFFFFFFFFFFFFFFFFFFFFFFFFFFFFFFFFFFFFJ"
};
