/* XPM */
static char *dca1b8e901974235a8602891d51d4de3Gxd5WpuLEqiTKngD[] = {
/* columns rows colors chars-per-pixel */
"64 64 42 1 ",
"  c #593C29",
". c #5A3E28",
"X c #5B3E28",
"o c #5C3F29",
"O c #594029",
"+ c #5C402A",
"@ c #5B4429",
"# c #5C442B",
"$ c #5E402C",
"% c #77563B",
"& c #79573B",
"* c #7A573C",
"= c #7C573C",
"- c #7A583B",
"; c #7A583C",
": c #7C593D",
"> c #7C5B40",
", c #6C6B6B",
"< c #6E6C6A",
"1 c #6C6B6D",
"2 c #6E6D6F",
"3 c #6D6D70",
"4 c #80593D",
"5 c #946B4A",
"6 c #966D4A",
"7 c #976D4C",
"8 c #986F4B",
"9 c #986D4C",
"0 c #97704A",
"q c #B7845B",
"w c #B4835C",
"e c #B7875E",
"r c #B8835C",
"t c #B9845D",
"y c #B8875C",
"u c #BA875F",
"i c #BD875E",
"p c #B9885F",
"a c #888685",
"s c #898987",
"d c #888788",
"f c #898B8A",
/* pixels */
"7777********iiii****&&&&iiii****ttttttttXXXX-;;;XXXX;;;;7777pppp",
"7777********iiii****&&&&iiii****ttttttppXXXX--;;XXXX;;;;7777pppp",
"7777********iiii****&&&&iiii****ttttttttXXXX----XXXX;;;;7777pppp",
"7777********iiii****&&&&iiii****ttttttttXXXX----XXXX;;;;7777pppp",
";;;;7777iiiipppp****OXXX&&&&&&&&ffff********ppppppppXXXXffff7777",
";;;;7777iiiipppp****XXXX&&&&&&&&ffff********ppppppppXXXXffff7777",
";;;;7777iiiipppp****XXXX&&&&&&&&ffff********ppppppppXXXXffff7777",
";;;;7777iiiipppp****XXXX&&&&&&&&ffff********ppppppppXXXXffff7777",
"7777XXXX6666XXXXXXXXXXXX7777OXXXpppp--;;****7777#XXX&&&&&&&&@XXX",
"7777XXXX6666XXXXXXXXXXXX7777OXXXpppp--;;****7777+XXX&&&&&&&&OXXX",
"7777XXXX6666XXXXXXXXXXXX7777OXXXpppp---;****7777+XXX&&&&&&&&OXXX",
"7777XXXX6666XXXXXXXXXXXX7777OXXXpppp----****7777+XXX&&&&&&&&OXXX",
"oooo<<<<+oooOOOOppppXXXXOOOOXXXX7777OXXX&&&&OXXX&;;;OXXXXXXX&;;;",
"XXXX<<<<XXXXXXXXppppXXXXXXXXXXXX7777OXXX&&&&OXXX&;;;XXXXXXXX&;;;",
"XXXX<<<<XXXXXXXXppppXXXXXXXXXXXX7777OXXX&&&&OXXX&;;;XXXXXXXX&;;;",
"XXXX<<<<XXXXXXXXppppXXXXXXXXXXXX7777XXXX&&&&OXXX&;;;XXXXXXXX&;;;",
"6666;;;;7777tttt+OOO6666&&&&&&&&OOOOXXXXOOOO,222;;--6666oXXX&;;;",
"7777;;;;7777ppppXXXX6666&&&&&&&&XXXXXXXXXXXX2222;---6888+XXX&;;;",
"7777;;;;7777ppppXXXX6666&&&&&&&&XXXXXXXXXXXX2222;;--6888+XXX&;;;",
"7777;;;;7777ppppXXXX6666&&&&&&&&XXXXXXXXXXXX2222;;--6888+XXX&;;;",
"****XXXX77776666&&&&7777XXXXXXXXXXXX&;;;;;;;XXXX&;;;;;;;;;;;qttt",
"****XXXX77776666&&&&7777XXXXXXXXXXXX*;;;;;;;XXXX&;;;;;;;;;;;ttpp",
"****XXXX77776666&&&&7777XXXXXXXXXXXX*;;;;;;;XXXX&;;;;;;;;;;;tttt",
"****XXXX77776666&&&&7777XXXXXXXXXXXX&;;;;;;;XXXX&;;;;;;;;;;;tttt",
"ttttXXXX;;;;;;;;sfff;;;;&&&&tttttttt:;;;ettteeee;;;;6666;;;;7999",
"ttttXXXX;;;;;;;;ffff;;;;;;;;tiiiiiii;;;;tttttttt:;;;6888;;;;6777",
"ttttXXXX;;;;;;;;ffff;;;;;;;;tiiiiiii;;;;tptttttt:;;;6888;;;;6777",
"ttttXXXX;;;;;;;;ffff;;;;;;;;iiiiiiii;;;;tttttptt:;;;6888;;;;6777",
"iiii&&&*tttteeee77776666&&&&::::6000XXXX79999999;;;;----57777777",
"iiii;;;;ttpppppp77776666&&&&;;;;6666XXXX67777777;;;;----67777777",
"iiii;;;;ttttpppp77776666&&&&;;;;6666XXXX67777777;;;;;;--67777777",
"iiii;;;;ttttpppp97776666&&&&;;;;6666XXXX67777777;;;;;;;;67777777",
"9999&&&&;;;;9999;--;7777;;;;XXXX****56667777;;;;;;;;;;;;++++;;;;",
"7777&&&&&&&&7777&&&&7777;;;;XXXX****67777777;;;;;;;;;;;;+XXX&;;;",
"7777&&&&&&&&7777&&&&7777;;;;XXXX****67777777;;;;;;;;;;;;+XXX&;;;",
"7777&&&&&&&&7777&&&&7777;;;;XXXX****67777777;;;;;;;;;;;;+XXX&;;;",
"77776666oooo;;;-&%%&oXXXXXXX%%&&****;;;;;;;;;;;;wttttttt;*&&5666",
"77777777oXXX&&&&&&&&XXXXXXXX****************;;;;etttpppt:;;;6777",
"77777777oXXX&&&&&&*&XXXXXXXX****************;;;;etpppptt:;;;6777",
"77777777XXXX&&&&***&XXXXXXXX****************;;;;ttptpptt:;;;6777",
"77777777&&&&tttttttt;;&&eeee6666XXXXettttttt;;;;68888888addd>;;;",
"77777777&&&&ttttttpt;;;;tttt6666XXXXtttttttt;;;;66666666sfff>;;;",
"77777777&&&&tttttttt;;;;tttt6666XXXXtttttttt;;;;66666666sfff;;;;",
"77777777&&&&pttttttt;;;;tttt6666XXXXtttttttt;;;;66666666sfff;;;;",
"7777;;;;&&&&99999999eeee::::6666111179999999;;;;++++6666>;;;$XXX",
"7777&&&&&&&&77777777tttt;;;;6666333376666666;;;;XXXX6666;;;;OXXX",
"7777&&&&&&&&77777777tptt;;;;6666233376666666;;;;XXXX6666;;;;OXXX",
"7777&&&&&&&&77777777pptt;;;;6666233376666666;;;;XXXX6666;;;;OXXX",
";;;;oooo6666;;;;77779999eeee:;;;;;;;;;;;;;;;;;;;&&&&;;;;weeeeeee",
"&&&&XXXX7777;;;;77777777ptpp;;;;;;;;;;;;;;;;;;;;;;;;;;;;ettptttt",
"&&&&XXXX7777;;;;77777777tttt;;;;;;;;;;;;;;;;;;;;;;;;;;;;ettttttt",
"&&&&XXXX7777;;;;77777777tttt;;;;;;;;;;;;;;;;;;;;;;;;;;;;ettttttt",
"&&&&5555;;;;;;;;++++;;;;88886666;;;;+XXXweee+XXX;;;;weee99999999",
"&&&&7777;;;;;;;;XXXX;;;;66666666;;;;XXXXtttt+XXX-;;;tttt97777777",
"&&&&7777;;;;;;;;XXXX;;;;66666666;;;;XXXXtttt+XXX-;;;tttt97777777",
"&&&&7777;;;;;;;;XXXX;;;;66666666;;;;XXXXtttt+XXX&;;;tttt97777777",
"6666:;;;+oooeeee&%%%oooo;;;;++++;;;;&%%%::::&%%%;;;;::::67777777",
"7777;*;;XXXXtttt;;;;XXXX;;;;XXXX;;;;;;;;;;;;**;;;;;;;;;;67777777",
"7777****XXXXtttt;;;;XXXX;;;;XXXX;;;;;;;;;;;;****;;;;;;;;67777777",
"7777****XXXXpppt;;;;XXXX;;;;XXXX;;;;;;;;;;;;***;;;;;;;;;67777777",
";;;;XXXXwwwwtttt;;;;&&&&tttt+XXX&&&&rttt:;;;oXXX&&&&rttt4===$ooo",
";;;;XXXXtttttttt;;;;;;;;iiii+XXX&&&&tiii:;;;XXXX&&&&iiii:&&&XXXX",
";;;;XXXXtttttptt;;;;;;;;iiii+XXX&&&&tiii:;;;XXXX&&&&iiii:&&&XXXX",
";;;;XXXXtttttttt;;;;;;;;iiii+XXX&&&&tiii:;;;XXXX&&&&iiii:&&&XXXX"
};
