/* XPM */
static char *dce86f7d71ce45f6c476624c29af0f88lIjfAlPSdmdjBQtF[] = {
/* columns rows colors chars-per-pixel */
"64 64 125 2 ",
"   c #14121E",
".  c #151523",
"X  c #181723",
"o  c #171927",
"O  c #1B1A25",
"+  c #151728",
"@  c #151A28",
"#  c #1C1D2A",
"$  c #182334",
"%  c #373A3E",
"&  c #383A3F",
"*  c #353E46",
"=  c #3A3D42",
"-  c #473D5F",
";  c #4A3D5C",
":  c #374147",
">  c #3D4146",
",  c #3E4448",
"<  c #414649",
"1  c #42484B",
"2  c #494E52",
"3  c #4E415E",
"4  c #565B5B",
"5  c #595D5D",
"6  c #4A4162",
"7  c #5C6162",
"8  c #777777",
"9  c #757678",
"0  c #787778",
"q  c #7B7B7B",
"w  c #7B807A",
"e  c #343C9E",
"r  c #264184",
"t  c #294385",
"y  c #27458B",
"u  c #2A468B",
"i  c #27488E",
"p  c #2A498E",
"a  c #314B8D",
"s  c #274A90",
"d  c #2A4C91",
"f  c #304D91",
"g  c #227EB7",
"h  c #6A6583",
"j  c #716C87",
"k  c #716C8A",
"l  c #76718D",
"z  c #747390",
"x  c #2583BE",
"c  c #7D8183",
"v  c #2386C4",
"b  c #2489C7",
"n  c #298AC6",
"m  c #258BC8",
"M  c #2C8DC8",
"N  c #308EC7",
"B  c #308FC9",
"V  c #3190C9",
"C  c #36A4CD",
"Z  c #38A6CE",
"A  c #3AACD6",
"S  c #39AED9",
"D  c #40AFD9",
"F  c #42B1DA",
"G  c #49B4DA",
"H  c #838384",
"J  c #8D8D86",
"K  c #868689",
"L  c #83898C",
"P  c #8A8B8B",
"I  c #959BA6",
"U  c #989FAD",
"Y  c #95A0AE",
"T  c #9CA2AE",
"R  c #95A2B3",
"E  c #9CA4B1",
"W  c #A0A6B1",
"Q  c #ACADB2",
"!  c #ACB1B7",
"~  c #ACB2B8",
"^  c #B3B3B5",
"/  c #B5B6B9",
"(  c #B4B9BE",
")  c #BBBABD",
"_  c #B6BBC0",
"`  c #BBBDC1",
"'  c #C0C0C3",
"]  c #C1C8CF",
"[  c #D0CFCB",
"{  c #CDD1CF",
"}  c #D6D4CF",
"|  c #C5CED2",
" . c #C8CFD3",
".. c #C6D1D5",
"X. c #CAD2D5",
"o. c #CBD4D7",
"O. c #CDD4D7",
"+. c #CFD5D6",
"@. c #D3D5D2",
"#. c #D1D6D7",
"$. c #D8D6D1",
"%. c #DAD9D5",
"&. c #DDE0DE",
"*. c #E8E5DF",
"=. c #DAE2E7",
"-. c #D7E3E9",
";. c #DCE5EA",
":. c #DEE6EB",
">. c #DFE8EB",
",. c #E2E5E2",
"<. c #E4E5E2",
"1. c #E4E6E2",
"2. c #E2E5E6",
"3. c #EAE7E1",
"4. c #E8E8E2",
"5. c #EDEAE3",
"6. c #E0E7EB",
"7. c #E5E7E8",
"8. c #E2E9EB",
"9. c #E7E9E9",
"0. c #E3E9EC",
"q. c #E5EBED",
"w. c #E9EBEB",
"e. c #EAECEC",
"r. c #EAECED",
/* pixels */
"    b b b b b b b b b b b b b E +./ w.b b b b b b 4.r.q 9.n b b b b b b 0.%.q 7.m b b b b b 8.%.W n b b b b b b b b b b b b b @ ",
"b b b b b b b b b b b b b b b b y k b b b b b b b b 4 ; v b b b b b b b b E ; v b b b b b b b X.p v b b b b b b b b b b b b b b ",
"b   % y y b y b b b b b y b b y E J +.u b y y b y / 3.q X.n b b . r v b X.r.H T n b b y v b ..) k u y v i v b b b b b b i y .   ",
"b   y b b b b b b b b b b b b b / K $.b b b b b b X.5.q 3.n b b = v b b 1.5.l T n b b b b b 1.) k b b b b b b b b b b b b b i . ",
"b   y b b b b b b b b b b b b b ; 4 $.b b b b b b +.1 % 9.m b b ; v b b 1.l = / b b b b b b X.P 8 v b b b b b b b b b b b b b @ ",
"b b ; S b b y y y y y y y y y y , k u y y y y y y y y v y y v b y v b y y v b y y y y y y y y | M b b b b b b b b b b b b S : x ",
"b b b y b b b b b b b b b b b b y 8 b b b b b b b b b b b b b b y v b y v b y v b b b b b b y | m b b b b b b b b b b b b i v b ",
"b   ; y b b b b b b b b b b b b y k b b b b b b b b b b b y v b y v b b b b y v b b b b b b b X.m b b b b b b b b b b b b i = . ",
"b   b b b b b b b b b b b b b b y k b b b b b b b b b b b y v b y v b b b b y v b b b b b b b X.m b b b b b b b b b b b b b b @ ",
"b   b b b b S S S S S S S S S S b k S S S S S S S S b b S S b b y v b S S b b S S S S S S S b @.n S S S S S S S S S S b b b b @ ",
"b % b b b b b b b b b b b b b b y k b b b b b b b b b b b b b b y v b b b b b b b b b b b b b X.M b b b b b b b b b b b b b b @ ",
"b % b b b b b b b b b b b b b b y k b b b b b b b b b b b b b b y v b b b b b b b b b b b b b @.M b b b b b b b b b b b b b b @ ",
"b % b b b b b b b b b b b b b b y k b b b b b b b b b b b b b b y v b b b b b b b b b b b b b @.n b b b b b b b b b b b b b b * ",
"b % b b b b b b b b b b b b b b y k b b b b b b b b b b b b b b y v b b b b b b b b 8.r.F 0.M @.3.w.M :.+.) S >.M b ( 2.M b b * ",
"b % b b b b b b b b b b b b b b y k b b b b b b b b b b b b b b y v b b b b y v b b 8.r.F 0.m X.W 9.M 6.#.F ..r.M b ! 9.M b b * ",
"b % b b b b b b b b b b b b b b +.K E b b b b b b S q.c T b b b y v b b R 9.P v b b S o.m b ,./ ^ M b ( X.M b ..M b ( X.M b b * ",
"b % b b b b b b b b b b b b b b ; 4 / b b b b b b ( k < } b b b y v b b @.q < T n b b b b b X.P k v b b b b b b b b b b b b b * ",
"b % b b b b b b b b b b b b b b y k b b b b b b b b b u b b b b y v b b b b y v b b b b b b b ..W 9.M :.F b b b b b b b b b b * ",
"b % b b b b b b b b b b b b b b y k b b b b b b b b b b b b b b y v b b b b y v b b b b b b b X.w.r.F 0.` n b b b b b b b b b * ",
"b ; b b b b b b b b b b b b b b y k b b b b b b b b b b b b b b y v b b b b b b b b b b b b b X.M b b b b b b b b b b b b b b * ",
"b % b b b b b b b b b b b b b b y k b b b b b b b b b b b b b b y v b b b b y v b b b b b b b X.m b b b b b b b b b b b b b b * ",
"b % b b b b y y y y y y y y y y y k u y y y y y y y y y y y v b y v b y y v y y y y y y y y y | p y y v b b b b b i y v b b b @ ",
"b b b b b b b b b b b b b b b b y k v b b b b b b b b b b y v b y v b b b b b b b b b b b b b X.M b b b b b b b b b b b b b b v ",
"b b y b b b b b b b b b b b b b y k b b b b b b b b b b b y v b y v b b b b y v b b b b b b b X.M b b b b b b b b b b b b b b b ",
"b b b b b b b b b b b b b b b b b k b b b b b b b b b b b b b b y v b b b b b b b b b b b b b X.M b b b b b b b b b S b b b b b ",
"b . y b b b b b b b b b b b b b y k b b b b b b b b b b b b b b y v b b b S i v b b b b b b b X.n b b b b b b b b b b b b b i + ",
"b   v b b b b b b b b b b b b b y k b b b b b b b b b b b b b b y v b b b b y v b b :.q._ b :.#.9.q.M b b :.F ..+.F :.M b b v @ ",
"b % b b b b b b b b b b b b b b y k b b b b b b b b b b b b b b y v b b b S y v b b 8.#.3.n X.+.` *.9.M b b b b b b b b b b b @ ",
"b % b b b b b b b b b b b b b b y k b b b b b b b b b b b b b b y v b b b b v b b b 0.M 1.n 8.#.9.r.5.M b :.M ..+.+._ n b b b @ ",
"b % b b b b b b b b b b b b b b y k b b b b b b b b b b b b b b y v b b b b i v b b m b n b n X.B m n b b n b n n n b b b b b * ",
"b % b b b b y y y y y y y y y y y k y y y y y y y y 4 u y ; v b y v b i y v y y y y y y y y y | d y v i y v i v b b s v b b b * ",
"b % b b b b v v v v v v v v v v y k v v v v v v v v b v v u v b y v b v v b v v v v v :.7.9.p | n v b v v b v | X.X.M b b b b * ",
"b % b b b b b b b b b b b b b b y k b b b b b b b b b b b y v b y v b b b b b b b b b 1.5.r.a | m b b b b b b :.' n b b b b b * ",
"b % b b b b b b b b b b b b b b y k b b b b b b b b b b b y v b y v b i v b i v b b b n n m e  .n b b b b b S m ( n b b b b b * ",
"b % b b b b S S S S S S S S S S A k S S S S S S S S b b S A b b y v b A S S b S S S S S S S S @.S S S S S S S S A S S b b b b * ",
"b % b b b b b b b b b b b b b b i k b b b b b b b b b b b b b b y v b b b b b b b b b b b b b _ n b b b b b b b b b b b b b b * ",
"b % b b b b b b b b b b b b b b y k b b b b b b b b b b b b b b y v b b b S b b b b :.q.q.m :.+.n ;.F b b ;.E X.X.F ;.M b b b * ",
"b ; b b b b b b b b b b b b b b y k b b b b b b b b b b b b b b y v b b b b b b b b 8.V 0.f 1.#.X.r.q.M b S S m ..o.G b b b b * ",
"b % b b b b b b b b b b b b b b y k b b b b b b b b b b b b b b y v b b b S i v b b m b m v n @.N m m b b b b b n m b b b b b * ",
"b % b b b b y y y y y y y y y y ; 0 y y y y y y y y y ; y ; v b y v b 6 u b y y y y y y y y y  .d y y y y y v b b s y v b b b @ ",
"b v * b b b v v v v v v v v v v u k v v v v v v v v v v v u v b y v b v v b v v v v v v =.n &.` u ] n v v v S b | X. .M b S @ g ",
"b b v b b b b b b b b b b b b b y k b b b b b b b b b b b y v b y v b b b b b b b b b b 8.M 8.) U +.M b b b b R 9.G >.M b b v b ",
"b . ; y b b b b b b b b b b b b y k b b b b b b b b b b b y v b y v b i v b i v b b b S M b m ( n n b b b b b n D m S b b s * o ",
"b   v v b b S S S S S S S S S S v K A S S S S S S S b b S A b b y v b A S S v S S S S S S S S ( A S S S S S S S S S S b b v v @ ",
"b % b b b b b b b b b b b b b b i k b b b b b b b b b b b b b b y v b b b S s b b b b b b b b ( n b b b b b b b b b b b b b b @ ",
"b % b b b b b b b b b b b b b b y k b b b b b b b b b b b b b b y v b b b b y v b b b b b b b ( n b b b b b b b b b b b b b b @ ",
"b % b b b b b b b b b b b b b b y k b b b b b b b b b b b b b b y v b b b b y v b b b b b b b | n b b b b b b b b b b b b b b @ ",
"b % b b b b b b b b b b b b b b y k b b b b b b b b b b b b b b y v b b b b v b b b b b b b b _ i v b b b b b b b b b b b b b * ",
"b % b b b b b b b b b b b b b b | J ..b b b b b b R ,.c ! b b b y v b b _ { c R n b b b b b | E K v b b b b b b b b b b b b b * ",
"b % b b b b b b b b b b 6.b b b > 5 a b b b :.b b n 7 < n b b b y v b b n z = n b b :.m b b d T a v b b -.M b b b b b b b b b * ",
"b % b b b b b b b ( ( P / P ( ( / K v ( ( P / c ( ( [ j b b b b y v b b b | J ( { P / w ( ( u K Q _ ( L ^ c ( ( n b b b b b b * ",
"b % b b b b b b b u u u ) u u u X 4 i u u u K u u u 7 5 b b b b y v b b b M 6 u a u T a u u y U a u u u ( a u u v b b b b b b * ",
"b % b b b b b b b v v v n v v v r H v v v v v v v v v v b b b b y v b b b b u v v v n v v v v _ v v v v n v v v b b b b b b b * ",
"b % b b b b b b b b b b b b b b y H b b b b b b b b b b b b b b y v b b b S y v b b b b b b b ( n b b b b b b b b b b b b b b * ",
"b ; b b b b b b b b b b b b b b y k b b b b b b b b b b b b b b y v b b b S y v b b b b b b b ( n b b b b b b b b b b b b b b * ",
"b ; b b b b b b b b b b b b b b y K i b b b b b b i v b s i v b y v b s i b y y v b b b b b s / p v b b b b b b b b b b b b b * ",
"b & b b b b b b b b b b b b b b y K v b b b b b b v b b v y v b y v b v v b y v b b b b b b v ( x b b b b b b b b b b b b b b @ ",
"b t b b b b b b b b b b b b b b y T b b b b b b b b b b b y v b y v b b b b y v b b b b b b b ( n b b b b b b b b b b b b b b y ",
"b v i i b b S S S S S S S S S S v E b S S S S S S S b b S v b b y v b b S b v S S S S S S S S ( n S S A S S S S S S S b b d i x ",
"b b v v b b b b b b b b b b b b i E b b b b b b b b b b b b b b y v b b b R d b b b b b b b d / p v b b b b b b b b b b b v v b ",
"b @ i b b b b b b b b b b b b b | E ~ b b b b b b R ,.E R b b b y v b b R @.U L n b b b b b L K x b b b b b b b b b b b b b d @ ",
"b   y b b b b b b b b b b b b b +.P ) b b b b b b E 4.P ^ b b b - v b b _ $.W k b b b b b b ( K Y n b b b b b b b b b b b b v @ ",
"S Z A @ @ @ @ @ @ @ @ @ @ @ @ @ K J O @ @ @ @ @ @ O W q # @ @ @ t @ @ @ X ^ H O @ @ @ @ @ @ X I 2 # @ @ @ @ @ @ @ @ @ @ @ @ C Z ",
"b @ b r r r r r r r r r r r r r 3 5 h r r r r r r 9 7 = H t r r y r r r h T 3 h t r r r r r h T k t r r r r r r r r r r r r v $ "
};
