/* XPM */
static char *_047788d33124153f3897e406fb122e7Pyok1hRvmKaGxiqg[] = {
/* columns rows colors chars-per-pixel */
"64 64 125 2 ",
"   c None",
".  c #373A3E",
"X  c #383B3F",
"o  c #363F46",
"O  c #383D43",
"+  c #3A4147",
"@  c #3C4449",
"#  c #3E484E",
"$  c #3C4651",
"%  c #40484D",
"&  c #414B52",
"*  c #434D5C",
"=  c #6C6459",
"-  c #796956",
";  c #425063",
":  c #485770",
">  c #4F5B75",
",  c #4E5E79",
"<  c #505B74",
"1  c #6D6D6D",
"2  c #726962",
"3  c #757467",
"4  c #747474",
"5  c #7C7C7C",
"6  c #876B62",
"7  c #8A7F77",
"8  c #91866A",
"9  c #86817C",
"0  c #89817B",
"q  c #177889",
"w  c #2F79A9",
"e  c #456A90",
"r  c #4F7F97",
"t  c #6A768F",
"y  c #6C7790",
"u  c #3F82A7",
"i  c #2A86BE",
"p  c #3186B8",
"a  c #398BBB",
"s  c #4F8097",
"d  c #4D819B",
"f  c #53849C",
"g  c #778C8D",
"h  c #788C8C",
"j  c #4E84A0",
"k  c #4987A8",
"l  c #4688AD",
"z  c #2587C2",
"x  c #2887C1",
"c  c #2489C7",
"v  c #2C8BC5",
"b  c #2389C8",
"n  c #2E8EC8",
"m  c #308BC1",
"M  c #848485",
"N  c #8D8D86",
"B  c #878788",
"V  c #878889",
"C  c #8C8B8C",
"Z  c #8F8F91",
"A  c #939393",
"S  c #9B9B9B",
"D  c #9F9FA0",
"F  c #91A6A8",
"G  c #9BA3B0",
"H  c #A3A3A4",
"J  c #A7A7A9",
"K  c #ACACAD",
"L  c #AFAFB1",
"P  c #AFB2B6",
"I  c #B3B3B6",
"U  c #B7B7BA",
"Y  c #B9B9BC",
"T  c #CFB1A1",
"R  c #D2B2A1",
"E  c #BEBEC0",
"W  c #C1C4C6",
"Q  c #CCCBC6",
"!  c #C3C7C9",
"~  c #C6CBCC",
"^  c #CDD0CF",
"/  c #D4D3CE",
"(  c #CED4D5",
")  c #D5D4D1",
"_  c #D1D5D4",
"`  c #D0D5D6",
"'  c #D1D6D7",
"]  c #D2D6D5",
"[  c #D8D6D1",
"{  c #D8D6D2",
"}  c #D8D7D2",
"|  c #D9D7D3",
" . c #D8D6D2",
".. c #D7D9D6",
"X. c #D9D8D3",
"o. c #D9D8D4",
"O. c #D9DAD7",
"+. c #DAD9D4",
"@. c #D2D7D8",
"#. c #D4D8D8",
"$. c #D9DAD8",
"%. c #DADAD8",
"&. c #DCDCD9",
"*. c #DCDDDB",
"=. c #DFE0DF",
"-. c #E0E1DF",
";. c #E0E2E0",
":. c #E4E6E6",
">. c #E6E9E9",
",. c #E7E9EA",
"<. c #E7EAEA",
"1. c #E7E9E9",
"2. c #E8EAEB",
"3. c #E8EBEB",
"4. c #E8EBEC",
"5. c #E9ECEC",
"6. c #E9ECED",
"7. c #EAECED",
"8. c #EAEDED",
"9. c #EAECED",
"0. c #EDEFF0",
"q. c #EEF0F0",
"w. c #F0F2F2",
"e. c #FAFBFB",
"r. c #FCFCFC",
/* pixels */
"c b   c b <                   c t F   z c c c c c c b t     z c c c b   q g   z c c c c c b   G y v   z     z         , z c c c ",
"> @ @ > > < > > > > > > > > > > < < > > > > > > > > > < > > > > > > > > > < > > > > > > > > > < < > > > > > > > > > > < > > > O ",
"X   z       h h               h                         g           g h h                       g r                         x # ",
". z z 9   P I I P P P P P P P I P P P P P P P P P P P P I P P P P P I I I P P P P P P P P P P P I P P P P P P P P P P P   M d O ",
". z z A   S C S S S S S S S S S S S S S S S S S S S S S S S S S S S S S S S S S S S S S S S S S S S S S S S S S S S S S   C i , ",
". z c       A                                                                                                             A d , ",
". z c I   I     I I I I I I I I I I I I I I I I I I I I I I I I I I I I I I I I I I I I I I I I I I I I I I I I I     L S L m & ",
". z c Y I I   M S I I I I I I I I I I I I I I I I I I I I I I I I I I I I I I I I I I I I I I I I I I I I I I I S C   I S I j # ",
". c b U Y I   M M S I I I I I I I I I I I U U I I I I I I I I I I I I I I I I I I I I I I I U I I I I I I I I A M B A I I E s % ",
". z b U U I   M M M Z S S S S S S S S S S S S S S S S S S S S S S S S S S S S S S S S S S S S S S S S S S S A M M B A S I Y r % ",
". c b U U I   M M M M M                                                                                   M A C M B A L E U r % ",
". c b U ~ Y   M M M A A M                                                                               M A   C M B A I Y U r % ",
". z b ~ ( U   M M M     M M   C C C C C C C C C C C C C C C C C C C C C C C C C C C C C C C C C C C C M 5 C   C M B A Y ! Y r % ",
". z b ( ( U   M M M     B M 5 A M M M M M M M M M M M M M M M M M M M M M M M M M M B B M M M M M M 1 M B A   C M B A U ( Y r % ",
". z c ( &.U   M M M     M M M 4 M M M M M M M M M M B M M M M M M M B M M M M M M M M M M M M M M 1 M M M     C M B A U ( Y r % ",
". z c ( { ~   M M M     V M M 5 1 M M M M M M M M M M M M M M M M M M M M M M M M M M M M M M B 1 5 B M M     C M B A ! ( ~ f % ",
". z c ( { (   B M M     M M B M 5 4 M M M M M M M M M M M M M M M M M M M M M M M M M M M M M 4 5 M B M M     C M A K ( ( ( f % ",
". z c %.{ ( K M M M     M B B M M 4 5 y M A 5 5 A A 5 5 A 5 5 5 J 5 5 5 J 5 5 M A 5 5 A A M 5 4 M M B M M     C M A I ( %._ f % ",
". z c ( ;.( I A M M     M M M M M 5 C H A K C C     C C K A H C I C H C I C H A K C C     C C 1 M M B M M     C M A I ( X.( f % ",
". z c ( 7.O.I   B M     M M M M M 5   I   I             I   I   I   I   I   I   I             1 M M B M M     C B A Y ( O.( f + ",
". z b ( 7.{ I   M M     M M M M M 5   I   I             I   H   I   I   I   I   I             4 M M B M M     C M A U ( O.( f @ ",
". z b ( 7.{ Y   A M     M M M M M 5   I   I             I       I   I   I   I   I             5 M M B M M     C C   U _ X.( a + ",
". c b ( 7.{ U     B     M M B M M 5   I   I             I       I   I   I   I   I             5 M M B M M     C     U / { ( n ; ",
". c b ( 7.{ U     M     B B B M M 5   I   I             I       I   I   I   I   I             5 M M B M M     A     U / =.( l , ",
". c c ( 7.{ U     C     M M B M M 5   I   I             I       I   I   I   I   I             5 M M M M M         J Y / <._ f * ",
". c c ( 7.;.U           M M M M M 5   I   I             I       I   I   I   I   I             5 M M M M M         I Y / <._ f @ ",
". z c ( 7.7.U           M M M M M 5   I   I             I       I   I   I   I   I             5 M M B M M         I Y &.3._ f % ",
". z c ( 7.7.U           M M M M M 5   I   I             I       I   I   I   I   I             5 M M B M M C       I W <.7._ f % ",
". z c ( 7.7.U J         M M M M M 5   I   I             I       I   I   I   I   I             5 M M B M M C       I ( 4.7._ f % ",
". z c ( 7.7.U I         M M M M M 5   I   I             I       I   I   I   I   I             5 M M B M M         I ( 4.7._ f % ",
". z c ( 7.7.U I         M M M M M 5   I   I             I       I   I   I   I   I             5 M M B M B         I ( 3.7._ f % ",
". z c ( 7.7.W I         M M M M M 5   I   I             I       I   I   I   I   I             5 M M B M M         I ( 3.7._ f % ",
". c b _ 7.7.( I         C M M M M 5   I   I             I       I   I   I   I   I             5 M M B M C         U ( 3.7._ f % ",
". z b { 7.7.( I J       A M M M M 5   I   I             I       I   I   I   I   I             5 M M B M     H   H Y ( 3.7._ f % ",
". c b { 7.7.( I I       C C M M M 5   I   I             I       I   I   I   I   I             5 M M M M     I   I Y ( 3.7._ f % ",
". c b { 7.7.( I I           M M M 5   I   I             I       I   I   I   I   I             5 M M M C     I   I Y ( 3.7._ f % ",
". z b ..7.7.( I I   H H     M M M 5   I   I             I       I   I   I   I   I             5 M M B       I   I Y ( 3.7._ f % ",
". z b _ 7.7.( I I   I I     M M M 5   I   I             I       I   I   I   I   I             5 M M B       I   I Y ( 4.7._ f % ",
". z c ..7.7.( U I H I I     C M M 5   I   I             I       I   I   I   I   I             5 M M C       I H I Y ( 4.7._ l # ",
". z c _ 7.7.( U I I I I       M M 5   I   I             I       I   I   I   I   I             5 M M         I I I Y ( 4.7._ n @ ",
". p c { 7.7.( U I I I I       B M 5   I   I             I       I   I   I   I   I             5 M B         I I I Y ^ 7.7._ n $ ",
". u c { 7.7.( U I I I I       M M 5   I   I             I       I   I   I   I   I             5 M B         I I I Y ) <.7._ n , ",
". w c { w.7.( U I I I I       M M 5   I   I             I       I   I   I   I   I             4 M B       H I I I Y ) <.7._ a : ",
". e c {   7.( U I I I I       M M 5   I   I             I       I   I   I   I   I             1 5 B       I U I I Y / <.7._ k + ",
". z c {   7.( U I I U I       M M 5   I   I             I       I   I   I   I   I             1 M B       I Y I I Y / <.7._ a # ",
". z c )   7.( U I I U I       C M 5   I   I             I   D   I   I   I   I   I             1 B B       I Y I I Y / <.7._ f % ",
". z c #.e.7.( U U I U I         B 5   K   I             I   K   U   K   U   K   I     S       1 B         I Y I U Y ) <.7._ f % ",
". z c { 7.7.( U U I I I         B 5 C C C H C C C C C C H C C C H C C C H C C C H C C H C C C 4 B         I Y U U U / <.7._ f % ",
". c c { q.7.( U U I U U         C = = = = = = = = = = = = = = = = = = = = = = = = = = = = = = 2 C         I Y U U U / <.7._ f % ",
". c b {   7.( U U I U U     S A 2 - - - - - - - - - - - - - - - - - - - - - - - - - - - - - - - 2 C S     I Y U U U / <.7._ f % ",
". z c _ e.7.( U U I U U   S K 0 - 6 6 6 6 6 6 6 6 6 6 6 6 6 6 6 6 6 6 6 6 6 6 6 6 6 6 6 6 6 6 6 6 = J S   U Y U U U / <.7._ f % ",
". z b @.0.7.@.U U I U U S K 0 6 6 6 6 6 6 6 6 6 6 6 6 6 6 6 6 6 6 6 6 6 6 6 6 6 6 6 6 6 6 6 6 6 6 6 3 J S U U U U U / <.7._ f % ",
". z c {   7.{ U U I U U K 0 6 6 6 6 6 6 6 6 6 6 6 6 6 6 6 6 6 6 6 6 6 6 6 6 6 6 6 6 6 6 6 6 6 6 6 6 6 3 K Y U U U U / <.7._ f % ",
". z c ) r.7.{ U U U U L 0 6 6 6 6 6 6 6 6 6 6 6 6 6 6 6 6 6 6 6 6 6 6 6 6 6 6 6 6 6 6 6 6 6 6 6 6 6 6 6 7 L U U U ( X.<.7._ f % ",
". z c _ 8.7.{ U U U I 0 0 0 0 0 0 0 0 0 0 0 0 0 0 0 0 0 0 0 0 0 0 0 0 0 0 0 0 0 0 0 0 0 0 0 0 0 0 0 0 0 6 0 Q Y U ( O.<.7._ f % ",
". z c {   7.{ U U ( 0 0 0 0 0 0 0 0 0 0 0 0 0 0 0 0 0 0 0 0 0 0 0 0 0 0 0 0 0 0 0 0 0 0 0 0 0 0 0 0 0 0 0 0 0 I U / { <.7._ f % ",
". c c {   7.{ U ( N 8 8 8 8 8 8 8 8 8 8 8 8 8 8 8 8 8 8 8 8 8 8 8 8 8 8 8 8 8 8 8 8 8 8 8 8 8 8 8 8 8 8 8 8 8 0 ~ _ O.<.7._ f % ",
". c b )   7.{ ) N 8 8 8 8 8 8 8 8 8 8 8 8 8 8 8 8 8 8 8 8 8 8 8 8 8 8 8 8 8 8 8 8 8 8 8 8 8 8 8 8 8 8 8 8 8 8 8 N / <.7.7._   % ",
". c b ( 7.7.7.  8 8 8 8 8 8 8 8 8 8 8 8 8 8 8 8 8 8 8 8 8 8 8 8 8 8 8 8 8 8 8 8 8 8 8 8 8 8 8 8 8 8 8 8 8 8 8 8 8 N :.7.7.@.  % ",
". c b { 7.7.  8 8 8 8 8 8 8 8 8 8 8 8 8 8 8 8 8 8 8 8 8 8 8 8 8 8 8 8 8 8 8 8 8 8 8 8 8 8 8 8 8 8 8 8 8 8 8 8 N 8 N   <.7.O.  , ",
". c c {   I R R                                                                                                   T R   <._ n , ",
". > c   U 8 R R R R R R R R R R R R R R R R R R R R R R R R R R R R R R R R R R R R R R R R R R R R R R R R R R R R R R       % ",
". z c R R R R R R R R R R R R R R R R R R R R R R R R R R R R R R R R R R R R R R R R R R R R R R R R R R R R R R R R R R     % ",
". ,   v v v v v v v v v v v v v v v v v v v v v v v v v v v v v v v v v v v v v v v v v v v v v v v v v v v v v v v v v v v z o "
};
