/* XPM */
static char *result[] = {
/* columns rows colors chars-per-pixel */
"64 64 131 2 ",
"   c #09496D",
".  c #1C506B",
"X  c #0B577F",
"o  c #1E5979",
"O  c #225776",
"+  c #215B7D",
"@  c #77675A",
"#  c #786759",
"$  c #7B6B5E",
"%  c #796D63",
"&  c #7D7168",
"*  c #7E7E7E",
"=  c #816F63",
"-  c #847266",
";  c #897769",
":  c #86796F",
">  c #8E7B6D",
",  c #857B74",
"<  c #8B7E75",
"1  c #927F71",
"2  c #8B817C",
"3  c #968374",
"4  c #9B8777",
"5  c #93857C",
"6  c #9A8778",
"7  c #9E8B7C",
"8  c #A48F7E",
"9  c #0B5781",
"0  c #0A5884",
"q  c #1B5E82",
"w  c #225F80",
"e  c #1E658D",
"r  c #146795",
"t  c #1A6694",
"y  c #146897",
"u  c #12699A",
"i  c #186E9D",
"p  c #18719F",
"a  c #256284",
"s  c #246388",
"d  c #2E6A8B",
"f  c #326B8A",
"g  c #39708F",
"h  c #367191",
"j  c #126FA3",
"k  c #1673A3",
"l  c #1874A3",
"z  c #1E7AAC",
"x  c #1C75B1",
"c  c #2176A6",
"v  c #207AAB",
"b  c #6C95AC",
"n  c #7897A9",
"m  c #6A9FBB",
"M  c #79A2B8",
"N  c #848484",
"B  c #8A8784",
"V  c #878988",
"C  c #8C8C8C",
"Z  c #998C83",
"A  c #938F8C",
"S  c #9D9187",
"D  c #8F9396",
"F  c #8F9498",
"G  c #939393",
"H  c #9B9796",
"J  c #979897",
"K  c #929699",
"L  c #979D9F",
"P  c #9B9B9B",
"I  c #A79282",
"U  c #AA9584",
"Y  c #A2968C",
"T  c #B29A88",
"R  c #AA9D93",
"E  c #A19F9E",
"W  c #AFA195",
"Q  c #B4A69C",
"!  c #899BA4",
"~  c #979CA0",
"^  c #999CA1",
"/  c #86A7BC",
"(  c #92AAB6",
")  c #A4A4A4",
"_  c #ABA7A4",
"`  c #A8A8A7",
"'  c #ABABAB",
"]  c #BAADA3",
"[  c #B3B0AD",
"{  c #BEB2A8",
"}  c #B4B4B4",
"|  c #B8B5B3",
" . c #BBB9B7",
".. c #B5B7B8",
"X. c #BCBCBC",
"o. c #C0B3A7",
"O. c #C6BBB1",
"+. c #CBBEB6",
"@. c #C4C1BE",
"#. c #92B3C7",
"$. c #99B9CE",
"%. c #9CBED0",
"&. c #A1B8C2",
"*. c #ABBFC6",
"=. c #BEBFC0",
"-. c #9EC0D1",
";. c #B3C5CE",
":. c #A5C6D6",
">. c #A7C7D8",
",. c #A8C7D8",
"<. c #A7C8D9",
"1. c #AACCDD",
"2. c #B5C7D0",
"3. c #B7C8D1",
"4. c #BBCCD5",
"5. c #C4C4C3",
"6. c #C7C7C8",
"7. c #CCCCCC",
"8. c #CFD0D1",
"9. c #C4D4DD",
"0. c #D3D3D3",
"q. c #D9D7D6",
"w. c #D7D7D9",
"e. c #DBDBDB",
"r. c #E3E1DF",
"t. c #E2E2E3",
"y. c #E8E7E7",
"u. c #ECECED",
"i. c #EFEFF1",
"p. c #EFF0F1",
"a. c #F1F1F2",
/* pixels */
"x u l j 0 X r y r y y u y y u t d s r u u u j u u u q d s u u u u u u w d s u j u u u u u u w d t y u y y y y y y y 9 X j i y c ",
"O   r y y r r r r r y y r y r t r r r r r r r u r r r y y y y r r u r u u u r r r u u r r r r u r r r r r y r r r y y y r t   . ",
"s 9 b D F ~ ~ ^ ~ ~ ~ ~ ~ ~ L ^ ~ ~ ~ L ~ ~ ~ ~ ~ ^ ^ ^ ~ ~ ~ ~ ~ ~ ~ ~ ~ ^ ^ J ~ ~ ~ ~ ~ ^ ^ ~ ^ ^ ^ ~ ~ ~ ~ ~ ^ ~ ~ F G n 9 + ",
"g 0 / P J ) [ ' [ [ ' [ ' [ [ ' } ' ' [ [ [ ' ' } ' ' [ [ ' [ ' ' [ [ ' } ' ' [ [ ' [ [ ' ' [ [ } ' [ ' [ ' } ' ' [ ' J P ( 9 f ",
"s 9 #.W D G P ) ) ` ` ` ) ` ` ) ` ` ) ` ) ` ` ` ) ) ` ` ` ) ` ` ` ` ` ` ) ` ` ) ` ` ) ` ` ) ` ` ) ` ` ` ) ` ) ` ) E G A ) &.0 w ",
"+ 9 $.' G K G J ^ E P E ^ E E ^ ^ E E ^ ^ P E ^ E ^ ^ E E P E ^ ^ P E ^ ^ ^ ^ E ^ E P E ^ E P ^ ^ ^ ^ E E P E P P C G G ` *.0 o ",
"s 0 %.[ G G J G H P P ^ P P ^ E P P E P E P ^ P ^ ^ E P P P E P P E E P P P E P E P P P E P ^ P P E P P P ^ E P C J G G [ ;.9 + ",
"s 0 -.;.G G G G C P P P P P P P P P P P P P P P P P P P P P P P P P P P P P P P P P P P P P P P P P P P P P P C G G D G =.*.9 w ",
"w 0 %.6.^ G G G C C J H H P J P P P G P K P P H P P H H J P H H H L H H H P J P J J P K H J P P P J P H H H C G G G G H 5.2.9 + ",
"s 0 :.7.) G G G D A V J J J J J H H P J G H G H G G P P J J J H J H J J J J J J J P P H P H J J G P G H G V C C G G D ^ 6.2.9 + ",
"s 0 :.0.` G P G C C C N G G D D G G C G G D G G G D G G D D D G G D G G D D G D G G D G G G G G G D D G N C G G G J G ) 8.2.9 + ",
"s 0 %.w.' P G G A D G V * C C A C D C A G C C G G C C C G C D C C C D A A C A A C G C C C C G C C G C N V C C C G G G [ 0.3.X + ",
"s 0 >.w.} P G G G C C C V * C C C C C C C C C C C C C C C C C C C C C C C C C C C C C C C C C C C C * V V C G G G G P [ 0.3.9 + ",
"s 0 %.e.} ) H G C G C C V N * C C C C C C C C C C C C V V C C C C C C C C C C C C V C C C C C C C * N C V A C D G J ^ ..q.4.9 + ",
"s 0 ,.e.X.` H G A G C C V V N * N N N N N N N V N N N N N V N N N N N N N N N N N N N N N N N N * N N C V C C G G H )  .e.3.X + ",
"s 0 %.t.=.' ^ G G C C C C C N * * N N N N N N N N N N N N N N N N N N N N N N N N N N N N N N * * N N V V C C G G P ` X.e.4.X + ",
"s 0 ,.t.5.' ) K G C C C C C N N * V E K H H K H P P H H P P J P J J H H H P P P P ^ J H H H C * * N N C V A C G G E ' =.r.4.9 w ",
"s 0 %.t.5.} ) H C G C C B C N N N * C C ` G C C ' V C D ' V A H ^ C A ^ J C C ) D C C ' C G * * N N N V C C C D H ) [ =.t.3.9 + ",
"s 0 ,.t.5...' ^ C C A C C V N N N N ) ^ ' H ' ^ ' ^ ` J ' P ) ^ ` ^ ) ) ^ ) E ` P ` P ' ^ ` V * N N N C V C A G H ) } 5.t.3.9 + ",
"s 0 ,.y.6...[ E D C C C B V V N * N ) ^ ' ^ ` H ' P ` P ' P ) ) ` E ) ) E ) P ' P ` P ' H ' V * * N N C V C C D ^ ' ..6.t.3.9 + ",
"w 0 :.t.6.X.[ ) G G C C B C N N * N ) E ' ^ ` H ' P ` P ' P ` E ` P ) ) P ) P ` P ` H ' P ` N * N N N C B C C G ) ' ..6.y.4.9 + ",
"d 0 >.y.7.=.} ) K C A C V C N N N N ) P ' H ' H ' P ` J ' P ` ^ ) ^ ) ) E ) P ` P ` P ' ^ ) N * N N N C C C C H ) ' X.6.y.3.9 w ",
"d 0 >.y.7.=.} ) H G C C C V N N * N E ^ ' P ' K ' P ' H ' P ) E ` ^ E ) ^ ) ^ ` ^ ' P ' H ' V * * N N V V C C H ` } =.7.y.4.0 f ",
"w 0 <.y.7.=...[ ^ K C C V V B N N N ) ^ ' P ' H ' P ` P ' P ` E ) P ) ) E ) E ` P ) P ' P ' V * N N N C C C G ^ ` ..+.7.y.4.0 + ",
"w 0 ,.u.8.@. .[ ^ G C C C N N N * N ) P ' P ` H ' P ) P ' P ` ^ ) E ) ) P ) P ` P ` P ' P ` N * N N N V C C G P ' ..X.7.u.4.X o ",
"e 0 %.u.8.5.X.[ ) H G C N C B N N N ) P ` P ` P ' P ` J ' P ` E ) P E ) ^ ) E ` ^ ) P ' P ` V * N N N C N C J ) '  .5.8.u.4.9 + ",
"s 0 1.u.8.6.=.} ) P D C C V V N N N ) P ' P ' P ' P ` P ' P ` ^ ` E ) ) E ) P ` P ` P ' H ` N * * N N C C A H ) } ..5.8.u.4.X + ",
"s 0 %.u.8.6.=.} ) E G C V C N N * N ) P ' ^ ) G ' ^ ` J ' P ` ) ) ^ ) ) E ) P ` ^ ) P ' P ` V * N N N V C D P ) } X.6.8.u.4.X + ",
"s 0 ,.u.0.7.=.} ` E H C V V N N N N ) P ` P ' P ' P ` P ' ^ ` ^ ) L E ) E ) ~ ` P ` P [ P ` C * * N N C V J P ` } =.6.0.u.4.X o ",
"s 0 %.u.0.6.5. .' ) H C C V N N * N ) P ' P ) J ' P ) P ' P ) E ) ~ ) ) E ) ^ ` ^ ` H ' P ' N * N N N V V P ) ` ..+.6.0.u.4.X + ",
"s 0 ,.u.w.7.5...' ) ^ G V C N N N N ) E ' P ` P ' P ` J ' P ) E ) ) ) ) W ) P ` P ` J [ H ' N * N N V C C P ) ' ..;.6.0.u.4.X + ",
"s 0 ,.i.w.7.5.X.[ ) P D V V N N N N E ^ ' P ` H [ K ' H [ P ) ^ ) P ) ) ^ ) ^ ` ^ ) P ' P ) V * * N N V C H ) [ | @.6.0.u.4.X + ",
"w 0 :.u.q.7.6.X.[ ) E G C V N N N * ) ^ ' P ` P ' P ` J ' P ` P ) P ) ) L ) L ` P ` P ' P ' V * N N N V G E ) ' =.5.7.w.u.4.9 + ",
"s 0 ,.u.0.7.6.=.' ' ) H C V N N * N ) P ` ^ ` G ' P ` P ' P ) ) ) ) E ) E ) P ` P ` H ' P ) V * N N V C H ^ ` [ =.5.7.0.u.4.9 + ",
"s 0 ,.u.w.8.6.@.} ' ) P G B N N N N ) P ' P ' P ' P ` P ' P ) E ) E ) ) P ) P ` P ` ^ ' P ' N * N N N G K ^ ' [ X.5.7.w.u.4.X + ",
"s 0 ,.i.q.8.6.=.} [ ) P D C N N N N ) P ' P ) P ' P ` P ' P ` E ) P ) ) E ) E ` ^ ) P ' P ) N * * N N G H ) ' } =.6.7.w.i.4.X + ",
"s 0 <.i.w.8.7.=.} ' ) ^ G C N N * N ) P ' P ) J ' P ` J ' P ` ^ ) P ) ) E ) ~ ` P ` P [ P ` V * N N V G H ) '  .5.6.0.0.i.4.X + ",
"s 0 :.i.e.8.7.5...' ' ) H C V N N N ) E ' P ` P ' P ` P ' P ` E ` ~ ) ) E ) ^ ` P ` H ' H ' V * * N G G ^ ) ' ..5.6.7.q.i.4.X + ",
"w 0 :.i.e.8.7.5...[ ' ^ G D V N * N E ^ ' P ) P ' J ` J ' P ` ^ ) ^ ^ ) ^ ) P ` P ` P ' P ' V * N N A K ^ ` ' X.@.6.8.q.i.4.X + ",
"s 0 :.i.e.0.7.5. .} ' ) H G C N N N ) E ' P ` ^ ' P ` P ' P ` E ) E ) ) W ) E ` ^ ) P ' P ) N * N V G H E ` [ ..5.7.0.q.a.4.X + ",
"h 0 ,.u.e.0.7.6. .} ' ) K G C N * N ) P ' P ` P ' P ` J ' P ` ^ ) E ) ) E ) L ` P ` P ' P ` N * N C G P ) ` [ X.5.6.8.e.p.4.9 f ",
"s 0 ,.u.e.0.8.6.X...[ ) P J C N N N ) E ` P ` H ' P ` P ' P ` E ) E E ) P ) P ` ^ ` P ' P ` V * N C G P E ' } X.5.7.0.e.a.4.0 + ",
"w 0 ,.i.e.0.8.6.=...[ ) ^ H C V N N ) P ' P ` J ' P ` J ' P ` E ) P ) ) E ) ^ ` P ` P ' P ` V * N C J ^ ) ' } X.6.7.0.e.a.4.0 o ",
"s 0 >.i.e.0.8.6.=...' ) E P D V * N ) P ` ^ ` P ' P ` H ' ^ ` ^ ) L ) ) E ) E ` P ` P ' P ` V * V C J ^ ` ' } X.6.7.0.e.a.4.9 + ",
"s 0 ,.u.e.q.8.6.=. .[ ` E P G C N N ) E ' P ) P ' P ` L ' P ` E ` P ) ) P ) E ` P ` P ' P ` V * C G J ) ` ' ..=.6.8.0.e.a.4.9 + ",
"s 0 ,.i.e.q.0.7.=. .} ' ) ^ G V N N ) ^ ' P ` G ' P ` P ' L ) P ` E ) ) P ) ^ ` P ` P ' P ) N * V G F W ` [ ..=.6.8.0.e.a.4.X + ",
"s 0 ,.p.e.q.0.6.=. .} ' E ^ G A V V ^ ^ [ ^ ) P ' P ) P [ P ) E ` L E ` ) ^ P ' ^ ) P [ P ) V N C G L E ' [  .X.6.8.q.e.a.4.X + ",
"s 0 ,.a.e.q.0.7.=. .} ' ) ) J G V , 2 2 < 2 2 < 2 2 2 2 2 2 2 2 2 2 2 2 < 2 2 2 2 2 2 2 2 2 , B C J L ) ' [ ..@.7.8.0.r.a.4.X + ",
"s 0 >.p.r.w.0.7.;. ...' ) W K G $ # # # # @ # # # # # # @ @ @ @ # # # # # # # # # # # # # # # $ A J P ) ` | X.@.6.0.q.e.a.4.0 + ",
"s 0 >.p.r.w.0.7.@. ...[ ) ) P & $ $ $ $ $ $ $ $ $ $ $ $ $ $ $ $ $ $ $ $ $ $ $ $ $ $ $ $ $ $ $ $ & H ^ ` ' ..X.=.6.0.w.e.a.4.X + ",
"s 0 >.a.e.w.0.7.5.@...' ` ) , = = = = & & & = = = = & = = = = = & = = = - & - $ - & = = & = % = = : E ' ' ..X.5.7.0.0.r.a.4.X + ",
"s 0 >.p.r.w.0.8.5.X...} ' < - - - - - - - - - - - - - - - - - - - - - - - - - - - - - - - = - - - - : _ ' ..X.5.7.0.e.e.a.4.X + ",
"s 0 >.i.r.w.0.7.6.+.X.| 5 ; ; ; ; ; ; ; ; - ; ; ; ; ; ; ; ; ; ; ; ; ; ; ; ; ; ; ; ; ; ; - ; ; - ; ; ; < [ | X.5.7.0.w.e.a.4.0 + ",
"s 0 >.a.r.e.0.8.3.X.X.Z > > > > ; ; > > ; 3 ; ; > > > > > > > > > > > > ; ; > > > > > > 3 ; 3 ; > > > > 5  .+.6.7.0.w.r.a.4.X + ",
"s 0 >.i.r.w.0.8.6.@.Z 1 1 1 1 1 3 3 ; 3 3 3 3 3 1 1 1 1 1 1 1 1 1 1 1 1 > 3 3 > 3 > 3 3 3 ; 3 3 1 1 1 1 3 Z @.6.8.0.q.r.a.4.X + ",
"s 0 >.i.t.w.w.8.7.Y 3 3 3 3 3 3 3 3 3 3 3 3 3 3 3 3 3 3 3 3 3 3 3 3 3 3 3 3 3 3 3 3 3 3 3 3 3 3 3 3 3 3 3 3 Z 7.8.0.e.t.a.4.X + ",
"s 0 >.a.r.e.w.0.R 4 4 4 4 4 6 6 7 4 4 4 4 4 4 4 6 4 4 4 6 6 6 6 4 4 4 6 6 6 6 6 6 6 6 6 6 6 4 4 4 4 4 4 4 4 4 Y 0.0.e.r.a.4.0 + ",
"s 0 >.p.r.e.t.Q 4 8 7 8 7 7 7 7 7 7 7 7 7 7 7 7 7 7 7 7 7 7 7 7 7 7 7 7 7 7 7 7 7 7 7 7 7 7 7 7 7 7 7 8 7 7 7 7 R r.e.r.a.4.X + ",
"d 0 <.a.r.y.] 8 8 8 8 8 8 8 8 8 8 8 8 8 8 8 8 8 8 8 8 8 8 8 8 8 8 8 8 8 8 8 8 8 7 8 8 8 8 8 8 8 8 8 8 8 8 8 8 8 8 W r.r.a.4.0 + ",
"d 0 <.p.u.{ U U I I I I I I I I 8 S U U U U U S I U I I U I U U I I U 8 I U I U U U U U U U U S U U U 8 U 8 U 8 8 U Q y.a.4.0 f ",
"a 0 <.a.O.U U U T U U U U U U T T U U T U U T U U U U U U T U U U U T U U U U T T U U U U T U U U U U U T U U T U U T ] a.9.0 a ",
"a 0 1.+.T T T T T T T T T T T T T T T T T T T T T T T T T T T T T T T T T T T T T T T T T T T T T T T T T T T T T T T T o.9.0 o ",
"+ 9 m ! ! ! ! ! ! ! ! ! ! ! ! ! ! ! ! ! ! ! ! ! ! ! ! ! ! ! ! ! ! ! ! ! ! ! ! ! ! ! ! ! ! ! ! ! ! ! ! ! ! ! ! ! ! ! ! ! ! M X O ",
"w q v z p p l l l l l l l l l l k l l l l l l l l l l l l l l l l l k k k k l l l l l l l l l l l l l l l l l l l l p i v c e O "
};
