/* XPM */
static char *result[] = {
/* columns rows colors chars-per-pixel */
"64 64 228 2 ",
"   c black",
".  c #060809",
"X  c #070909",
"o  c #070A0B",
"O  c #0A0D0D",
"+  c #070817",
"@  c #0B1011",
"#  c #0D1011",
"$  c #05141C",
"%  c #05161D",
"&  c #08171D",
"*  c #0C181D",
"=  c #11191A",
"-  c #141A1B",
";  c #17252C",
":  c #002A3C",
">  c #002C3E",
",  c #161946",
"<  c #002E41",
"1  c #032E41",
"2  c #093648",
"3  c #1C3641",
"4  c #0E4156",
"5  c #1F4756",
"6  c #254956",
"7  c #2B4952",
"8  c #354B51",
"9  c #3A4951",
"0  c #3E4E52",
"q  c #004F71",
"w  c #005477",
"e  c #005679",
"r  c #3C626F",
"t  c #21637C",
"y  c #586F74",
"u  c #586F75",
"i  c #5F777E",
"p  c #5F787E",
"a  c #990030",
"s  c #ED1C24",
"d  c #0076A8",
"f  c #0578A9",
"g  c #3F47CC",
"h  c #3F48CC",
"j  c #3557D1",
"k  c #3559D4",
"l  c #385FD4",
"z  c #1B7CDC",
"x  c #2D61D2",
"c  c #2C64D5",
"v  c #246ED8",
"b  c #2C68DB",
"n  c #3969DA",
"m  c #2B7DD4",
"M  c #267ADC",
"N  c #357AE2",
"B  c #4251CF",
"V  c #5B74D5",
"C  c #5B75D5",
"Z  c #1C85B3",
"A  c #1B87B9",
"S  c #66919C",
"D  c #67929D",
"F  c #488DA9",
"G  c #498DA9",
"H  c #518ABF",
"J  c #4C94B3",
"K  c #5897B0",
"L  c #7E9FA8",
"P  c #0089C4",
"I  c #008CC8",
"U  c #1683DE",
"Y  c #0092D1",
"T  c #0095D6",
"R  c #3993C7",
"E  c #3B80DF",
"W  c #21A1D7",
"Q  c #22A0D7",
"!  c #2AA2D5",
"~  c #1B85E8",
"^  c #059CE6",
"/  c #1390EE",
"(  c #1391EE",
")  c #1097F1",
"_  c #3385E6",
"`  c #2E9DF0",
"'  c #00A2E8",
"]  c #00A3E9",
"[  c #00A4EA",
"{  c #03A4EA",
"}  c #07A0EF",
"|  c #00A6ED",
" . c #0BAAEE",
".. c #0DA8EF",
"X. c #0CABEF",
"o. c #12AAEC",
"O. c #1EADE9",
"+. c #1CAEEE",
"@. c #05A6F4",
"#. c #00A8F1",
"$. c #00AAF3",
"%. c #00ADF7",
"&. c #05AAFA",
"*. c #00ADF8",
"=. c #07AFF8",
"-. c #1AADF9",
";. c #00B1FD",
":. c #08B3FD",
">. c #0BB5FE",
",. c #0CB5FD",
"<. c #0EB6FE",
"1. c #1BB4F6",
"2. c #11B6FE",
"3. c #18B6FB",
"4. c #1EB7F9",
"5. c #15B8FE",
"6. c #1FB9FB",
"7. c #1BB9FE",
"8. c #1CBAFE",
"9. c #1FBAFE",
"0. c #21A9E3",
"q. c #24B3EF",
"w. c #2EB3EB",
"e. c #33B4EA",
"r. c #21A2F3",
"t. c #25B3F0",
"y. c #2EB7F2",
"u. c #2AB2F9",
"i. c #21BBFE",
"p. c #24BBFC",
"a. c #24BCFD",
"s. c #25BDFE",
"d. c #24BDFF",
"f. c #27BEFF",
"g. c #28BEFF",
"h. c #2CBFFF",
"j. c #39BBF4",
"k. c #3ABBF6",
"l. c #6585D9",
"z. c #648ADB",
"x. c #6292DE",
"c. c #739CDD",
"v. c #60A7C3",
"b. c #4983E2",
"n. c #5282E2",
"m. c #499BE9",
"M. c #5999E9",
"N. c #45A2EC",
"B. c #51A0E3",
"V. c #5DA4ED",
"C. c #41B9E9",
"Z. c #42BDEF",
"A. c #43ACF0",
"S. c #65BCF6",
"D. c #35C0FA",
"F. c #33C1FF",
"G. c #36C2FF",
"H. c #38C0F9",
"J. c #39C3FF",
"K. c #3BC4FF",
"L. c #3EC5FE",
"P. c #3FC5FF",
"I. c #6EC2DF",
"U. c #57C2EB",
"Y. c #59C2E9",
"T. c #58C1EB",
"R. c #5FC6EE",
"E. c #47C6F9",
"W. c #45C7FF",
"Q. c #46C7FE",
"!. c #4EC5F8",
"~. c #48C7FE",
"^. c #49C8FF",
"/. c #4FCAFF",
"(. c #4FCBFF",
"). c #53C4F1",
"_. c #5FCBF5",
"`. c #59CDFF",
"'. c #5BCEFF",
"]. c #5CCEFF",
"[. c #61C8EF",
"{. c #6BC8E9",
"}. c #7FD0EB",
"|. c #7DD2EF",
" X c #63CCF7",
".X c #65CDF6",
"XX c #68CEF5",
"oX c #63CEFA",
"OX c #69CAFB",
"+X c #61D0FF",
"@X c #65D1FF",
"#X c #6CD3FF",
"$X c #6DD3FF",
"%X c #6CD4FF",
"&X c #76D1F0",
"*X c #70D1F7",
"=X c #7AD1F0",
"-X c #7ED4F0",
";X c #7ED7FB",
":X c #80B1E2",
">X c #80B6E3",
",X c #81D0EA",
"<X c #82D1ED",
"1X c #8DD5EE",
"2X c #92D7EB",
"3X c #96D9EB",
"4X c #99D9EA",
"5X c #9DDBEB",
"6X c #9ADAEC",
"7X c #86D7F4",
"8X c #8BD7F0",
"9X c #8CD7F0",
"0X c #8DD9F3",
"qX c #8ED8F3",
"wX c #95D9F3",
"eX c #98DBF1",
"rX c #9EDEF4",
"tX c #A8D3EB",
"yX c #A9D4ED",
"uX c #A1DCEE",
"iX c #A7DEED",
"pX c #A0DFF3",
"aX c #A6DFF1",
"sX c #B2E2EF",
"dX c #B3E3EF",
"fX c #B4E3EF",
"gX c #A8E0F0",
"hX c #B5E4F1",
/* pixels */
"h h h h h h M.#X#X#X#X#XS.h h h h h h ) ;.;.;.;.;.<.g.g.g.g.g.f.2X4X4X4X4X4X_.g.g.g.g.g.d.;.;.;.;.;.;.b h h h h h n g.g.g.g.g.g.",
"h h h h h h M.#X#X#X#X#XS.h h h h h h ) ;.;.;.;.;.<.g.g.g.g.g.f.2X4X4X4X4X4X_.g.g.g.g.g.d.;.;.;.;.;.;.b h h h h h n g.g.g.g.g.g.",
"h h h h h h M.#X#X#X#X#XS.h h h h h h ) ;.;.;.;.;.<.g.g.g.g.g.f.2X4X4X4X4X4X_.g.g.g.g.g.d.;.;.;.;.;.;.b h h h h h n g.g.g.g.g.g.",
"h h h h h h M.#X#X#X#X#XS.h h h h h h ) ;.;.;.;.;.<.g.g.g.g.g.f.2X4X4X4X4X4X_.g.g.g.g.g.d.;.;.;.;.;.;.b h h h h h n g.g.g.g.g.g.",
"h h h h h h M.#X#X#X#X#XS.h h h h h h ) ;.;.;.;.;.<.g.g.g.g.g.f.2X4X4X4X4X4X_.g.g.g.g.g.d.;.;.;.;.;.;.b h h h h h n g.g.g.g.g.g.",
"h h h h h h M.#X#X#X#X#XS.h h h h h h ) ;.;.;.;.;.<.g.g.g.g.g.f.2X4X4X4X4X4X_.g.g.g.g.g.d.;.;.;.;.;.;.b h h h h h n g.g.g.g.g.g.",
"z z z z z z E n.n.n.n.n.b.~ ~ ~ ~ ~ ~ } #.#.#.#.#.1./././././.(.z.l.l.l.l.l.N.g.g.g.g.g.a.#.#.#.#.#.#.B.c.c.c.c.c.x.N N N N N N ",
"' ' ' ' ' ' v h h h h h k ;.;.;.;.;.;.| ' ' ' ' ' t.#X#X#X#X#X%XB h h h h h _ g.g.g.g.g.p.' ' ' ' ' ' {.4X4X4X4X4X:Xh h h h h h ",
"' ' ' ' ' ' v h h h h h k ;.;.;.;.;.;.| ' ' ' ' ' t.#X#X#X#X#X%XB h h h h h _ g.g.g.g.g.p.' ' ' ' ' ' {.4X4X4X4X4X:Xh h h h h h ",
"' ' ' ' ' ' v h h h h h k ;.;.;.;.;.;.| ' ' ' ' ' t.#X#X#X#X#X%XB h h h h h _ g.g.g.g.g.p.' ' ' ' ' ' {.4X4X4X4X4X:Xh h h h h h ",
"' ' ' ' ' ' v h h h h h k ;.;.;.;.;.;.| ' ' ' ' ' t.#X#X#X#X#X%XB h h h h h _ g.g.g.g.g.p.' ' ' ' ' ' {.4X4X4X4X4X:Xh h h h h h ",
"' ' ' ' ' ' v h h h h h k ;.;.;.;.;.;.| ' ' ' ' ' t.#X#X#X#X#X%XB h h h h h _ g.g.g.g.g.p.' ' ' ' ' ' {.4X4X4X4X4X:Xh h h h h h ",
"o.o.o.o.o.o.M j j j j j x T T T T T T I P P P P P W +X+X+X+X+X+Xl j j j j j m Q Q Q Q Q Q Q P P P P P I.5X5X5X5X5X>Xj j j j j j ",
"#X#X#X#X#X#Xy.' ' ' ' ' P           a a a         4 g.g.g.g.g.g.{ ' ' ' ' ' q               s s s     L fXfXfXfXfX<X' ' ' ' ' ' ",
"#X#X#X#X#X#Xy.' ' ' ' ' P       a a a a a s a     4 g.g.g.g.g.g.{ ' ' ' ' ' q       s s a a s   a     L fXfXfXfXfX<X' ' ' ' ' ' ",
"#X#X#X#X#X#Xy.' ' ' ' ' P s s s   s a s a a a     4 g.g.g.g.g.g.{ ' ' ' ' ' q   s   a s   a a s s a   L fXfXfXfXfX<X' ' ' ' ' ' ",
"#X#X#X#X#X#Xy.' ' ' ' ' P       a a a s s a s s   4 g.g.g.g.g.g.{ ' ' ' ' ' q s   a a a   a   a a   a L fXfXfXfXfX<X' ' ' ' ' ' ",
"#X#X#X#X#X#Xy.' ' ' ' ' P   a a a   s   a a a a a 4 g.g.g.g.g.g.{ ' ' ' ' ' q   a s a a a s s   a s a L fXfXfXfXfX<X' ' ' ' ' ' ",
"#X#X#X#X#X#Xy.' ' ' ' ' P     a a s   s a a a s   4 g.g.g.g.g.g.{ ' ' ' ' ' q s a a a   a s s s   a a L fXfXfXfXfX<X' ' ' ' ' ' ",
"J.J.J.J.J.J.3.*.*.*.*.*.Y s a s a s   s s a a s   5 '.'.'.'.'.].=.*.*.*.*.*.w   s s a a   a a a   a s K ;X;X;X;X;XoX4.4.4.4.4.4.",
"g.g.g.g.g.g.2.;.;.;.;.;.Q   a s a s a s     s a a 5 #X#X#X#X#X$X:.;.;.;.;.;.e     a a a a a a s s a a J #X#X#X#X#X`.g.g.g.g.g.g.",
"g.g.g.g.g.g.2.;.;.;.;.;.T   a   a s a   s a     a 6 #X#X#X#X#X$X:.;.;.;.;.;.e a s a s a   s a   a s a J #X#X#X#X#X`.g.g.g.g.g.g.",
"g.g.g.g.g.g.2.;.;.;.;.;.T   a     a   s a a s a   6 #X#X#X#X#X$X:.;.;.;.;.;.e       a a a s a a a s   J #X#X#X#X#X`.g.g.g.g.g.g.",
"g.g.g.g.g.g.2.;.;.;.;.;.T   a s a a a a s a       6 #X#X#X#X#X$X:.;.;.;.;.;.e     a s     s   a       J #X#X#X#X#X`.g.g.g.g.g.g.",
"g.g.g.g.g.g.2.;.;.;.;.;.T     s   a   a a s a     6 #X#X#X#X#X$X:.;.;.;.;.;.e         a s a           J #X#X#X#X#X`.g.g.g.g.g.g.",
"7.7.7.7.7.7.i.s.s.s.s.s.0.4 4 4 4 4 4 7 8 8 8 8 8 r F F F F F G f d d d d d t 0 0 0 0 0 9 , , , , , , R ~.~.~.~.~.Q.P.P.P.P.P.P.",
";.;.;.;.;.;.L.#X#X#X#X#X+Xg.g.g.g.g.g.|.4X4X4X4X4XS                         i fXfXfXfXfXtXh h h h h h ( ;.;.;.;.;.9.#X#X#X#X#X#X",
";.;.;.;.;.;.L.#X#X#X#X#X+Xg.g.g.g.g.g.|.4X4X4X4X4XS                         i fXfXfXfXfXtXh h h h h h ( ;.;.;.;.;.9.#X#X#X#X#X#X",
";.;.;.;.;.;.L.#X#X#X#X#X+Xg.g.g.g.g.g.|.4X4X4X4X4XS                         i fXfXfXfXfXtXh h h h h h ( ;.;.;.;.;.9.#X#X#X#X#X#X",
";.;.;.;.;.;.L.#X#X#X#X#X+Xg.g.g.g.g.g.|.4X4X4X4X4XS                         i fXfXfXfXfXtXh h h h h h ( ;.;.;.;.;.9.#X#X#X#X#X#X",
";.;.;.;.;.;.L.#X#X#X#X#X+Xg.g.g.g.g.g.|.4X4X4X4X4XS                         i fXfXfXfXfXtXh h h h h h ( ;.;.;.;.;.9.#X#X#X#X#X#X",
";.;.;.;.;.;.L.#X#X#X#X#X+Xg.g.g.g.g.g.-X6X6X6X6X6XD                         p hXhXhXhXhXyXg g g g g g / ;.;.;.;.;.9.#X#X#X#X#X#X",
"] ] ] ] ] ] U.3X3X3X3X3X}.{ { { { { { 2 @ @ @ @ @ o                         X # # # # # ; OXOXOXOXOXOXwXgXgXgXgXgX7Xh.h.h.h.h.h.",
"' ' ' ' ' ' Y.4X4X4X4X4X,X' ' ' ' ' ' :                                                 * #X#X#X#X#X#XrXfXfXfXfXfX0Xg.g.g.g.g.g.",
"' ' ' ' ' ' Y.4X4X4X4X4X,X' ' ' ' ' ' :                                                 * #X#X#X#X#X#XrXfXfXfXfXfX0Xg.g.g.g.g.g.",
"' ' ' ' ' ' Y.4X4X4X4X4X,X' ' ' ' ' ' :                                                 * #X#X#X#X#X#XrXfXfXfXfXfX0Xg.g.g.g.g.g.",
"' ' ' ' ' ' Y.4X4X4X4X4X,X' ' ' ' ' ' :                                                 * #X#X#X#X#X#XrXfXfXfXfXfX0Xg.g.g.g.g.g.",
"' ' ' ' ' ' Y.4X4X4X4X4X,X' ' ' ' ' ' :                                                 * #X#X#X#X#X#XrXfXfXfXfXfX0Xg.g.g.g.g.g.",
"$.$.$.$.$.$.[.iXiXiXiXiX1X$.$.$.$.$.$.>                                                 & ^.^.^.^.^.^.).T.T.T.T.T.R.*X*X*X*X*X*X",
";.;.;.;.;.;.XXfXfXfXfXfXeX;.;.;.;.;.;.<                                                 % g.g.g.g.g.g.X.' ' ' ' ' e.fXfXfXfXfXfX",
";.;.;.;.;.;.XXfXfXfXfXfXeX;.;.;.;.;.;.<                                                 % g.g.g.g.g.g.X.' ' ' ' ' e.fXfXfXfXfXfX",
";.;.;.;.;.;.XXfXfXfXfXfXeX;.;.;.;.;.;.<                                                 % g.g.g.g.g.g.X.' ' ' ' ' e.fXfXfXfXfXfX",
";.;.;.;.;.;.XXfXfXfXfXfXeX;.;.;.;.;.;.<                                                 % g.g.g.g.g.g.X.' ' ' ' ' e.fXfXfXfXfXfX",
";.;.;.;.;.;.XXfXfXfXfXfXeX;.;.;.;.;.;.<                                                 % g.g.g.g.g.g.X.' ' ' ' ' e.fXfXfXfXfXfX",
",.,.,.,.,.,..XaXaXaXaXaXqX,.,.,.,.,.,.1           . = = = = = = - - - - - - O           $ u.u.u.u.u.u...[ [ [ [ [ w.uXuXuXuXuXuX",
"#X#X#X#X#X#XW.g.g.g.g.g.F.#X#X#X#X#X#X3           8 4X4X4X4X4X4XdXfXfXfXfXfXu           + h h h h h h ( ;.;.;.;.;.%.' ' ' ' ' ' ",
"#X#X#X#X#X#XW.g.g.g.g.g.F.#X#X#X#X#X#X3           8 4X4X4X4X4X4XsXfXfXfXfXfXy           + h h h h h h ( ;.;.;.;.;.%.' ' ' ' ' ' ",
"#X#X#X#X#X#XW.g.g.g.g.g.F.#X#X#X#X#X#X3           8 4X4X4X4X4X4XsXfXfXfXfXfXy           + h h h h h h ( ;.;.;.;.;.%.' ' ' ' ' ' ",
"#X#X#X#X#X#XW.g.g.g.g.g.F.#X#X#X#X#X#X3           8 4X4X4X4X4X4XsXfXfXfXfXfXy           + h h h h h h ( ;.;.;.;.;.%.' ' ' ' ' ' ",
"#X#X#X#X#X#XW.g.g.g.g.g.F.#X#X#X#X#X#X3           8 4X4X4X4X4X4XsXfXfXfXfXfXy           + h h h h h h ( ;.;.;.;.;.%.' ' ' ' ' ' ",
"#X#X#X#X#X#XW.g.g.g.g.g.F.#X#X#X#X#X#X3           8 4X4X4X4X4X4XsXfXfXfXfXfXy           + h h h h h h ( ;.;.;.;.;.%.' ' ' ' ' ' ",
"8X8X8X8X8X8XZ.X.X.X.X.X.t.rXrXrXrXrXrXv.J J J J J H C C C C C V k.H.H.H.H.H.! Z Z Z Z Z A ( ( ( ( ( ( -.8.8.8.8.8.r.c c c c c c ",
"4X4X4X4X4X4XC.' ' ' ' ' O.fXfXfXfXfXfX;X#X#X#X#X#XV.h h h h h g &.;.;.;.;.;.5.g.g.g.g.g.d.;.;.;.;.;.;.8.g.g.g.g.g.` h h h h h h ",
"4X4X4X4X4X4XC.' ' ' ' ' O.fXfXfXfXfXfX;X#X#X#X#X#XV.h h h h h g &.;.;.;.;.;.5.g.g.g.g.g.d.;.;.;.;.;.;.8.g.g.g.g.g.` h h h h h h ",
"4X4X4X4X4X4XC.' ' ' ' ' O.fXfXfXfXfXfX;X#X#X#X#X#XV.h h h h h g &.;.;.;.;.;.5.g.g.g.g.g.d.;.;.;.;.;.;.8.g.g.g.g.g.` h h h h h h ",
"4X4X4X4X4X4XC.' ' ' ' ' O.fXfXfXfXfXfX;X#X#X#X#X#XV.h h h h h g &.;.;.;.;.;.5.g.g.g.g.g.d.;.;.;.;.;.;.8.g.g.g.g.g.` h h h h h h ",
"4X4X4X4X4X4XC.' ' ' ' ' O.fXfXfXfXfXfX;X#X#X#X#X#XV.h h h h h g &.;.;.;.;.;.5.g.g.g.g.g.d.;.;.;.;.;.;.8.g.g.g.g.g.` h h h h h h ",
"9X9X9X9X9X9XZ. . . . . .q.pXpXpXpXpXpX X!.!.!.!.!.m.h h h h h g @.%.%.%.%.%.6.K.K.K.K.K.G.>.>.>.>.>.>.D.E.E.E.E.E.A.n n n n n n ",
"#X#X#X#X#X#XW.g.g.g.g.g.F.#X#X#X#X#X#X+.' ' ' ' ' U h h h h h g ^ ' ' ' ' ' j.#X#X#X#X#X@Xg.g.g.g.g.g.&X4X4X4X4X4X=Xg.g.g.g.g.g.",
"#X#X#X#X#X#XW.g.g.g.g.g.F.#X#X#X#X#X#X+.' ' ' ' ' U h h h h h g ^ ' ' ' ' ' j.#X#X#X#X#X@Xg.g.g.g.g.g.&X4X4X4X4X4X=Xg.g.g.g.g.g.",
"#X#X#X#X#X#XW.g.g.g.g.g.F.#X#X#X#X#X#X+.' ' ' ' ' U h h h h h g ^ ' ' ' ' ' j.#X#X#X#X#X@Xg.g.g.g.g.g.&X4X4X4X4X4X=Xg.g.g.g.g.g.",
"#X#X#X#X#X#XW.g.g.g.g.g.F.#X#X#X#X#X#X+.' ' ' ' ' U h h h h h g ^ ' ' ' ' ' j.#X#X#X#X#X@Xg.g.g.g.g.g.&X4X4X4X4X4X=Xg.g.g.g.g.g.",
"#X#X#X#X#X#XW.g.g.g.g.g.F.#X#X#X#X#X#X+.' ' ' ' ' U h h h h h g ^ ' ' ' ' ' j.#X#X#X#X#X@Xg.g.g.g.g.g.&X4X4X4X4X4X=Xg.g.g.g.g.g.",
"#X#X#X#X#X#XW.g.g.g.g.g.F.#X#X#X#X#X#X+.' ' ' ' ' U h h h h h g ^ ' ' ' ' ' j.#X#X#X#X#X@Xg.g.g.g.g.g.&X4X4X4X4X4X=Xg.g.g.g.g.g."
};
