/* XPM */
static char *result[] = {
/* columns rows colors chars-per-pixel */
"64 64 229 2 ",
"   c black",
".  c #060809",
"X  c #070909",
"o  c #070A0B",
"O  c #0A0D0D",
"+  c #070817",
"@  c #0B1011",
"#  c #0D1011",
"$  c #05141C",
"%  c #05161D",
"&  c #08171D",
"*  c #0C181D",
"=  c #11191A",
"-  c #141A1B",
";  c #17252C",
":  c #002A3C",
">  c #002C3E",
",  c #161946",
"<  c #002E41",
"1  c #032E41",
"2  c #093648",
"3  c #1C3641",
"4  c #0E4156",
"5  c #1F4756",
"6  c #254956",
"7  c #2B4952",
"8  c #354B51",
"9  c #3A4951",
"0  c #3E4E52",
"q  c #004F71",
"w  c #005477",
"e  c #005679",
"r  c #3C626F",
"t  c #21637C",
"y  c #586F74",
"u  c #586F75",
"i  c #5F777E",
"p  c #5F787E",
"a  c #990030",
"s  c #ED1C24",
"d  c #0076A8",
"f  c #0578A9",
"g  c #3F47CC",
"h  c #3F48CC",
"j  c #3557D1",
"k  c #3559D4",
"l  c #385FD4",
"z  c #1B7CDC",
"x  c #2D61D2",
"c  c #2C64D5",
"v  c #246ED8",
"b  c #2C68DB",
"n  c #3969DA",
"m  c #2B7DD4",
"M  c #267ADC",
"N  c #357AE2",
"B  c #4251CF",
"V  c #5B74D5",
"C  c #5B75D5",
"Z  c #1C85B3",
"A  c #1B87B9",
"S  c #66919C",
"D  c #67929D",
"F  c #488DA9",
"G  c #498DA9",
"H  c #518ABF",
"J  c #4C94B3",
"K  c #5897B0",
"L  c #7E9FA8",
"P  c #0089C4",
"I  c #008CC8",
"U  c #1683DE",
"Y  c #0092D1",
"T  c #0095D6",
"R  c #1E9ED5",
"E  c #3993C7",
"W  c #3B80DF",
"Q  c #21A1D7",
"!  c #22A0D7",
"~  c #2AA2D5",
"^  c #1B85E8",
"/  c #059CE6",
"(  c #1390EE",
")  c #1391EE",
"_  c #1097F1",
"`  c #3385E6",
"'  c #2E9DF0",
"]  c #00A2E8",
"[  c #00A3E9",
"{  c #00A4EA",
"}  c #03A4EA",
"|  c #07A0EF",
" . c #00A6ED",
".. c #0BAAEE",
"X. c #0DA8EF",
"o. c #0CABEF",
"O. c #12AAEC",
"+. c #1EADE9",
"@. c #1CAEEE",
"#. c #05A6F4",
"$. c #00A8F1",
"%. c #00AAF3",
"&. c #00ADF7",
"*. c #05AAFA",
"=. c #00ADF8",
"-. c #07AFF8",
";. c #1AADF9",
":. c #00B1FD",
">. c #08B3FD",
",. c #0BB5FE",
"<. c #0CB5FD",
"1. c #0EB6FE",
"2. c #1BB4F6",
"3. c #11B6FE",
"4. c #18B6FB",
"5. c #1EB7F9",
"6. c #15B8FE",
"7. c #1FB9FB",
"8. c #1BB9FE",
"9. c #1CBAFE",
"0. c #1FBAFE",
"q. c #21A9E3",
"w. c #24B3EF",
"e. c #2EB3EB",
"r. c #33B4EA",
"t. c #21A2F3",
"y. c #25B3F0",
"u. c #2EB7F2",
"i. c #2AB2F9",
"p. c #21BBFE",
"a. c #24BBFC",
"s. c #24BCFD",
"d. c #25BDFE",
"f. c #24BDFF",
"g. c #27BEFF",
"h. c #28BEFF",
"j. c #2CBFFF",
"k. c #39BBF4",
"l. c #3ABBF6",
"z. c #6585D9",
"x. c #648ADB",
"c. c #6292DE",
"v. c #739CDD",
"b. c #60A7C3",
"n. c #4983E2",
"m. c #5282E2",
"M. c #499BE9",
"N. c #5999E9",
"B. c #45A2EC",
"V. c #51A0E3",
"C. c #5DA4ED",
"Z. c #41B9E9",
"A. c #42BDEF",
"S. c #43ACF0",
"D. c #65BCF6",
"F. c #35C0FA",
"G. c #33C1FF",
"H. c #36C2FF",
"J. c #38C0F9",
"K. c #39C3FF",
"L. c #3BC4FF",
"P. c #3EC5FE",
"I. c #3FC5FF",
"U. c #6EC2DF",
"Y. c #57C2EB",
"T. c #59C2E9",
"R. c #58C1EB",
"E. c #5FC6EE",
"W. c #47C6F9",
"Q. c #45C7FF",
"!. c #46C7FE",
"~. c #4EC5F8",
"^. c #48C7FE",
"/. c #49C8FF",
"(. c #4FCAFF",
"). c #4FCBFF",
"_. c #53C4F1",
"`. c #5FCBF5",
"'. c #59CDFF",
"]. c #5BCEFF",
"[. c #5CCEFF",
"{. c #61C8EF",
"}. c #6BC8E9",
"|. c #7FD0EB",
" X c #7DD2EF",
".X c #63CCF7",
"XX c #65CDF6",
"oX c #68CEF5",
"OX c #63CEFA",
"+X c #69CAFB",
"@X c #61D0FF",
"#X c #65D1FF",
"$X c #6CD3FF",
"%X c #6DD3FF",
"&X c #6CD4FF",
"*X c #76D1F0",
"=X c #70D1F7",
"-X c #7AD1F0",
";X c #7ED4F0",
":X c #7ED7FB",
">X c #80B1E2",
",X c #80B6E3",
"<X c #81D0EA",
"1X c #82D1ED",
"2X c #8DD5EE",
"3X c #92D7EB",
"4X c #96D9EB",
"5X c #99D9EA",
"6X c #9DDBEB",
"7X c #9ADAEC",
"8X c #86D7F4",
"9X c #8BD7F0",
"0X c #8CD7F0",
"qX c #8DD9F3",
"wX c #8ED8F3",
"eX c #95D9F3",
"rX c #98DBF1",
"tX c #9EDEF4",
"yX c #A8D3EB",
"uX c #A9D4ED",
"iX c #A1DCEE",
"pX c #A7DEED",
"aX c #A0DFF3",
"sX c #A6DFF1",
"dX c #B2E2EF",
"fX c #B3E3EF",
"gX c #B4E3EF",
"hX c #A8E0F0",
"jX c #B5E4F1",
/* pixels */
"h h h h h h N.$X$X$X$X$XD.h h h h h h _ :.:.:.:.:.1.h.h.h.h.h.g.3X5X5X5X5X5X`.h.h.h.h.h.f.:.:.:.:.:.:.b h h h h h n h.h.h.h.h.h.",
"h h h h h h N.$X$X$X$X$XD.h h h h h h _ :.:.:.:.:.1.h.h.h.h.h.g.3X5X5X5X5X5X`.h.h.h.h.h.f.:.:.:.:.:.:.b h h h h h n h.h.h.h.h.h.",
"h h h h h h N.$X$X$X$X$XD.h h h h h h _ :.:.:.:.:.1.h.h.h.h.h.g.3X5X5X5X5X5X`.h.h.h.h.h.f.:.:.:.:.:.:.b h h h h h n h.h.h.h.h.h.",
"h h h h h h N.$X$X$X$X$XD.h h h h h h _ :.:.:.:.:.1.h.h.h.h.h.g.3X5X5X5X5X5X`.h.h.h.h.h.f.:.:.:.:.:.:.b h h h h h n h.h.h.h.h.h.",
"h h h h h h N.$X$X$X$X$XD.h h h h h h _ :.:.:.:.:.1.h.h.h.h.h.g.3X5X5X5X5X5X`.h.h.h.h.h.f.:.:.:.:.:.:.b h h h h h n h.h.h.h.h.h.",
"h h h h h h N.$X$X$X$X$XD.h h h h h h _ :.:.:.:.:.1.h.h.h.h.h.g.3X5X5X5X5X5X`.h.h.h.h.h.f.:.:.:.:.:.:.b h h h h h n h.h.h.h.h.h.",
"z z z z z z W m.m.m.m.m.n.^ ^ ^ ^ ^ ^ | $.$.$.$.$.2.(.(.(.(.(.).x.z.z.z.z.z.B.h.h.h.h.h.s.$.$.$.$.$.$.V.v.v.v.v.v.c.N N N N N N ",
"] ] ] ] ] ] v h h h h h k :.:.:.:.:.:. .] ] ] ] ] y.$X$X$X$X$X&XB h h h h h ` h.h.h.h.h.a.] ] ] ] ] ] }.5X5X5X5X5X>Xh h h h h h ",
"] ] ] ] ] ] v h h h h h k :.:.:.:.:.:. .] ] ] ] ] y.$X$X$X$X$X&XB h h h h h ` h.h.h.h.h.a.] ] ] ] ] ] }.5X5X5X5X5X>Xh h h h h h ",
"] ] ] ] ] ] v h h h h h k :.:.:.:.:.:. .] ] ] ] ] y.$X$X$X$X$X&XB h h h h h ` h.h.h.h.h.a.] ] ] ] ] ] }.5X5X5X5X5X>Xh h h h h h ",
"] ] ] ] ] ] v h h h h h k :.:.:.:.:.:. .] ] ] ] ] y.$X$X$X$X$X&XB h h h h h ` h.h.h.h.h.a.] ] ] ] ] ] }.5X5X5X5X5X>Xh h h h h h ",
"] ] ] ] ] ] v h h h h h k :.:.:.:.:.:. .] ] ] ] ] y.$X$X$X$X$X&XB h h h h h ` h.h.h.h.h.a.] ] ] ] ] ] }.5X5X5X5X5X>Xh h h h h h ",
"O.O.O.O.O.O.M j j j j j x T T T T T T I P P P P P Q @X@X@X@X@X@Xl j j j j j m ! ! ! ! ! R P P P P P P U.6X6X6X6X6X,Xj j j j j j ",
"$X$X$X$X$X$Xu.] ] ] ] ] P                         4 h.h.h.h.h.h.} ] ] ] ] ] q                         L gXgXgXgXgX1X] ] ] ] ] ] ",
"$X$X$X$X$X$Xu.] ] ] ] ] P                         4 h.h.h.h.h.h.} ] ] ] ] ] q                         L gXgXgXgXgX1X] ] ] ] ] ] ",
"$X$X$X$X$X$Xu.] ] ] ] ] P                         4 h.h.h.h.h.h.} ] ] ] ] ] q                         L gXgXgXgXgX1X] ] ] ] ] ] ",
"$X$X$X$X$X$Xu.] ] ] ] ] P         a               4 h.h.h.h.h.h.} ] ] ] ] ] q         a               L gXgXgXgXgX1X] ] ] ] ] ] ",
"$X$X$X$X$X$Xu.] ] ] ] ] P           a   s         4 h.h.h.h.h.h.} ] ] ] ] ] q         a   s   a       L gXgXgXgXgX1X] ] ] ] ] ] ",
"$X$X$X$X$X$Xu.] ] ] ] ] P         s   a           4 h.h.h.h.h.h.} ] ] ] ] ] q           s   s a       L gXgXgXgXgX1X] ] ] ] ] ] ",
"K.K.K.K.K.K.4.=.=.=.=.=.Y       a   s a a a       5 ].].].].].[.-.=.=.=.=.=.w       a a   a           K :X:X:X:X:XOX5.5.5.5.5.5.",
"h.h.h.h.h.h.3.:.:.:.:.:.T         a s   a         6 $X$X$X$X$X%X>.:.:.:.:.:.e         a s   a a       J $X$X$X$X$X'.h.h.h.h.h.h.",
"h.h.h.h.h.h.3.:.:.:.:.:.T       a   s     s       6 $X$X$X$X$X%X>.:.:.:.:.:.e               a         J $X$X$X$X$X'.h.h.h.h.h.h.",
"h.h.h.h.h.h.3.:.:.:.:.:.T             s s         6 $X$X$X$X$X%X>.:.:.:.:.:.e             a           J $X$X$X$X$X'.h.h.h.h.h.h.",
"h.h.h.h.h.h.3.:.:.:.:.:.T                         6 $X$X$X$X$X%X>.:.:.:.:.:.e                         J $X$X$X$X$X'.h.h.h.h.h.h.",
"h.h.h.h.h.h.3.:.:.:.:.:.T                         6 $X$X$X$X$X%X>.:.:.:.:.:.e                         J $X$X$X$X$X'.h.h.h.h.h.h.",
"8.8.8.8.8.8.p.d.d.d.d.d.q.4 4 4 4 4 4 7 8 8 8 8 8 r F F F F F G f d d d d d t 0 0 0 0 0 9 , , , , , , E ^.^.^.^.^.!.I.I.I.I.I.I.",
":.:.:.:.:.:.P.$X$X$X$X$X@Xh.h.h.h.h.h. X5X5X5X5X5XS                         i gXgXgXgXgXyXh h h h h h ) :.:.:.:.:.0.$X$X$X$X$X$X",
":.:.:.:.:.:.P.$X$X$X$X$X@Xh.h.h.h.h.h. X5X5X5X5X5XS                         i gXgXgXgXgXyXh h h h h h ) :.:.:.:.:.0.$X$X$X$X$X$X",
":.:.:.:.:.:.P.$X$X$X$X$X@Xh.h.h.h.h.h. X5X5X5X5X5XS                         i gXgXgXgXgXyXh h h h h h ) :.:.:.:.:.0.$X$X$X$X$X$X",
":.:.:.:.:.:.P.$X$X$X$X$X@Xh.h.h.h.h.h. X5X5X5X5X5XS                         i gXgXgXgXgXyXh h h h h h ) :.:.:.:.:.0.$X$X$X$X$X$X",
":.:.:.:.:.:.P.$X$X$X$X$X@Xh.h.h.h.h.h. X5X5X5X5X5XS                         i gXgXgXgXgXyXh h h h h h ) :.:.:.:.:.0.$X$X$X$X$X$X",
":.:.:.:.:.:.P.$X$X$X$X$X@Xh.h.h.h.h.h.;X7X7X7X7X7XD                         p jXjXjXjXjXuXg g g g g g ( :.:.:.:.:.0.$X$X$X$X$X$X",
"[ [ [ [ [ [ Y.4X4X4X4X4X|.} } } } } } 2 @ @ @ @ @ o                         X # # # # # ; +X+X+X+X+X+XeXhXhXhXhXhX8Xj.j.j.j.j.j.",
"] ] ] ] ] ] T.5X5X5X5X5X<X] ] ] ] ] ] :                                                 * $X$X$X$X$X$XtXgXgXgXgXgXqXh.h.h.h.h.h.",
"] ] ] ] ] ] T.5X5X5X5X5X<X] ] ] ] ] ] :                                                 * $X$X$X$X$X$XtXgXgXgXgXgXqXh.h.h.h.h.h.",
"] ] ] ] ] ] T.5X5X5X5X5X<X] ] ] ] ] ] :                                                 * $X$X$X$X$X$XtXgXgXgXgXgXqXh.h.h.h.h.h.",
"] ] ] ] ] ] T.5X5X5X5X5X<X] ] ] ] ] ] :                                                 * $X$X$X$X$X$XtXgXgXgXgXgXqXh.h.h.h.h.h.",
"] ] ] ] ] ] T.5X5X5X5X5X<X] ] ] ] ] ] :                                                 * $X$X$X$X$X$XtXgXgXgXgXgXqXh.h.h.h.h.h.",
"%.%.%.%.%.%.{.pXpXpXpXpX2X%.%.%.%.%.%.>                                                 & /./././././._.R.R.R.R.R.E.=X=X=X=X=X=X",
":.:.:.:.:.:.oXgXgXgXgXgXrX:.:.:.:.:.:.<                                                 % h.h.h.h.h.h.o.] ] ] ] ] r.gXgXgXgXgXgX",
":.:.:.:.:.:.oXgXgXgXgXgXrX:.:.:.:.:.:.<                                                 % h.h.h.h.h.h.o.] ] ] ] ] r.gXgXgXgXgXgX",
":.:.:.:.:.:.oXgXgXgXgXgXrX:.:.:.:.:.:.<                                                 % h.h.h.h.h.h.o.] ] ] ] ] r.gXgXgXgXgXgX",
":.:.:.:.:.:.oXgXgXgXgXgXrX:.:.:.:.:.:.<                                                 % h.h.h.h.h.h.o.] ] ] ] ] r.gXgXgXgXgXgX",
":.:.:.:.:.:.oXgXgXgXgXgXrX:.:.:.:.:.:.<                                                 % h.h.h.h.h.h.o.] ] ] ] ] r.gXgXgXgXgXgX",
"<.<.<.<.<.<.XXsXsXsXsXsXwX<.<.<.<.<.<.1           . = = = = = = - - - - - - O           $ i.i.i.i.i.i.X.{ { { { { e.iXiXiXiXiXiX",
"$X$X$X$X$X$XQ.h.h.h.h.h.G.$X$X$X$X$X$X3           8 5X5X5X5X5X5XfXgXgXgXgXgXu           + h h h h h h ) :.:.:.:.:.&.] ] ] ] ] ] ",
"$X$X$X$X$X$XQ.h.h.h.h.h.G.$X$X$X$X$X$X3           8 5X5X5X5X5X5XdXgXgXgXgXgXy           + h h h h h h ) :.:.:.:.:.&.] ] ] ] ] ] ",
"$X$X$X$X$X$XQ.h.h.h.h.h.G.$X$X$X$X$X$X3           8 5X5X5X5X5X5XdXgXgXgXgXgXy           + h h h h h h ) :.:.:.:.:.&.] ] ] ] ] ] ",
"$X$X$X$X$X$XQ.h.h.h.h.h.G.$X$X$X$X$X$X3           8 5X5X5X5X5X5XdXgXgXgXgXgXy           + h h h h h h ) :.:.:.:.:.&.] ] ] ] ] ] ",
"$X$X$X$X$X$XQ.h.h.h.h.h.G.$X$X$X$X$X$X3           8 5X5X5X5X5X5XdXgXgXgXgXgXy           + h h h h h h ) :.:.:.:.:.&.] ] ] ] ] ] ",
"$X$X$X$X$X$XQ.h.h.h.h.h.G.$X$X$X$X$X$X3           8 5X5X5X5X5X5XdXgXgXgXgXgXy           + h h h h h h ) :.:.:.:.:.&.] ] ] ] ] ] ",
"9X9X9X9X9X9XA.o.o.o.o.o.y.tXtXtXtXtXtXb.J J J J J H C C C C C V l.J.J.J.J.J.~ Z Z Z Z Z A ) ) ) ) ) ) ;.9.9.9.9.9.t.c c c c c c ",
"5X5X5X5X5X5XZ.] ] ] ] ] +.gXgXgXgXgXgX:X$X$X$X$X$XC.h h h h h g *.:.:.:.:.:.6.h.h.h.h.h.f.:.:.:.:.:.:.9.h.h.h.h.h.' h h h h h h ",
"5X5X5X5X5X5XZ.] ] ] ] ] +.gXgXgXgXgXgX:X$X$X$X$X$XC.h h h h h g *.:.:.:.:.:.6.h.h.h.h.h.f.:.:.:.:.:.:.9.h.h.h.h.h.' h h h h h h ",
"5X5X5X5X5X5XZ.] ] ] ] ] +.gXgXgXgXgXgX:X$X$X$X$X$XC.h h h h h g *.:.:.:.:.:.6.h.h.h.h.h.f.:.:.:.:.:.:.9.h.h.h.h.h.' h h h h h h ",
"5X5X5X5X5X5XZ.] ] ] ] ] +.gXgXgXgXgXgX:X$X$X$X$X$XC.h h h h h g *.:.:.:.:.:.6.h.h.h.h.h.f.:.:.:.:.:.:.9.h.h.h.h.h.' h h h h h h ",
"5X5X5X5X5X5XZ.] ] ] ] ] +.gXgXgXgXgXgX:X$X$X$X$X$XC.h h h h h g *.:.:.:.:.:.6.h.h.h.h.h.f.:.:.:.:.:.:.9.h.h.h.h.h.' h h h h h h ",
"0X0X0X0X0X0XA...........w.aXaXaXaXaXaX.X~.~.~.~.~.M.h h h h h g #.&.&.&.&.&.7.L.L.L.L.L.H.,.,.,.,.,.,.F.W.W.W.W.W.S.n n n n n n ",
"$X$X$X$X$X$XQ.h.h.h.h.h.G.$X$X$X$X$X$X@.] ] ] ] ] U h h h h h g / ] ] ] ] ] k.$X$X$X$X$X#Xh.h.h.h.h.h.*X5X5X5X5X5X-Xh.h.h.h.h.h.",
"$X$X$X$X$X$XQ.h.h.h.h.h.G.$X$X$X$X$X$X@.] ] ] ] ] U h h h h h g / ] ] ] ] ] k.$X$X$X$X$X#Xh.h.h.h.h.h.*X5X5X5X5X5X-Xh.h.h.h.h.h.",
"$X$X$X$X$X$XQ.h.h.h.h.h.G.$X$X$X$X$X$X@.] ] ] ] ] U h h h h h g / ] ] ] ] ] k.$X$X$X$X$X#Xh.h.h.h.h.h.*X5X5X5X5X5X-Xh.h.h.h.h.h.",
"$X$X$X$X$X$XQ.h.h.h.h.h.G.$X$X$X$X$X$X@.] ] ] ] ] U h h h h h g / ] ] ] ] ] k.$X$X$X$X$X#Xh.h.h.h.h.h.*X5X5X5X5X5X-Xh.h.h.h.h.h.",
"$X$X$X$X$X$XQ.h.h.h.h.h.G.$X$X$X$X$X$X@.] ] ] ] ] U h h h h h g / ] ] ] ] ] k.$X$X$X$X$X#Xh.h.h.h.h.h.*X5X5X5X5X5X-Xh.h.h.h.h.h.",
"$X$X$X$X$X$XQ.h.h.h.h.h.G.$X$X$X$X$X$X@.] ] ] ] ] U h h h h h g / ] ] ] ] ] k.$X$X$X$X$X#Xh.h.h.h.h.h.*X5X5X5X5X5X-Xh.h.h.h.h.h."
};
