/* XPM */
static char *result[] = {
/* columns rows colors chars-per-pixel */
"64 64 227 2 ",
"   c black",
".  c #060809",
"X  c #070909",
"o  c #070A0B",
"O  c #0A0D0D",
"+  c #070817",
"@  c #0B1011",
"#  c #0D1011",
"$  c #05141C",
"%  c #05161D",
"&  c #08171D",
"*  c #0C181D",
"=  c #11191A",
"-  c #141A1B",
";  c #17252C",
":  c #002A3C",
">  c #002C3E",
",  c #161946",
"<  c #002E41",
"1  c #032E41",
"2  c #093648",
"3  c #1C3641",
"4  c #0E4156",
"5  c #1F4756",
"6  c #254956",
"7  c #2B4952",
"8  c #354B51",
"9  c #3A4951",
"0  c #3E4E52",
"q  c #004F71",
"w  c #005477",
"e  c #005679",
"r  c #3C626F",
"t  c #21637C",
"y  c #586F74",
"u  c #586F75",
"i  c #5F777E",
"p  c #5F787E",
"a  c #ED1C24",
"s  c #0076A8",
"d  c #0578A9",
"f  c #3F47CC",
"g  c #3F48CC",
"h  c #3557D1",
"j  c #3559D4",
"k  c #385FD4",
"l  c #1B7CDC",
"z  c #2D61D2",
"x  c #2C64D5",
"c  c #246ED8",
"v  c #2C68DB",
"b  c #3969DA",
"n  c #2B7DD4",
"m  c #267ADC",
"M  c #357AE2",
"N  c #4251CF",
"B  c #5B74D5",
"V  c #5B75D5",
"C  c #1C85B3",
"Z  c #1B87B9",
"A  c #66919C",
"S  c #67929D",
"D  c #488DA9",
"F  c #498DA9",
"G  c #518ABF",
"H  c #4C94B3",
"J  c #5897B0",
"K  c #7E9FA8",
"L  c #0089C4",
"P  c #008CC8",
"I  c #1683DE",
"U  c #0092D1",
"Y  c #0095D6",
"T  c #3993C7",
"R  c #3B80DF",
"E  c #21A1D7",
"W  c #22A0D7",
"Q  c #2AA2D5",
"!  c #1B85E8",
"~  c #059CE6",
"^  c #1390EE",
"/  c #1391EE",
"(  c #1097F1",
")  c #3385E6",
"_  c #2E9DF0",
"`  c #00A2E8",
"'  c #00A3E9",
"]  c #00A4EA",
"[  c #03A4EA",
"{  c #07A0EF",
"}  c #00A6ED",
"|  c #0BAAEE",
" . c #0DA8EF",
".. c #0CABEF",
"X. c #12AAEC",
"o. c #1EADE9",
"O. c #1CAEEE",
"+. c #05A6F4",
"@. c #00A8F1",
"#. c #00AAF3",
"$. c #00ADF7",
"%. c #05AAFA",
"&. c #00ADF8",
"*. c #07AFF8",
"=. c #1AADF9",
"-. c #00B1FD",
";. c #08B3FD",
":. c #0BB5FE",
">. c #0CB5FD",
",. c #0EB6FE",
"<. c #1BB4F6",
"1. c #11B6FE",
"2. c #18B6FB",
"3. c #1EB7F9",
"4. c #15B8FE",
"5. c #1FB9FB",
"6. c #1BB9FE",
"7. c #1CBAFE",
"8. c #1FBAFE",
"9. c #21A9E3",
"0. c #24B3EF",
"q. c #2EB3EB",
"w. c #33B4EA",
"e. c #21A2F3",
"r. c #25B3F0",
"t. c #2EB7F2",
"y. c #2AB2F9",
"u. c #21BBFE",
"i. c #24BBFC",
"p. c #24BCFD",
"a. c #25BDFE",
"s. c #24BDFF",
"d. c #27BEFF",
"f. c #28BEFF",
"g. c #2CBFFF",
"h. c #39BBF4",
"j. c #3ABBF6",
"k. c #6585D9",
"l. c #648ADB",
"z. c #6292DE",
"x. c #739CDD",
"c. c #60A7C3",
"v. c #4983E2",
"b. c #5282E2",
"n. c #499BE9",
"m. c #5999E9",
"M. c #45A2EC",
"N. c #51A0E3",
"B. c #5DA4ED",
"V. c #41B9E9",
"C. c #42BDEF",
"Z. c #43ACF0",
"A. c #65BCF6",
"S. c #35C0FA",
"D. c #33C1FF",
"F. c #36C2FF",
"G. c #38C0F9",
"H. c #39C3FF",
"J. c #3BC4FF",
"K. c #3EC5FE",
"L. c #3FC5FF",
"P. c #6EC2DF",
"I. c #57C2EB",
"U. c #59C2E9",
"Y. c #58C1EB",
"T. c #5FC6EE",
"R. c #47C6F9",
"E. c #45C7FF",
"W. c #46C7FE",
"Q. c #4EC5F8",
"!. c #48C7FE",
"~. c #49C8FF",
"^. c #4FCAFF",
"/. c #4FCBFF",
"(. c #53C4F1",
"). c #5FCBF5",
"_. c #59CDFF",
"`. c #5BCEFF",
"'. c #5CCEFF",
"]. c #61C8EF",
"[. c #6BC8E9",
"{. c #7FD0EB",
"}. c #7DD2EF",
"|. c #63CCF7",
" X c #65CDF6",
".X c #68CEF5",
"XX c #63CEFA",
"oX c #69CAFB",
"OX c #61D0FF",
"+X c #65D1FF",
"@X c #6CD3FF",
"#X c #6DD3FF",
"$X c #6CD4FF",
"%X c #76D1F0",
"&X c #70D1F7",
"*X c #7AD1F0",
"=X c #7ED4F0",
"-X c #7ED7FB",
";X c #80B1E2",
":X c #80B6E3",
">X c #81D0EA",
",X c #82D1ED",
"<X c #8DD5EE",
"1X c #92D7EB",
"2X c #96D9EB",
"3X c #99D9EA",
"4X c #9DDBEB",
"5X c #9ADAEC",
"6X c #86D7F4",
"7X c #8BD7F0",
"8X c #8CD7F0",
"9X c #8DD9F3",
"0X c #8ED8F3",
"qX c #95D9F3",
"wX c #98DBF1",
"eX c #9EDEF4",
"rX c #A8D3EB",
"tX c #A9D4ED",
"yX c #A1DCEE",
"uX c #A7DEED",
"iX c #A0DFF3",
"pX c #A6DFF1",
"aX c #B2E2EF",
"sX c #B3E3EF",
"dX c #B4E3EF",
"fX c #A8E0F0",
"gX c #B5E4F1",
/* pixels */
"g g g g g g m.@X@X@X@X@XA.g g g g g g ( -.-.-.-.-.,.f.f.f.f.f.d.1X3X3X3X3X3X).f.f.f.f.f.s.-.-.-.-.-.-.v g g g g g b f.f.f.f.f.f.",
"g g g g g g m.@X@X@X@X@XA.g g g g g g ( -.-.-.-.-.,.f.f.f.f.f.d.1X3X3X3X3X3X).f.f.f.f.f.s.-.-.-.-.-.-.v g g g g g b f.f.f.f.f.f.",
"g g g g g g m.@X@X@X@X@XA.g g g g g g ( -.-.-.-.-.,.f.f.f.f.f.d.1X3X3X3X3X3X).f.f.f.f.f.s.-.-.-.-.-.-.v g g g g g b f.f.f.f.f.f.",
"g g g g g g m.@X@X@X@X@XA.g g g g g g ( -.-.-.-.-.,.f.f.f.f.f.d.1X3X3X3X3X3X).f.f.f.f.f.s.-.-.-.-.-.-.v g g g g g b f.f.f.f.f.f.",
"g g g g g g m.@X@X@X@X@XA.g g g g g g ( -.-.-.-.-.,.f.f.f.f.f.d.1X3X3X3X3X3X).f.f.f.f.f.s.-.-.-.-.-.-.v g g g g g b f.f.f.f.f.f.",
"g g g g g g m.@X@X@X@X@XA.g g g g g g ( -.-.-.-.-.,.f.f.f.f.f.d.1X3X3X3X3X3X).f.f.f.f.f.s.-.-.-.-.-.-.v g g g g g b f.f.f.f.f.f.",
"l l l l l l R b.b.b.b.b.v.! ! ! ! ! ! { @.@.@.@.@.<.^.^.^.^.^./.l.k.k.k.k.k.M.f.f.f.f.f.p.@.@.@.@.@.@.N.x.x.x.x.x.z.M M M M M M ",
"` ` ` ` ` ` c g g g g g j -.-.-.-.-.-.} ` ` ` ` ` r.@X@X@X@X@X$XN g g g g g ) f.f.f.f.f.i.` ` ` ` ` ` [.3X3X3X3X3X;Xg g g g g g ",
"` ` ` ` ` ` c g g g g g j -.-.-.-.-.-.} ` ` ` ` ` r.@X@X@X@X@X$XN g g g g g ) f.f.f.f.f.i.` ` ` ` ` ` [.3X3X3X3X3X;Xg g g g g g ",
"` ` ` ` ` ` c g g g g g j -.-.-.-.-.-.} ` ` ` ` ` r.@X@X@X@X@X$XN g g g g g ) f.f.f.f.f.i.` ` ` ` ` ` [.3X3X3X3X3X;Xg g g g g g ",
"` ` ` ` ` ` c g g g g g j -.-.-.-.-.-.} ` ` ` ` ` r.@X@X@X@X@X$XN g g g g g ) f.f.f.f.f.i.` ` ` ` ` ` [.3X3X3X3X3X;Xg g g g g g ",
"` ` ` ` ` ` c g g g g g j -.-.-.-.-.-.} ` ` ` ` ` r.@X@X@X@X@X$XN g g g g g ) f.f.f.f.f.i.` ` ` ` ` ` [.3X3X3X3X3X;Xg g g g g g ",
"X.X.X.X.X.X.m h h h h h z Y Y Y Y Y Y P L L L L L E OXOXOXOXOXOXk h h h h h n W W W W W W W L L L L L P.4X4X4X4X4X:Xh h h h h h ",
"@X@X@X@X@X@Xt.` ` ` ` ` L                         4 f.f.f.f.f.f.[ ` ` ` ` ` q               a a a     K dXdXdXdXdX,X` ` ` ` ` ` ",
"@X@X@X@X@X@Xt.` ` ` ` ` L           a a   a       4 f.f.f.f.f.f.[ ` ` ` ` ` q       a a     a   a     K dXdXdXdXdX,X` ` ` ` ` ` ",
"@X@X@X@X@X@Xt.` ` ` ` ` L a a a   a a a           4 f.f.f.f.f.f.[ ` ` ` ` ` q   a   a a     a a a a   K dXdXdXdXdX,X` ` ` ` ` ` ",
"@X@X@X@X@X@Xt.` ` ` ` ` L       a a a a a a a a   4 f.f.f.f.f.f.[ ` ` ` ` ` q a     a     a   a       K dXdXdXdXdX,X` ` ` ` ` ` ",
"@X@X@X@X@X@Xt.` ` ` ` ` L     a a   a   a a a     4 f.f.f.f.f.f.[ ` ` ` ` ` q   a a     a a a   a a a K dXdXdXdXdX,X` ` ` ` ` ` ",
"@X@X@X@X@X@Xt.` ` ` ` ` L       a a   a   a   a   4 f.f.f.f.f.f.[ ` ` ` ` ` q a   a a     a a a   a a K dXdXdXdXdX,X` ` ` ` ` ` ",
"H.H.H.H.H.H.2.&.&.&.&.&.U a   a   a   a a   a a   5 `.`.`.`.`.'.*.&.&.&.&.&.w   a a       a       a a J -X-X-X-X-XXX3.3.3.3.3.3.",
"f.f.f.f.f.f.1.-.-.-.-.-.W   a a   a   a     a a   6 @X@X@X@X@X#X;.-.-.-.-.-.e     a a   a a   a a   a H @X@X@X@X@X_.f.f.f.f.f.f.",
"f.f.f.f.f.f.1.-.-.-.-.-.Y       a a     a a       6 @X@X@X@X@X#X;.-.-.-.-.-.e   a a a a   a     a a a H @X@X@X@X@X_.f.f.f.f.f.f.",
"f.f.f.f.f.f.1.-.-.-.-.-.Y   a         a a a a     6 @X@X@X@X@X#X;.-.-.-.-.-.e       a a   a a   a a   H @X@X@X@X@X_.f.f.f.f.f.f.",
"f.f.f.f.f.f.1.-.-.-.-.-.Y   a a       a a a       6 @X@X@X@X@X#X;.-.-.-.-.-.e       a     a   a       H @X@X@X@X@X_.f.f.f.f.f.f.",
"f.f.f.f.f.f.1.-.-.-.-.-.Y     a   a   a   a       6 @X@X@X@X@X#X;.-.-.-.-.-.e           a             H @X@X@X@X@X_.f.f.f.f.f.f.",
"6.6.6.6.6.6.u.a.a.a.a.a.9.4 4 4 4 4 4 7 8 8 8 8 8 r D D D D D F d s s s s s t 0 0 0 0 0 9 , , , , , , T !.!.!.!.!.W.L.L.L.L.L.L.",
"-.-.-.-.-.-.K.@X@X@X@X@XOXf.f.f.f.f.f.}.3X3X3X3X3XA                         i dXdXdXdXdXrXg g g g g g / -.-.-.-.-.8.@X@X@X@X@X@X",
"-.-.-.-.-.-.K.@X@X@X@X@XOXf.f.f.f.f.f.}.3X3X3X3X3XA                         i dXdXdXdXdXrXg g g g g g / -.-.-.-.-.8.@X@X@X@X@X@X",
"-.-.-.-.-.-.K.@X@X@X@X@XOXf.f.f.f.f.f.}.3X3X3X3X3XA                         i dXdXdXdXdXrXg g g g g g / -.-.-.-.-.8.@X@X@X@X@X@X",
"-.-.-.-.-.-.K.@X@X@X@X@XOXf.f.f.f.f.f.}.3X3X3X3X3XA                         i dXdXdXdXdXrXg g g g g g / -.-.-.-.-.8.@X@X@X@X@X@X",
"-.-.-.-.-.-.K.@X@X@X@X@XOXf.f.f.f.f.f.}.3X3X3X3X3XA                         i dXdXdXdXdXrXg g g g g g / -.-.-.-.-.8.@X@X@X@X@X@X",
"-.-.-.-.-.-.K.@X@X@X@X@XOXf.f.f.f.f.f.=X5X5X5X5X5XS                         p gXgXgXgXgXtXf f f f f f ^ -.-.-.-.-.8.@X@X@X@X@X@X",
"' ' ' ' ' ' I.2X2X2X2X2X{.[ [ [ [ [ [ 2 @ @ @ @ @ o                         X # # # # # ; oXoXoXoXoXoXqXfXfXfXfXfX6Xg.g.g.g.g.g.",
"` ` ` ` ` ` U.3X3X3X3X3X>X` ` ` ` ` ` :                                                 * @X@X@X@X@X@XeXdXdXdXdXdX9Xf.f.f.f.f.f.",
"` ` ` ` ` ` U.3X3X3X3X3X>X` ` ` ` ` ` :                                                 * @X@X@X@X@X@XeXdXdXdXdXdX9Xf.f.f.f.f.f.",
"` ` ` ` ` ` U.3X3X3X3X3X>X` ` ` ` ` ` :                                                 * @X@X@X@X@X@XeXdXdXdXdXdX9Xf.f.f.f.f.f.",
"` ` ` ` ` ` U.3X3X3X3X3X>X` ` ` ` ` ` :                                                 * @X@X@X@X@X@XeXdXdXdXdXdX9Xf.f.f.f.f.f.",
"` ` ` ` ` ` U.3X3X3X3X3X>X` ` ` ` ` ` :                                                 * @X@X@X@X@X@XeXdXdXdXdXdX9Xf.f.f.f.f.f.",
"#.#.#.#.#.#.].uXuXuXuXuX<X#.#.#.#.#.#.>                                                 & ~.~.~.~.~.~.(.Y.Y.Y.Y.Y.T.&X&X&X&X&X&X",
"-.-.-.-.-.-..XdXdXdXdXdXwX-.-.-.-.-.-.<                                                 % f.f.f.f.f.f...` ` ` ` ` w.dXdXdXdXdXdX",
"-.-.-.-.-.-..XdXdXdXdXdXwX-.-.-.-.-.-.<                                                 % f.f.f.f.f.f...` ` ` ` ` w.dXdXdXdXdXdX",
"-.-.-.-.-.-..XdXdXdXdXdXwX-.-.-.-.-.-.<                                                 % f.f.f.f.f.f...` ` ` ` ` w.dXdXdXdXdXdX",
"-.-.-.-.-.-..XdXdXdXdXdXwX-.-.-.-.-.-.<                                                 % f.f.f.f.f.f...` ` ` ` ` w.dXdXdXdXdXdX",
"-.-.-.-.-.-..XdXdXdXdXdXwX-.-.-.-.-.-.<                                                 % f.f.f.f.f.f...` ` ` ` ` w.dXdXdXdXdXdX",
">.>.>.>.>.>. XpXpXpXpXpX0X>.>.>.>.>.>.1           . = = = = = = - - - - - - O           $ y.y.y.y.y.y. .] ] ] ] ] q.yXyXyXyXyXyX",
"@X@X@X@X@X@XE.f.f.f.f.f.D.@X@X@X@X@X@X3           8 3X3X3X3X3X3XsXdXdXdXdXdXu           + g g g g g g / -.-.-.-.-.$.` ` ` ` ` ` ",
"@X@X@X@X@X@XE.f.f.f.f.f.D.@X@X@X@X@X@X3           8 3X3X3X3X3X3XaXdXdXdXdXdXy           + g g g g g g / -.-.-.-.-.$.` ` ` ` ` ` ",
"@X@X@X@X@X@XE.f.f.f.f.f.D.@X@X@X@X@X@X3           8 3X3X3X3X3X3XaXdXdXdXdXdXy           + g g g g g g / -.-.-.-.-.$.` ` ` ` ` ` ",
"@X@X@X@X@X@XE.f.f.f.f.f.D.@X@X@X@X@X@X3           8 3X3X3X3X3X3XaXdXdXdXdXdXy           + g g g g g g / -.-.-.-.-.$.` ` ` ` ` ` ",
"@X@X@X@X@X@XE.f.f.f.f.f.D.@X@X@X@X@X@X3           8 3X3X3X3X3X3XaXdXdXdXdXdXy           + g g g g g g / -.-.-.-.-.$.` ` ` ` ` ` ",
"@X@X@X@X@X@XE.f.f.f.f.f.D.@X@X@X@X@X@X3           8 3X3X3X3X3X3XaXdXdXdXdXdXy           + g g g g g g / -.-.-.-.-.$.` ` ` ` ` ` ",
"7X7X7X7X7X7XC...........r.eXeXeXeXeXeXc.H H H H H G V V V V V B j.G.G.G.G.G.Q C C C C C Z / / / / / / =.7.7.7.7.7.e.x x x x x x ",
"3X3X3X3X3X3XV.` ` ` ` ` o.dXdXdXdXdXdX-X@X@X@X@X@XB.g g g g g f %.-.-.-.-.-.4.f.f.f.f.f.s.-.-.-.-.-.-.7.f.f.f.f.f._ g g g g g g ",
"3X3X3X3X3X3XV.` ` ` ` ` o.dXdXdXdXdXdX-X@X@X@X@X@XB.g g g g g f %.-.-.-.-.-.4.f.f.f.f.f.s.-.-.-.-.-.-.7.f.f.f.f.f._ g g g g g g ",
"3X3X3X3X3X3XV.` ` ` ` ` o.dXdXdXdXdXdX-X@X@X@X@X@XB.g g g g g f %.-.-.-.-.-.4.f.f.f.f.f.s.-.-.-.-.-.-.7.f.f.f.f.f._ g g g g g g ",
"3X3X3X3X3X3XV.` ` ` ` ` o.dXdXdXdXdXdX-X@X@X@X@X@XB.g g g g g f %.-.-.-.-.-.4.f.f.f.f.f.s.-.-.-.-.-.-.7.f.f.f.f.f._ g g g g g g ",
"3X3X3X3X3X3XV.` ` ` ` ` o.dXdXdXdXdXdX-X@X@X@X@X@XB.g g g g g f %.-.-.-.-.-.4.f.f.f.f.f.s.-.-.-.-.-.-.7.f.f.f.f.f._ g g g g g g ",
"8X8X8X8X8X8XC.| | | | | 0.iXiXiXiXiXiX|.Q.Q.Q.Q.Q.n.g g g g g f +.$.$.$.$.$.5.J.J.J.J.J.F.:.:.:.:.:.:.S.R.R.R.R.R.Z.b b b b b b ",
"@X@X@X@X@X@XE.f.f.f.f.f.D.@X@X@X@X@X@XO.` ` ` ` ` I g g g g g f ~ ` ` ` ` ` h.@X@X@X@X@X+Xf.f.f.f.f.f.%X3X3X3X3X3X*Xf.f.f.f.f.f.",
"@X@X@X@X@X@XE.f.f.f.f.f.D.@X@X@X@X@X@XO.` ` ` ` ` I g g g g g f ~ ` ` ` ` ` h.@X@X@X@X@X+Xf.f.f.f.f.f.%X3X3X3X3X3X*Xf.f.f.f.f.f.",
"@X@X@X@X@X@XE.f.f.f.f.f.D.@X@X@X@X@X@XO.` ` ` ` ` I g g g g g f ~ ` ` ` ` ` h.@X@X@X@X@X+Xf.f.f.f.f.f.%X3X3X3X3X3X*Xf.f.f.f.f.f.",
"@X@X@X@X@X@XE.f.f.f.f.f.D.@X@X@X@X@X@XO.` ` ` ` ` I g g g g g f ~ ` ` ` ` ` h.@X@X@X@X@X+Xf.f.f.f.f.f.%X3X3X3X3X3X*Xf.f.f.f.f.f.",
"@X@X@X@X@X@XE.f.f.f.f.f.D.@X@X@X@X@X@XO.` ` ` ` ` I g g g g g f ~ ` ` ` ` ` h.@X@X@X@X@X+Xf.f.f.f.f.f.%X3X3X3X3X3X*Xf.f.f.f.f.f.",
"@X@X@X@X@X@XE.f.f.f.f.f.D.@X@X@X@X@X@XO.` ` ` ` ` I g g g g g f ~ ` ` ` ` ` h.@X@X@X@X@X+Xf.f.f.f.f.f.%X3X3X3X3X3X*Xf.f.f.f.f.f."
};
