/* XPM */
static char *result[] = {
/* columns rows colors chars-per-pixel */
"64 64 180 2 ",
"   c #000400",
".  c #000401",
"X  c #000501",
"o  c #060603",
"O  c #060703",
"+  c #17130D",
"@  c #17130E",
"#  c #17140D",
"$  c #1D1510",
"%  c #2C2119",
"&  c #217F16",
"*  c #217F17",
"=  c #227F17",
"-  c #227F18",
";  c #614528",
":  c #624528",
">  c #624529",
",  c #634529",
"<  c #624628",
"1  c #624629",
"2  c #725031",
"3  c #725032",
"4  c #8A603E",
"5  c #8C603F",
"6  c #8C623F",
"7  c #8C6141",
"8  c #8C6240",
"9  c #8D6240",
"0  c #96694B",
"q  c #976A4B",
"w  c #966A4C",
"e  c #9C6D49",
"r  c #9E6F49",
"t  c #9F6F49",
"y  c #9C6D4A",
"u  c #1D8116",
"i  c #1E8116",
"p  c #1F8116",
"a  c #1F8117",
"s  c #1E8216",
"d  c #1F8216",
"f  c #1E8316",
"g  c #1F8316",
"h  c #1F8217",
"j  c #1F8317",
"k  c #1D8515",
"l  c #1E8416",
"z  c #1E8516",
"x  c #1E8517",
"c  c #1F8118",
"v  c #1F8218",
"b  c #218116",
"n  c #208118",
"m  c #248719",
"M  c #208A18",
"N  c #228A1A",
"B  c #23911B",
"V  c #23921C",
"C  c #24911C",
"Z  c #25931D",
"A  c #25941E",
"S  c #26941E",
"D  c #25961E",
"F  c #27961F",
"G  c #259A1E",
"H  c #269B1F",
"J  c #279B1F",
"K  c #29981F",
"L  c #279920",
"P  c #279A20",
"I  c #269B20",
"U  c #279B20",
"Y  c #279A21",
"T  c #279B21",
"R  c #279C20",
"E  c #289820",
"W  c #289921",
"Q  c #2A9821",
"!  c #289B20",
"~  c #289A21",
"^  c #299E22",
"/  c #28A021",
"(  c #2FBA27",
")  c #2EBD27",
"_  c #2FBD27",
"`  c #2FBE27",
"'  c #2FB928",
"]  c #30BD27",
"[  c #33BB29",
"{  c #30BD28",
"}  c #30BF28",
"|  c #30BF29",
" . c #31BF29",
".. c #34BF29",
"X. c #35BF2A",
"o. c #43972B",
"O. c #40982A",
"+. c #41982A",
"@. c #42982B",
"#. c #53B335",
"$. c #56B536",
"%. c #57B536",
"&. c #57B537",
"*. c #2FC427",
"=. c #2FC328",
"-. c #30C028",
";. c #30C128",
":. c #31C029",
">. c #30C228",
",. c #31C228",
"<. c #30C328",
"1. c #31C328",
"2. c #31C229",
"3. c #30C329",
"4. c #31C329",
"5. c #32C229",
"6. c #32C329",
"7. c #32C12A",
"8. c #33C12B",
"9. c #32C22A",
"0. c #34C029",
"q. c #30C428",
"w. c #BD845A",
"e. c #BE855A",
"r. c #BE855B",
"t. c #BC8F5B",
"y. c #BC905B",
"u. c #BC905D",
"i. c #BD905D",
"p. c #BC915D",
"a. c #BD935C",
"s. c #BC925D",
"d. c #BD945C",
"f. c #BC955C",
"g. c #BC955D",
"h. c #C4885E",
"j. c #C78A5E",
"k. c #C68A5F",
"l. c #C68960",
"z. c #CB8D63",
"x. c #CC8E61",
"c. c #CD8E61",
"v. c #CE8D63",
"b. c #CF8D63",
"n. c #CC8E62",
"m. c #CD8E62",
"M. c #CC8F62",
"N. c #CD8F62",
"B. c #CD8E63",
"V. c #CE8E62",
"C. c #CE8E63",
"Z. c #CE8F63",
"A. c #CD8E64",
"S. c #CB9067",
"D. c #CB9167",
"F. c #CB9168",
"G. c #CE9268",
"H. c #CE9369",
"J. c #C29D71",
"K. c #C49F71",
"L. c #D19F7A",
"P. c #D2A07C",
"I. c #CEA382",
"U. c #CFA483",
"Y. c #D7AC8B",
"T. c #D2CAC2",
"R. c #D4CCC4",
"E. c #DCDCDB",
"W. c #DADCDC",
"Q. c gainsboro",
"!. c #DCDEDE",
"~. c gray87",
"^. c #EFE7DE",
"/. c #F0E7DE",
"(. c #FEFFFD",
"). c #FCFFFE",
"_. c #FDFFFF",
"`. c #FEFFFE",
"'. c #FEFFFF",
"]. c white",
/* pixels */
"h v v v v v v V 1.1.1.1.1.1.1.` Y T T T T T T / 1.1.1.1.1.1.1.6.s v v v v v v h ~ T T T T T T U ] 4.1.1.1.1.1.1.1.1.1.1.1.1.1.q.",
"h n n n n n n C >.,.2.2.2.2.2.) P ~ ~ ~ ~ ~ ~ ^ 2.2.2.2.2.2.2.2.d n n n n n n p W ~ ~ ~ ~ ~ ~ P ) 2.2.2.2.2.2.2.2.2.2.2.2.2.2.<.",
"h n n n n n n C >.2.2.2.2.2.2._ P ~ ~ ~ ~ ~ ~ ^ 2.2.2.2.2.2.2.2.d n n n n n n a W ~ ~ ~ ~ ~ ~ P _ 2.2.2.2.2.2.2.2.2.2.2.2.2.2.1.",
"h n n n n n n C >.2.2.2.2.2.2._ P ~ ~ ~ ~ ~ ~ ^ 2.2.2.2.2.2.2.2.d n n n n n n a W ~ ~ ~ ~ ~ ~ P _ 2.2.2.2.2.2.2.2.2.2.2.2.2.2.1.",
"h n n n n n n C >.2.2.2.2.2.2._ P ~ ~ ~ ~ ~ ~ ^ 2.2.2.2.2.2.2.2.d n n n n n n a W ~ ~ ~ ~ ~ ~ P _ 2.2.2.2.2.2.2.2.2.2.2.2.2.2.1.",
"h n n n n n n C >.2.2.2.2.2.2._ P ~ ~ ~ ~ ~ ~ ^ 2.2.2.2.2.2.2.2.d n n n n n n a W ~ ~ ~ ~ ~ ~ P _ 2.2.2.2.2.2.2.2.2.2.2.2.2.2.1.",
"h n n n n n n C >.2.2.2.2.2.2._ P ~ ~ ~ ~ ~ ~ ^ 2.2.2.2.2.2.2.2.d n n n n n n a W ~ ~ ~ ~ ~ ~ P _ 2.2.2.2.2.2.2.2.2.2.2.2.2.2.<.",
"g h j j h j j B  .| | | | | } ( R R R R R R R / -.-.-.-.-.-.-.:.k z z z z z x l E L L L L L L L '  .| | | | } } -.-.-.-.-.-.-.;.",
"! ~ ~ ~ ~ ~ ~ A i i i i i i i M 2.2.2.2.2.2.2.{ P P P P P P P G 9.5.9.9.9.9.5.8.f a a a a a a a i i i i i i i u D P P P P P P H ",
"! ~ ~ ~ ~ ~ ~ S c n n n n n n N 2.2.2.2.2.2.2.{ ~ ~ ~ ~ ~ ~ ~ U 2.2.2.2.2.2.2.7.j n n n n n n n n n n n n n n a F ~ ~ ~ ~ ~ ~ U ",
"! ~ ~ ~ ~ ~ ~ S c n n n n n n N 2.2.2.2.2.2.2.{ ~ ~ ~ ~ ~ ~ ~ U 2.2.2.2.2.2.2.7.j n n n n n n n n n n n n n n a F ~ ~ ~ ~ ~ ~ U ",
"! ~ ~ ~ ~ ~ ~ S c n n n n n n N 2.2.2.2.2.2.2.{ ~ ~ ~ ~ ~ ~ ~ U 2.2.2.2.2.2.2.7.j n n n n n n n n n n n n n n a F ~ ~ ~ ~ ~ ~ U ",
"! ~ ~ ~ ~ ~ ~ S c n n n n n n N 2.2.2.2.2.2.2.{ ~ ~ ~ ~ ~ ~ ~ U 2.2.2.2.2.2.2.7.j n n n n n n n n n n n n n n a F ~ ~ ~ ~ ~ ~ U ",
"! ~ ~ ~ ~ ~ ~ S c n n n n n n N 2.2.2.2.2.2.2.{ ~ ~ ~ ~ ~ ~ ~ U 2.2.2.2.2.2.2.7.j n n n n n n n n n n n n n n a F ~ ~ ~ ~ ~ ~ U ",
"! ~ ~ ~ ~ ~ ~ S c n n n n n n N 2.2.2.2.2.2.2.{ ~ ~ ~ ~ ~ ~ ~ U 2.2.2.2.2.2.2.7.j n n n n n n n n n n n n n n a F ~ ~ ~ ~ ~ ~ U ",
"J P P P P P P Z * = = = = = = m 0.0.0.0.0.0.0.[ Q Q Q Q Q Q Q K ..0.0.0.0.0.0.X.b - = = = = = = = = = = = = = & F ~ ~ ~ ~ ~ ~ U ",
"-.} } } } } } #.u.i.u.u.u.u.u.p.g.g.f.g.g.f.g.g.s.s.s.s.s.s.s.s.g.g.f.g.g.f.g.g.u.u.u.u.u.u.u.u.u.u.u.u.u.u.u.u.O.~ ~ ~ ~ ~ ~ U ",
"<.,.2.,.,.,.,.%.m.v.v.v.v.v.v.v.v.v.v.v.v.v.v.v.v.v.v.v.v.v.v.v.v.v.v.v.v.v.v.v.v.v.v.v.v.C.v.v.C.v.v.C.v.v.b.V.o.~ ~ ~ ~ ~ ~ U ",
"3.2.2.2.2.2.2.&.M.B.B.B.B.B.B.B.B.B.B.B.B.B.B.B.B.B.B.B.B.B.B.B.B.B.B.B.B.B.B.B.B.B.B.B.B.B.B.B.B.B.B.B.B.B.C.N.@.~ ~ ~ ~ ~ ~ U ",
"3.2.2.2.2.2.2.&.M.B.B.B.B.B.B.B.B.B.B.B.B.B.B.B.B.B.B.B.B.B.B.B.B.B.B.B.B.B.B.B.B.B.B.B.B.B.B.B.B.B.B.B.B.B.C.N.@.~ ~ ~ ~ ~ ~ U ",
"3.2.2.2.2.2.2.&.M.B.B.B.B.B.B.B.B.B.B.B.B.B.B.B.B.B.B.B.B.B.B.B.B.B.B.B.B.B.B.B.B.B.B.B.B.B.B.B.B.B.B.B.B.B.C.N.@.~ ~ ~ ~ ~ ~ U ",
"3.2.2.2.2.2.2.&.M.B.B.B.B.B.B.B.B.B.B.B.B.B.B.B.B.B.B.B.B.B.B.B.B.B.B.B.B.B.B.B.B.B.B.B.B.B.B.B.B.B.B.B.B.B.C.N.@.~ ~ ~ ~ ~ ~ U ",
"<.2.2.2.2.2.2.&.n.B.B.B.B.B.B.B.B.B.B.B.B.B.B.B.B.B.B.B.B.B.B.B.B.B.B.B.B.B.B.B.B.B.B.B.B.B.B.B.B.B.B.B.B.B.C.N.@.~ ~ ~ ~ ~ ~ U ",
"*.=.=.=.=.=.=.$.x.c.c.c.c.c.c.m.N.N.N.N.N.N.N.N.B.B.B.B.B.B.B.B.B.B.B.B.B.B.B.B.N.N.N.N.N.N.N.N.m.c.c.c.c.c.c.M.+.I I I I I I I ",
"d.a.a.a.a.a.a.K.^././././././.R.@ @ @ @ @ @ @ % B.B.B.B.B.B.B.B.B.B.B.B.B.B.B.S.$ @ @ @ @ @ @ @ T./././././././.J.t.t.t.t.t.t.y.",
"Z.B.B.B.B.B.B.L.`.].].].].].].~.              + B.B.B.B.B.B.B.B.B.B.B.B.B.B.B.S.o             . E.].].].].].].(.P.B.B.B.B.B.B.Z.",
"Z.B.B.B.B.B.B.L.`.].].].].].].~.              + B.B.B.B.B.B.B.B.B.B.B.B.B.B.B.D.o             . Q.].].].].].].(.P.B.B.B.B.B.B.Z.",
"Z.B.B.B.B.B.B.L.`.].].].].].].~.              + B.B.B.B.B.B.B.B.B.B.B.B.B.B.B.D.o             . Q.].].].].].].(.P.B.B.B.B.B.B.Z.",
"Z.B.B.B.B.B.B.L.`.].].].].].].~.              + B.B.B.B.B.B.B.B.B.B.B.B.B.B.B.D.o             . Q.].].].].].].(.P.B.B.B.B.B.B.Z.",
"Z.B.B.B.B.B.B.L.`.].].].].].].~.              + B.B.B.B.B.B.B.B.B.B.B.B.B.B.B.F.o             . Q.].].].].].].(.P.B.B.B.B.B.B.Z.",
"Z.B.B.B.B.B.B.L.`.].].].].].].~.              + B.B.B.B.B.B.B.B.B.B.B.B.B.B.B.D.o             . Q.].].].].].].(.P.B.B.B.B.B.B.Z.",
"Z.B.B.B.B.B.B.L.`.].].].].].].~.              + B.B.B.B.B.B.B.B.B.B.B.B.B.B.B.D.o             . Q.].].].].].].(.P.B.B.B.B.B.B.Z.",
"Z.B.B.B.B.B.B.L.`.].].].].].].~.              + B.B.B.B.B.B.B.B.B.B.B.B.B.B.B.D.o             . Q.].].].].].].(.P.B.B.B.B.B.B.Z.",
"Z.B.B.B.B.B.B.L.`.].].].].].].~.              + B.B.B.B.B.B.B.B.B.B.B.B.B.B.B.D.o             . Q.].].].].].].(.P.B.B.B.B.B.B.Z.",
"Z.B.B.B.B.B.B.L.`.].].].].].].~.              + B.B.B.B.B.B.B.B.B.B.B.B.B.B.B.D.o             . Q.].].].].].].(.P.B.B.B.B.B.B.Z.",
"Z.B.B.B.B.B.B.L.`.].].].].].].~.              + B.B.B.B.B.B.B.B.B.B.B.B.B.B.B.D.o             . Q.].].].].].].(.P.B.B.B.B.B.B.Z.",
"Z.B.B.B.B.B.B.L.`.].].].].].].~.              + B.B.B.B.B.B.B.B.B.B.B.B.B.B.B.F.o             . Q.].].].].].].(.P.B.B.B.B.B.B.Z.",
"Z.B.B.B.B.B.B.L.`.].].].].].].~.              + B.B.B.B.B.B.B.B.B.B.B.B.B.B.B.S.o             . Q.].].].].].].(.P.B.B.B.B.B.B.Z.",
"Z.B.B.B.B.B.B.L.`.'.].].].].].~.              + A.B.B.B.B.B.B.B.B.B.B.B.B.B.B.S.o             . Q.].].].].].].(.P.B.B.B.B.B.B.Z.",
"Z.B.B.B.B.B.B.L.)._._._._._._.!.X             # m.m.m.m.m.m.m.m.m.m.m.m.m.m.m.S.O             X W._._._._._._.).P.B.B.B.B.B.B.Z.",
"Z.B.B.B.B.B.B.G.Y.Y.Y.Y.Y.Y.Y.U.0 0 0 0 0 0 0 q y y y y e y y y y y y e y y e y w 0 0 0 0 0 0 0 I.Y.Y.Y.Y.Y.Y.Y.H.B.B.B.B.B.B.Z.",
"Z.B.B.B.B.B.B.B.B.B.B.B.B.B.B.B.B.B.B.B.B.B.B.l.7 7 7 7 7 7 7 7 7 7 7 7 7 7 7 5 z.B.B.B.B.B.B.B.B.B.B.B.B.B.B.B.B.B.B.B.B.B.B.Z.",
"Z.B.B.B.B.B.B.B.B.B.B.B.B.B.B.B.B.B.B.B.B.B.B.l.7 7 7 7 7 7 7 7 7 7 7 7 7 7 7 5 z.B.B.B.B.B.B.B.B.B.B.B.B.B.B.B.B.B.B.B.B.B.B.Z.",
"Z.B.B.B.B.B.B.B.B.B.B.B.B.B.B.B.B.B.B.B.B.B.B.l.7 7 7 7 7 7 7 7 7 7 7 7 7 7 7 5 z.B.B.B.B.B.B.B.B.B.B.B.B.B.B.B.B.B.B.B.B.B.B.Z.",
"Z.B.B.B.B.B.B.B.B.B.B.B.B.B.B.B.B.B.B.B.B.B.B.l.7 7 7 7 7 7 7 7 7 7 7 7 7 7 7 5 z.B.B.B.B.B.B.B.B.B.B.B.B.B.B.B.B.B.B.B.B.B.B.Z.",
"Z.B.B.B.B.B.B.B.B.B.B.B.B.B.B.B.B.B.B.B.B.B.B.l.7 7 7 7 7 7 7 7 7 7 7 7 7 7 7 5 z.B.B.B.B.B.B.B.B.B.B.B.B.B.B.B.B.B.B.B.B.B.B.Z.",
"Z.B.B.B.B.B.B.B.B.B.B.B.B.B.B.B.B.B.B.B.B.B.B.l.7 7 7 7 7 7 7 7 7 7 7 7 7 7 7 5 z.B.B.B.B.B.B.B.B.B.B.B.B.B.B.B.B.B.B.B.B.B.B.Z.",
"Z.B.B.B.B.B.B.B.B.B.B.B.B.B.B.B.B.B.B.B.B.B.B.l.7 7 7 7 7 7 7 7 7 7 7 7 7 7 7 5 z.B.B.B.B.B.B.B.B.B.B.B.B.B.B.B.B.B.B.B.B.B.B.Z.",
"Z.B.B.B.B.B.B.B.B.B.B.B.B.B.B.h.6 8 9 9 9 9 9 4 2 2 2 2 2 2 2 2 2 2 2 2 2 2 3 2 8 9 9 9 9 9 9 8 h.B.B.B.B.B.B.B.B.B.B.B.B.B.B.Z.",
"Z.B.B.B.B.B.B.B.B.B.B.B.B.B.B.e.; 1 < 1 1 < 1 1 1 1 1 1 1 1 1 1 1 1 1 1 1 1 1 1 < 1 < < < < < ; w.B.B.B.B.B.B.B.B.B.B.B.B.B.B.Z.",
"Z.B.B.B.B.B.B.B.B.B.B.B.B.B.B.e.: , , , , , , , , , , , , , , , , , , , , , , , , , , , , , , : w.B.B.B.B.B.B.B.B.B.B.B.B.B.B.Z.",
"Z.B.B.B.B.B.B.B.B.B.B.B.B.B.B.r.: , , , , , , , , , , , , , , , , , , , , , , , , , , , , , , : w.B.B.B.B.B.B.B.B.B.B.B.B.B.B.Z.",
"Z.B.B.B.B.B.B.B.B.B.B.B.B.B.B.r.: , , , , , , , , , , , , , , , , , , , , , , , , , , , , , , : w.B.B.B.B.B.B.B.B.B.B.B.B.B.B.Z.",
"Z.B.B.B.B.B.B.B.B.B.B.B.B.B.B.r.: , , , , , , , , , , , , , , , , , , , , , , , , , , , , , , : w.B.B.B.B.B.B.B.B.B.B.B.B.B.B.Z.",
"Z.B.B.B.B.B.B.B.B.B.B.B.B.B.B.r.: , , , , , , , , , , , , , , , , , , , , , , , , , , , , , , : w.B.B.B.B.B.B.B.B.B.B.B.B.B.B.Z.",
"Z.B.B.B.B.B.B.B.B.B.B.B.B.B.B.r.: > , , , , , , , , , , , , , , , , , , , , , , , , , , , , , : w.B.B.B.B.B.B.B.B.B.B.B.B.B.B.Z.",
"Z.B.B.B.B.B.B.B.B.B.B.B.B.B.B.j.t t t t t t t t t t t t t t t t t t t t t t t t t t t t t t t r k.B.B.B.B.B.B.B.B.B.B.B.B.B.B.Z.",
"Z.B.B.B.B.B.B.B.B.B.B.B.B.B.B.B.B.B.B.B.B.B.B.B.B.B.B.B.B.B.B.B.B.B.B.B.B.B.B.B.B.B.B.B.B.B.B.B.B.B.B.B.B.B.B.B.B.B.B.B.B.B.B.Z.",
"Z.B.B.B.B.B.B.B.B.B.B.B.B.B.B.B.B.B.B.B.B.B.B.B.B.B.B.B.B.B.B.B.B.B.B.B.B.B.B.B.B.B.B.B.B.B.B.B.B.B.B.B.B.B.B.B.B.B.B.B.B.B.B.Z.",
"Z.B.B.B.B.B.B.B.B.B.B.B.B.B.B.B.B.B.B.B.B.B.B.B.B.B.B.B.B.B.B.B.B.B.B.B.B.B.B.B.B.B.B.B.B.B.B.B.B.B.B.B.B.B.B.B.B.B.B.B.B.B.B.Z.",
"Z.B.B.B.B.B.B.B.B.B.B.B.B.B.B.B.B.B.B.B.B.B.B.B.B.B.B.B.B.B.B.B.B.B.B.B.B.B.B.B.B.B.B.B.B.B.B.B.B.B.B.B.B.B.B.B.B.B.B.B.B.B.B.Z.",
"Z.B.B.B.B.B.B.B.B.B.B.B.B.B.B.B.B.B.B.B.B.B.B.B.B.B.B.B.B.B.B.B.B.B.B.B.B.B.B.B.B.B.B.B.B.B.B.B.B.B.B.B.B.B.B.B.B.B.B.B.B.B.B.Z.",
"Z.B.B.B.B.B.B.B.B.B.B.B.B.B.B.B.B.B.B.B.B.B.B.B.B.B.B.B.B.B.B.B.B.B.B.B.B.B.B.B.B.B.B.B.B.B.B.B.B.B.B.B.B.B.B.B.B.B.B.B.B.B.B.Z.",
"Z.B.B.B.B.B.B.B.B.B.B.B.B.B.B.B.B.B.B.B.B.B.B.B.B.B.B.B.B.B.B.B.B.B.B.B.B.B.B.B.B.B.B.B.B.B.B.B.B.B.B.B.B.B.B.B.B.B.B.B.B.B.B.Z."
};
