/* XPM */
static char *result[] = {
/* columns rows colors chars-per-pixel */
"64 64 157 2 ",
"   c black",
".  c #217F16",
"X  c #217F17",
"o  c #227F17",
"O  c #227F18",
"+  c #614528",
"@  c #624528",
"#  c #624529",
"$  c #634529",
"%  c #624628",
"&  c #624629",
"*  c #725031",
"=  c #725032",
"-  c #8A603E",
";  c #8C603F",
":  c #8C623F",
">  c #8C6141",
",  c #8C6240",
"<  c #8D6240",
"1  c #96694B",
"2  c #976A4B",
"3  c #966A4C",
"4  c #9C6D49",
"5  c #9E6F49",
"6  c #9F6F49",
"7  c #9C6D4A",
"8  c #1D8116",
"9  c #1E8116",
"0  c #1F8116",
"q  c #1F8117",
"w  c #1E8216",
"e  c #1F8216",
"r  c #1E8316",
"t  c #1F8316",
"y  c #1F8217",
"u  c #1F8317",
"i  c #1D8515",
"p  c #1E8416",
"a  c #1E8516",
"s  c #1E8517",
"d  c #1F8118",
"f  c #1F8218",
"g  c #218116",
"h  c #208118",
"j  c #248719",
"k  c #208A18",
"l  c #228A1A",
"z  c #23911B",
"x  c #23921C",
"c  c #24911C",
"v  c #25931D",
"b  c #25941E",
"n  c #26941E",
"m  c #25961E",
"M  c #27961F",
"N  c #259A1E",
"B  c #269B1F",
"V  c #279B1F",
"C  c #29981F",
"Z  c #279920",
"A  c #279A20",
"S  c #269B20",
"D  c #279B20",
"F  c #279A21",
"G  c #279B21",
"H  c #279C20",
"J  c #289820",
"K  c #289921",
"L  c #2A9821",
"P  c #289B20",
"I  c #289A21",
"U  c #299E22",
"Y  c #28A021",
"T  c #2FBA27",
"R  c #2EBD27",
"E  c #2FBD27",
"W  c #2FBE27",
"Q  c #2FB928",
"!  c #30BD27",
"~  c #33BB29",
"^  c #30BD28",
"/  c #30BF28",
"(  c #30BF29",
")  c #31BF29",
"_  c #34BF29",
"`  c #35BF2A",
"'  c #43972B",
"]  c #40982A",
"[  c #41982A",
"{  c #42982B",
"}  c #53B335",
"|  c #56B536",
" . c #57B536",
".. c #57B537",
"X. c #2FC427",
"o. c #2FC328",
"O. c #30C028",
"+. c #30C128",
"@. c #31C029",
"#. c #30C228",
"$. c #31C228",
"%. c #30C328",
"&. c #31C328",
"*. c #31C229",
"=. c #30C329",
"-. c #31C329",
";. c #32C229",
":. c #32C329",
">. c #32C12A",
",. c #33C12B",
"<. c #32C22A",
"1. c #34C029",
"2. c #30C428",
"3. c #BD845A",
"4. c #BE855A",
"5. c #BE855B",
"6. c #BC8F5B",
"7. c #BC905B",
"8. c #BC905D",
"9. c #BD905D",
"0. c #BC915D",
"q. c #BD935C",
"w. c #BC925D",
"e. c #BD945C",
"r. c #BC955C",
"t. c #BC955D",
"y. c #C4885E",
"u. c #C78A5E",
"i. c #C68A5F",
"p. c #C68960",
"a. c #CB8D63",
"s. c #CC8E61",
"d. c #CD8E61",
"f. c #CE8D63",
"g. c #CF8D63",
"h. c #CC8E62",
"j. c #CD8E62",
"k. c #CC8F62",
"l. c #CD8F62",
"z. c #CD8E63",
"x. c #CE8E62",
"c. c #CE8E63",
"v. c #CE8F63",
"b. c #CD8E64",
"n. c #CB9067",
"m. c #CB9167",
"M. c #CB9168",
"N. c #CE9268",
"B. c #CE9369",
"V. c #C29D71",
"C. c #C49F71",
"Z. c #D19F7A",
"A. c #D2A07C",
"S. c #CEA382",
"D. c #CFA483",
"F. c #D7AC8B",
"G. c white",
/* pixels */
"y f f f f f f x &.&.&.&.&.&.&.W F G G G G G G Y &.&.&.&.&.&.&.:.w f f f f f f y I G G G G G G D ! -.&.&.&.&.&.&.&.&.&.&.&.&.&.2.",
"y h h h h h h c #.$.*.*.*.*.*.R A I I I I I I U *.*.*.*.*.*.*.*.e h h h h h h 0 K I I I I I I A R *.*.*.*.*.*.*.*.*.*.*.*.*.*.%.",
"y h h h h h h c #.*.*.*.*.*.*.E A I I I I I I U *.*.*.*.*.*.*.*.e h h h h h h q K I I I I I I A E *.*.*.*.*.*.*.*.*.*.*.*.*.*.&.",
"y h h h h h h c #.*.*.*.*.*.*.E A I I I I I I U *.*.*.*.*.*.*.*.e h h h h h h q K I I I I I I A E *.*.*.*.*.*.*.*.*.*.*.*.*.*.&.",
"y h h h h h h c #.*.*.*.*.*.*.E A I I I I I I U *.*.*.*.*.*.*.*.e h h h h h h q K I I I I I I A E *.*.*.*.*.*.*.*.*.*.*.*.*.*.&.",
"y h h h h h h c #.*.*.*.*.*.*.E A I I I I I I U *.*.*.*.*.*.*.*.e h h h h h h q K I I I I I I A E *.*.*.*.*.*.*.*.*.*.*.*.*.*.&.",
"y h h h h h h c #.*.*.*.*.*.*.E A I I I I I I U *.*.*.*.*.*.*.*.e h h h h h h q K I I I I I I A E *.*.*.*.*.*.*.*.*.*.*.*.*.*.%.",
"t y u u y u u z ) ( ( ( ( ( / T H H H H H H H Y O.O.O.O.O.O.O.@.i a a a a a s p J Z Z Z Z Z Z Z Q ) ( ( ( ( / / O.O.O.O.O.O.O.+.",
"P I I I I I I b 9 9 9 9 9 9 9 k *.*.*.*.*.*.*.^ A A A A A A A N <.;.<.<.<.<.;.,.r q q q q q q q 9 9 9 9 9 9 9 8 m A A A A A A B ",
"P I I I I I I n d h h h h h h l *.*.*.*.*.*.*.^ I I I I I I I D *.*.*.*.*.*.*.>.u h h h h h h h h h h h h h h q M I I I I I I D ",
"P I I I I I I n d h h h h h h l *.*.*.*.*.*.*.^ I I I I I I I D *.*.*.*.*.*.*.>.u h h h h h h h h h h h h h h q M I I I I I I D ",
"P I I I I I I n d h h h h h h l *.*.*.*.*.*.*.^ I I I I I I I D *.*.*.*.*.*.*.>.u h h h h h h h h h h h h h h q M I I I I I I D ",
"P I I I I I I n d h h h h h h l *.*.*.*.*.*.*.^ I I I I I I I D *.*.*.*.*.*.*.>.u h h h h h h h h h h h h h h q M I I I I I I D ",
"P I I I I I I n d h h h h h h l *.*.*.*.*.*.*.^ I I I I I I I D *.*.*.*.*.*.*.>.u h h h h h h h h h h h h h h q M I I I I I I D ",
"P I I I I I I n d h h h h h h l *.*.*.*.*.*.*.^ I I I I I I I D *.*.*.*.*.*.*.>.u h h h h h h h h h h h h h h q M I I I I I I D ",
"V A A A A A A v X o o o o o o j 1.1.1.1.1.1.1.~ L L L L L L L C _ 1.1.1.1.1.1.` g O o o o o o o o o o o o o o . M I I I I I I D ",
"O./ / / / / / } 8.9.8.8.8.8.8.0.t.t.r.t.t.r.t.t.w.w.w.w.w.w.w.w.t.t.r.t.t.r.t.t.8.8.8.8.8.8.8.8.8.8.8.8.8.8.8.8.] I I I I I I D ",
"%.$.*.$.$.$.$. .j.f.f.f.f.f.f.f.f.f.f.f.f.f.f.f.f.f.f.f.f.f.f.f.f.f.f.f.f.f.f.f.f.f.f.f.f.c.f.f.c.f.f.c.f.f.g.x.' I I I I I I D ",
"=.*.*.*.*.*.*...k.z.z.z.z.z.z.z.z.z.z.z.z.z.z.z.z.z.z.z.z.z.z.z.z.z.z.z.z.z.z.z.z.z.z.z.z.z.z.z.z.z.z.z.z.z.c.l.{ I I I I I I D ",
"=.*.*.*.*.*.*...k.z.z.z.z.z.z.z.z.z.z.z.z.z.z.z.z.z.z.z.z.z.z.z.z.z.z.z.z.z.z.z.z.z.z.z.z.z.z.z.z.z.z.z.z.z.c.l.{ I I I I I I D ",
"=.*.*.*.*.*.*...k.z.z.z.z.z.z.z.z.z.z.z.z.z.z.z.z.z.z.z.z.z.z.z.z.z.z.z.z.z.z.z.z.z.z.z.z.z.z.z.z.z.z.z.z.z.c.l.{ I I I I I I D ",
"=.*.*.*.*.*.*...k.z.z.z.z.z.z.z.z.z.z.z.z.z.z.z.z.z.z.z.z.z.z.z.z.z.z.z.z.z.z.z.z.z.z.z.z.z.z.z.z.z.z.z.z.z.c.l.{ I I I I I I D ",
"%.*.*.*.*.*.*...h.z.z.z.z.z.z.z.z.z.z.z.z.z.z.z.z.z.z.z.z.z.z.z.z.z.z.z.z.z.z.z.z.z.z.z.z.z.z.z.z.z.z.z.z.z.c.l.{ I I I I I I D ",
"X.o.o.o.o.o.o.| s.d.d.d.d.d.d.j.l.l.l.l.l.l.l.l.z.z.z.z.z.z.z.z.z.z.z.z.z.z.z.z.l.l.l.l.l.l.l.l.j.d.d.d.d.d.d.k.[ S S S S S S S ",
"e.q.q.q.q.q.q.C.G.G.G.G.G.G.G.G.                z.z.z.z.z.z.z.z.z.z.z.z.z.z.z.n.G.G.G.G.G.G.G.G.                V.6.6.6.6.6.6.7.",
"v.z.z.z.z.z.z.Z.G.G.G.G.G.G.G.G.                z.z.z.z.z.z.z.z.z.z.z.z.z.z.z.n.G.G.G.G.G.G.G.G.                A.z.z.z.z.z.z.v.",
"v.z.z.z.z.z.z.Z.G.G.G.G.G.G.G.G.                z.z.z.z.z.z.z.z.z.z.z.z.z.z.z.m.G.G.G.G.G.G.G.G.                A.z.z.z.z.z.z.v.",
"v.z.z.z.z.z.z.Z.G.G.G.G.G.G.G.G.                z.z.z.z.z.z.z.z.z.z.z.z.z.z.z.m.G.G.G.G.G.G.G.G.                A.z.z.z.z.z.z.v.",
"v.z.z.z.z.z.z.Z.G.G.G.G.G.G.G.G.                z.z.z.z.z.z.z.z.z.z.z.z.z.z.z.m.G.G.G.G.G.G.G.G.                A.z.z.z.z.z.z.v.",
"v.z.z.z.z.z.z.Z.G.G.G.G.G.G.G.G.                z.z.z.z.z.z.z.z.z.z.z.z.z.z.z.M.G.G.G.G.G.G.G.G.                A.z.z.z.z.z.z.v.",
"v.z.z.z.z.z.z.Z.G.G.G.G.G.G.G.G.                z.z.z.z.z.z.z.z.z.z.z.z.z.z.z.m.G.G.G.G.G.G.G.G.                A.z.z.z.z.z.z.v.",
"v.z.z.z.z.z.z.Z.G.G.G.G.G.G.G.G.                z.z.z.z.z.z.z.z.z.z.z.z.z.z.z.m.G.G.G.G.G.G.G.G.                A.z.z.z.z.z.z.v.",
"v.z.z.z.z.z.z.Z.G.G.G.G.G.G.G.G.                z.z.z.z.z.z.z.z.z.z.z.z.z.z.z.m.G.G.G.G.G.G.G.G.                A.z.z.z.z.z.z.v.",
"v.z.z.z.z.z.z.Z.G.G.G.G.G.G.G.G.                z.z.z.z.z.z.z.z.z.z.z.z.z.z.z.m.G.G.G.G.G.G.G.G.                A.z.z.z.z.z.z.v.",
"v.z.z.z.z.z.z.Z.G.G.G.G.G.G.G.G.                z.z.z.z.z.z.z.z.z.z.z.z.z.z.z.m.G.G.G.G.G.G.G.G.                A.z.z.z.z.z.z.v.",
"v.z.z.z.z.z.z.Z.G.G.G.G.G.G.G.G.                z.z.z.z.z.z.z.z.z.z.z.z.z.z.z.m.G.G.G.G.G.G.G.G.                A.z.z.z.z.z.z.v.",
"v.z.z.z.z.z.z.Z.G.G.G.G.G.G.G.G.                z.z.z.z.z.z.z.z.z.z.z.z.z.z.z.M.G.G.G.G.G.G.G.G.                A.z.z.z.z.z.z.v.",
"v.z.z.z.z.z.z.Z.G.G.G.G.G.G.G.G.                z.z.z.z.z.z.z.z.z.z.z.z.z.z.z.n.G.G.G.G.G.G.G.G.                A.z.z.z.z.z.z.v.",
"v.z.z.z.z.z.z.Z.G.G.G.G.G.G.G.G.                b.z.z.z.z.z.z.z.z.z.z.z.z.z.z.n.G.G.G.G.G.G.G.G.                A.z.z.z.z.z.z.v.",
"v.z.z.z.z.z.z.Z.G.G.G.G.G.G.G.G.                j.j.j.j.j.j.j.j.j.j.j.j.j.j.j.n.G.G.G.G.G.G.G.G.                A.z.z.z.z.z.z.v.",
"v.z.z.z.z.z.z.N.F.F.F.F.F.F.F.D.1 1 1 1 1 1 1 2 7 7 7 7 4 7 7 7 7 7 7 4 7 7 4 7 3 1 1 1 1 1 1 1 S.F.F.F.F.F.F.F.B.z.z.z.z.z.z.v.",
"v.z.z.z.z.z.z.z.z.z.z.z.z.z.z.z.z.z.z.z.z.z.z.p.> > > > > > > > > > > > > > > ; a.z.z.z.z.z.z.z.z.z.z.z.z.z.z.z.z.z.z.z.z.z.z.v.",
"v.z.z.z.z.z.z.z.z.z.z.z.z.z.z.z.z.z.z.z.z.z.z.p.> > > > > > > > > > > > > > > ; a.z.z.z.z.z.z.z.z.z.z.z.z.z.z.z.z.z.z.z.z.z.z.v.",
"v.z.z.z.z.z.z.z.z.z.z.z.z.z.z.z.z.z.z.z.z.z.z.p.> > > > > > > > > > > > > > > ; a.z.z.z.z.z.z.z.z.z.z.z.z.z.z.z.z.z.z.z.z.z.z.v.",
"v.z.z.z.z.z.z.z.z.z.z.z.z.z.z.z.z.z.z.z.z.z.z.p.> > > > > > > > > > > > > > > ; a.z.z.z.z.z.z.z.z.z.z.z.z.z.z.z.z.z.z.z.z.z.z.v.",
"v.z.z.z.z.z.z.z.z.z.z.z.z.z.z.z.z.z.z.z.z.z.z.p.> > > > > > > > > > > > > > > ; a.z.z.z.z.z.z.z.z.z.z.z.z.z.z.z.z.z.z.z.z.z.z.v.",
"v.z.z.z.z.z.z.z.z.z.z.z.z.z.z.z.z.z.z.z.z.z.z.p.> > > > > > > > > > > > > > > ; a.z.z.z.z.z.z.z.z.z.z.z.z.z.z.z.z.z.z.z.z.z.z.v.",
"v.z.z.z.z.z.z.z.z.z.z.z.z.z.z.z.z.z.z.z.z.z.z.p.> > > > > > > > > > > > > > > ; a.z.z.z.z.z.z.z.z.z.z.z.z.z.z.z.z.z.z.z.z.z.z.v.",
"v.z.z.z.z.z.z.z.z.z.z.z.z.z.z.y.: , < < < < < - * * * * * * * * * * * * * * = * , < < < < < < , y.z.z.z.z.z.z.z.z.z.z.z.z.z.z.v.",
"v.z.z.z.z.z.z.z.z.z.z.z.z.z.z.4.+ & % & & % & & & & & & & & & & & & & & & & & & % & % % % % % + 3.z.z.z.z.z.z.z.z.z.z.z.z.z.z.v.",
"v.z.z.z.z.z.z.z.z.z.z.z.z.z.z.4.@ $ $ $ $ $ $ $ $ $ $ $ $ $ $ $ $ $ $ $ $ $ $ $ $ $ $ $ $ $ $ @ 3.z.z.z.z.z.z.z.z.z.z.z.z.z.z.v.",
"v.z.z.z.z.z.z.z.z.z.z.z.z.z.z.5.@ $ $ $ $ $ $ $ $ $ $ $ $ $ $ $ $ $ $ $ $ $ $ $ $ $ $ $ $ $ $ @ 3.z.z.z.z.z.z.z.z.z.z.z.z.z.z.v.",
"v.z.z.z.z.z.z.z.z.z.z.z.z.z.z.5.@ $ $ $ $ $ $ $ $ $ $ $ $ $ $ $ $ $ $ $ $ $ $ $ $ $ $ $ $ $ $ @ 3.z.z.z.z.z.z.z.z.z.z.z.z.z.z.v.",
"v.z.z.z.z.z.z.z.z.z.z.z.z.z.z.5.@ $ $ $ $ $ $ $ $ $ $ $ $ $ $ $ $ $ $ $ $ $ $ $ $ $ $ $ $ $ $ @ 3.z.z.z.z.z.z.z.z.z.z.z.z.z.z.v.",
"v.z.z.z.z.z.z.z.z.z.z.z.z.z.z.5.@ $ $ $ $ $ $ $ $ $ $ $ $ $ $ $ $ $ $ $ $ $ $ $ $ $ $ $ $ $ $ @ 3.z.z.z.z.z.z.z.z.z.z.z.z.z.z.v.",
"v.z.z.z.z.z.z.z.z.z.z.z.z.z.z.5.@ # $ $ $ $ $ $ $ $ $ $ $ $ $ $ $ $ $ $ $ $ $ $ $ $ $ $ $ $ $ @ 3.z.z.z.z.z.z.z.z.z.z.z.z.z.z.v.",
"v.z.z.z.z.z.z.z.z.z.z.z.z.z.z.u.6 6 6 6 6 6 6 6 6 6 6 6 6 6 6 6 6 6 6 6 6 6 6 6 6 6 6 6 6 6 6 5 i.z.z.z.z.z.z.z.z.z.z.z.z.z.z.v.",
"v.z.z.z.z.z.z.z.z.z.z.z.z.z.z.z.z.z.z.z.z.z.z.z.z.z.z.z.z.z.z.z.z.z.z.z.z.z.z.z.z.z.z.z.z.z.z.z.z.z.z.z.z.z.z.z.z.z.z.z.z.z.z.v.",
"v.z.z.z.z.z.z.z.z.z.z.z.z.z.z.z.z.z.z.z.z.z.z.z.z.z.z.z.z.z.z.z.z.z.z.z.z.z.z.z.z.z.z.z.z.z.z.z.z.z.z.z.z.z.z.z.z.z.z.z.z.z.z.v.",
"v.z.z.z.z.z.z.z.z.z.z.z.z.z.z.z.z.z.z.z.z.z.z.z.z.z.z.z.z.z.z.z.z.z.z.z.z.z.z.z.z.z.z.z.z.z.z.z.z.z.z.z.z.z.z.z.z.z.z.z.z.z.z.v.",
"v.z.z.z.z.z.z.z.z.z.z.z.z.z.z.z.z.z.z.z.z.z.z.z.z.z.z.z.z.z.z.z.z.z.z.z.z.z.z.z.z.z.z.z.z.z.z.z.z.z.z.z.z.z.z.z.z.z.z.z.z.z.z.v.",
"v.z.z.z.z.z.z.z.z.z.z.z.z.z.z.z.z.z.z.z.z.z.z.z.z.z.z.z.z.z.z.z.z.z.z.z.z.z.z.z.z.z.z.z.z.z.z.z.z.z.z.z.z.z.z.z.z.z.z.z.z.z.z.v.",
"v.z.z.z.z.z.z.z.z.z.z.z.z.z.z.z.z.z.z.z.z.z.z.z.z.z.z.z.z.z.z.z.z.z.z.z.z.z.z.z.z.z.z.z.z.z.z.z.z.z.z.z.z.z.z.z.z.z.z.z.z.z.z.v.",
"v.z.z.z.z.z.z.z.z.z.z.z.z.z.z.z.z.z.z.z.z.z.z.z.z.z.z.z.z.z.z.z.z.z.z.z.z.z.z.z.z.z.z.z.z.z.z.z.z.z.z.z.z.z.z.z.z.z.z.z.z.z.z.v."
};
