/* XPM */
static char *_6442bd3ce08492bc937b8e3c87e0e3dv6IU5kNLHBV9q3lz[] = {
/* columns rows colors chars-per-pixel */
"64 64 50 1 ",
"  c #161616",
". c #171718",
"X c #1B1B1B",
"o c #1F1F20",
"O c #222222",
"+ c #2C2C2C",
"@ c #2F302F",
"# c #30302F",
"$ c #2F2F30",
"% c #2F3031",
"& c #333334",
"* c #363638",
"= c #373839",
"- c #3B3B3D",
"; c #40403F",
": c #3F3F41",
"> c #403F41",
", c #3F4042",
"< c gray26",
"1 c #414244",
"2 c #434445",
"3 c #444445",
"4 c #474749",
"5 c #47484A",
"6 c #49494A",
"7 c #494A4C",
"8 c #4B4C4E",
"9 c #4C4D4F",
"0 c #4D4E50",
"q c #4F5052",
"w c #535353",
"e c #535354",
"r c #535456",
"t c gray33",
"y c #555656",
"u c #565658",
"i c #575859",
"p c #58585A",
"a c #5B5B5D",
"s c #5D5D5F",
"d c #5F5F61",
"f c #5F6061",
"g c #616163",
"h c #626264",
"j c #636465",
"k c #656567",
"l c #676769",
"z c #67686A",
"x c #68686A",
"c c #696A6C",
/* pixels */
"<<ylk6<<-<<kxx<xxl1<<yxx3OOO<<hdshgkkl3<<+O-<k3<kchg3kl3kk3&OOdc",
"36+=637+%j78766363-3*<67,.OO<864365,37764XOs7&-773=4q7&-553OOOsu",
"4=43-&4&-a631-:-144434343-OOs333:431:2:*3-+s5-4--1+114&-244*OOy4",
"*:<=+O+++s-=1-1:<<<<1-<11=OOp-:&&<&*&--&:*Op1-:*-<<=+:+-&+&*OOu3",
"-+----+O$p%---&--=&&-----&OOy*=-++--&--=-+Ow-&*--&&O=-++O&=OOOe+",
"+**&*&+&+p&=*&&*&*+&+&+&* OO=&&&&&+&&O*&&.Oe+O&$+&&&+&+X&*&+OO=&",
"++++++++ .++$$+++++++++$O OO.+$+++O$+++X+ O.++$++++++++.XO+ OO.+",
"OOOOOOOOOOOOXOOOOOOOOOOOOOOOOOOOOOOOOOOOOOOOOOOOOOOOOOOOOOOOOOOO",
"<a<<zx<<&-<<<<<<<<<<<<<<<OOO+<<<<<<<<OOO&<<lh3<<<<g3+Odhsk3<<<<h",
"74:3+27--ww679=733446767&.OO;386=-746:OO-6<46777-674XOp764677673",
"=145++&+-g44:=24<3:13331+=OO3+:423334-OOa+:444312-,3-Op7:3433413",
"<==::<1O+s<1<<:<-<-<1:<-=&OO6+&-<1:=<*OO3,<<<&-<:=:-=Oi<<<<<-::-",
"------+O&a*----------=*&-XOO3&=----==+OO<----=--*-=*&Oe-+=-=&&==",
"***&+&&&$a&&&*&&&&**&&*&+&OO=*&+&&&&&$OO=&&&++&&*&&&.X=&&***&&&+",
"OOO&++O+ .++$$$$+$+$&$$++ OO++&++$+++ OOO$$&+$++$$+O OO$+$+&+$$$",
"OOOOOOOOOOOOOOOOOOOOOOOOOOOOOOOOOOOOOOOOOOOOOOOOOOOOOOOOOOOOOOOO",
"lkl<&O<<9w<hh<l<<l<<<<kxl<<&O;<kl3<hz3kyk3&OO-<<gkgllll3<&O-<9hy",
"7874.O<546&:&7+677-::r777&&XOg6&6696763576XOOs9:,14799871XO-4767",
"3434-Op+4543-+&&&=3234433+:O+6=O&--343=<33-OOa0*&<&:3443<-Ou4=13",
"--<&+Os:,<<<:&:*<:11<1:<<=1*Os+---:&:-<<1<=OOa6<==--<<<&-*Ow1*<<",
"---&OOp-:-=&=&=---------&$=&Oy&:---&&+-&--&OOy:&&&-----&-&Oe<&=-",
"&*&&+O--**&+***&&&&*&&&&*&& Ow**&*&+&&&*&*+OO6=&&&&&**+&&&Ow==&&",
"++++ OO++$+++$++O+++++$++++ O.++++O++++O++ OO+O++$+++$+++.O.+$++",
"OOOOOOOOOOO+OOOOOOOOOOOOOOOOOOOOOOOOOOOOOOOOOOOOOOOOOOOOOOOOOOOO",
"<<p<<<OO<<klkkkll<<<<<<<OO+<<<<<<<<<OO-<<<h3<sg3<<<<<<gs3OO+-a3<",
"w76w56.+h-:r48718-=6:=81.Og077566<67+Od6441-9<44664637477OOpe167",
"33:4<4=Op=&-&,>34443=142-Od43::3344-+Op64=<34-3341=&3<443=Ou4=14",
"::<1&1*Od-+-:1<=-1<<=<<1*O91=-=<<<<-+Oa1<1<<-<&<<:+-<=-:<&Ou2<=+",
"-=--&-&Oe+-+--=&=----&=+&Ow&-*=---&=&Ou------------*--+==&Oe---O",
"&***&&+O-&&&*&#&&&*&&+&+.O<&&&&&&&&&&Oe=*****&&*&*&O&*+&*.O3=&&+",
"+&+&$$ O&+$$&$+$&+++O+$+ O.++++&++$$+O3&+$++++$+&$++$+++$.O.+oXX",
"OOOOOOOOOOOOOOOOOOOOOOOOOOOOOOOOOOOOOOOOOOOOOOOOOOOOOOOOOOOOOOOO",
"<<ga<whjl<&OO-<jkyhk<<<<OOO=<<hkpkkjghhhas<&O=<fk3s3=O-<<<<ws3yg",
"878<37718:XOO<9716246746XOOdq7978773007-904XOs793774:O-653:6=++1",
"-<5+-34444=O+s43+++3&333=OOd54431-3&1444&:3*+d033331-Op43&<42:23",
"<&1<=:<1<<=OOi4<++:-&,:-&OOa31<1<1<<1-&<<+&&Op11<<1<=Oy:=<<<1<<-",
"--&=------$OOy--+=&--=+&&OOp&=&--*--:-&&-*+&Oy<-=--=&O6+-&=----+",
"&*&&=&*=&= OOy&*&&*&&&OO OOw&*&*O&*O++&&*++.Ow=*****.O6+&&&&&*&&",
"++$+++$&+$ OOX++++++++O+ OOX+$+++O++OOO+++X OX++O+++ O.+$++++$++",
"OOOOOOOOOOOOOOOOOOOOOOOOOOOOOOOOOOOOOOOOOOOOOOOOOOOOOOOOOOOOOOOO",
"<<<<<;-g9w<OOO&<<<<sy<OOO&-;-s<;-gh<<OOO&-g<<<<<<<;gk9<<OO+-<<yj",
"76=6=7--&3&.OO<&43<937-OO-6988<7487<=+OO-677-54766<69967OOy777:7",
"<33315+31-=OOOp@:33<:3-OO-34444&14331=OO9424342334-45444-Oy64--3",
"<<11:-<+<<:&OOy<<<1<=1&OOp<1&&1:1<<:<&OOw+<<1=:-<<,<-<:&&Ou3<=-:",
"------++-+-&OOw-&--=--&OO-&--+=&----=&OOy-&-&=*-----&-&+&Ow--&=-",
"&&***&&O&&$ OOu**&*&+++OO=&O++&**&&&&$OO-*&&*&&&*&*&**++.O9*&+&+",
"$$$+&O&O++$ OO&++&&$++ OO+O+O++$&O$&$.OO+&++++$+$%&&$O++.OX+OO++",
"OOOOOOOOOOOOO+OOOOOOOOOOOOOOOOOOOOOOOOOOOOOOOOOOOOOOOOOOOOOOOOOO",
"--ghgs<g<+OO-<dsdggjhhpghh<&OO---<f<gyy<<&O---dhhggh<&O---dhg<9<",
"4649977=4XOO<&4778740==6837XOO-1<10197<64OOy869999066OO-97748-55",
"5433-3<+<*OOs-4342:44133334*OOp333434414=&Oa63<<4441-&Oy<433433-",
"1-&=:,<*-&OOs<1<11-<<1<-=<1=OOa-<:<11<<<-*Op3&:=<<11<*Ou<<:11<,+",
"*&-+&+&-=&OOy------=----+-&&OOy---::--&++&Oy==-=&----&O6+&-=-==&",
"&&+&+&&&&+OO-+*&&*&&***&+O&&OOy*&&**&&*&&.O6=&&*&&$&&+O=&&&&&&*&",
"O+++O++$+ OOX+$$+O++++$+O+O.OO4++OOO+O+$O OX+++++++++.OX+++++OO+",
"OOOOOOOOOOO+OOOOOOOOOOOOOOOOOOOOOOOOOOO+&OOOOOOOOOOOOOOOOOOOOOOO",
"sy6--OOw-;-p<-6<--g<OOO&---uwffggh<OOO+-d<s<s<--dp<d<OO&--s<----",
"3966&XO<6-3768469=96-OO-4<691=38qe9-OO-:7397938:94606-O-4436653<",
":-351&Oa-&<4444+=&43-OOa5--<1=<++35-OO91+<4--11-34314-Oi4-<<4341",
"&1,<1+Op=*<11<O++-<,*OOs1:--:,:-O:&*OOy&---<:<<<:1---&Ou3<=-<<1<",
"&&-*&&Ow-+----&=---&&OO9--=+----=--OOOw-----------=+&&Oe=&--*---",
"&&*&&.Oy&&&+&+&&***&&OOu&+&&*+&*&*&+OO-O&*&&&**&*&&&&&O==&==&*&+",
"&$&$O O++$++O++$%&&&.OO3&+&++O+$+&+.OO+X+++++&+O+++++.O++&$&+++O",
"OOOOOOOOOOOOOOOOOOOOOOO+OOOOOO+OOOOOOOOOOOOOOOOOOOOOOOOOOOOOOOOO"
};
